<?xml version="1.0" standalone="no"?>
<!DOCTYPE svg PUBLIC "-//W3C//DTD SVG 1.1//EN" "http://www.w3.org/Graphics/SVG/1.1/DTD/svg11.dtd" >
<svg xmlns="http://www.w3.org/2000/svg" xmlns:xlink="http://www.w3.org/1999/xlink" version="1.1">
<metadata>
Created by FontForge 20201107 at Tue Jun  7 11:52:51 2016
 By Jimmy Wärting
(c) 2016 Microsoft Corporation. All Rights Reserved.
</metadata>
<defs>
<font id="Gadugi" horiz-adv-x="1634" >
  <font-face 
    font-family="Gadugi"
    font-weight="400"
    font-stretch="normal"
    units-per-em="2048"
    panose-1="2 11 5 2 4 2 4 2 2 3"
    ascent="1638"
    descent="-410"
    x-height="1024"
    cap-height="1434"
    bbox="-312 -486 2592 1958"
    underline-thickness="119"
    underline-position="-237"
    unicode-range="U+000D-FB02"
  />
<missing-glyph horiz-adv-x="1322" 
d="M166 0v1398h990v-1398h-990zM314 148h694v1102h-694v-1102z" />
    <glyph glyph-name=".notdef" horiz-adv-x="1322" 
d="M166 0v1398h990v-1398h-990zM314 148h694v1102h-694v-1102z" />
    <glyph glyph-name="uni000D" unicode="&#xd;" horiz-adv-x="0" 
 />
    <glyph glyph-name="glyph2" horiz-adv-x="199" 
 />
    <glyph glyph-name="space" unicode=" " horiz-adv-x="561" 
 />
    <glyph glyph-name="exclam" unicode="!" horiz-adv-x="582" 
d="M375 1434l-19 -1030h-135l-18 1030h172zM291 -18q-46 0 -78.5 32t-32.5 78t32.5 78.5t78.5 32.5q45 0 78 -32.5t33 -78.5t-33 -78t-78 -32z" />
    <glyph glyph-name="quotedbl" unicode="&#x22;" horiz-adv-x="803" 
d="M323 1434l-30 -447h-115l-30 447h175zM655 1434l-30 -447h-115l-30 447h175z" />
    <glyph glyph-name="numbersign" unicode="#" horiz-adv-x="1210" 
d="M1166 1032l-23 -106h-261l-63 -300h281l-27 -106h-275l-88 -397h-126l86 397h-250l-84 -397h-125l84 397h-262l20 106h265l61 300h-277l21 106h277l84 402h126l-84 -402h252l86 402h123l-84 -402h263zM758 926h-252l-66 -300h254z" />
    <glyph glyph-name="dollar" unicode="$" horiz-adv-x="1104" 
d="M616 8v-217h-104v209q-213 0 -346 86v174q58 -51 158.5 -85.5t187.5 -34.5v512q-220 106 -285 195.5t-65 211.5q0 145 99 250.5t251 126.5v180h104v-176q196 -6 271 -56v-170q-102 80 -271 86v-528q208 -99 284.5 -191.5t76.5 -210.5q0 -142 -95.5 -238.5t-265.5 -123.5z
M512 828v466q-84 -17 -133 -74.5t-49 -139.5q0 -86 40 -141t142 -111zM616 600v-452q193 42 193 208q0 138 -193 244z" />
    <glyph glyph-name="percent" unicode="%" horiz-adv-x="1676" 
d="M404 715q-148 0 -236 97.5t-88 260.5q0 178 93 280.5t251 102.5q153 0 237.5 -95t84.5 -267t-94.5 -275.5t-247.5 -103.5zM418 1346q-95 0 -150 -70.5t-55 -193.5q0 -121 54 -188.5t147 -67.5q94 0 147 70t53 194q0 121 -52.5 188.5t-143.5 67.5zM1364 1434l-920 -1444
h-143l919 1444h144zM1258 -22q-148 0 -236 98t-88 260q0 178 94 281.5t250 103.5q152 0 237 -96t85 -269q0 -171 -94.5 -274.5t-247.5 -103.5zM1272 608q-96 0 -150.5 -70t-54.5 -194q0 -119 54 -186.5t147 -67.5q94 0 147 70.5t53 193.5q0 122 -52.5 188t-143.5 66z" />
    <glyph glyph-name="ampersand" unicode="&#x26;" horiz-adv-x="1639" 
d="M1445 -23q-57 0 -100.5 15.5t-80.5 44t-71.5 69.5t-72.5 93q-40 -43 -92.5 -83t-116.5 -71t-140 -49.5t-165 -18.5q-108 0 -198 27t-154 79.5t-99.5 129.5t-35.5 177q0 153 87 261.5t246 177.5q-30 22 -60 51.5t-53.5 67t-38 83t-14.5 99.5q0 79 28.5 140t78.5 103
t118 63.5t147 21.5q78 0 142.5 -21.5t111 -61.5t72.5 -96t26 -125q0 -120 -68.5 -199.5t-205.5 -135.5q69 -27 125 -66t103.5 -87t88.5 -103t81 -114q81 113 122 249t41 285q0 38 -4.5 71.5t-12.5 66.5h159q8 -33 9.5 -62.5t3.5 -70.5q0 -91 -19 -183t-51 -178.5
t-74.5 -164.5t-89.5 -143q35 -48 64 -83.5t58.5 -59.5t61 -35.5t71.5 -11.5q30 0 61 8t64 20v-152q-36 -14 -75.5 -21t-77.5 -7zM606 119q76 0 140 16.5t118 44t98 64t80 76.5q-61 95 -112.5 162.5t-104 116.5t-112 84t-137.5 65q-63 -25 -116 -55.5t-91.5 -72t-60.5 -96.5
t-22 -129q0 -68 25 -120t68.5 -86.5t101.5 -52t125 -17.5zM856 1140q0 50 -18.5 85t-47 58t-63.5 33.5t-69 10.5q-98 0 -156.5 -53t-59.5 -144q0 -41 12.5 -77t35 -67t52.5 -55t64 -41q126 44 188 102.5t62 147.5z" />
    <glyph glyph-name="quotesingle" unicode="'" horiz-adv-x="471" 
d="M323 1434l-30 -447h-115l-30 447h175z" />
    <glyph glyph-name="parenleft" unicode="(" horiz-adv-x="618" 
d="M596 -326h-146q-310 354 -310 873q0 521 310 887h148q-314 -380 -314 -885q0 -501 312 -875z" />
    <glyph glyph-name="parenright" unicode=")" horiz-adv-x="618" 
d="M170 -326h-146q312 374 312 875q0 505 -314 885h148q312 -366 312 -887q0 -519 -312 -873z" />
    <glyph glyph-name="asterisk" unicode="*" horiz-adv-x="854" 
d="M780 1104l-274 -56l190 -243l-110 -76l-156 265l-158 -265l-110 76l190 243l-276 56l45 125l262 -99l-23 304h138l-23 -304l263 99z" />
    <glyph glyph-name="plus" unicode="+" horiz-adv-x="1401" 
d="M1172 530h-404v-403h-133v403h-403v134h403v403h133v-403h404v-134z" />
    <glyph glyph-name="comma" unicode="," horiz-adv-x="444" 
d="M316 228l-160 -492h-117l117 492h160z" />
    <glyph glyph-name="hyphen" unicode="-" horiz-adv-x="819" 
d="M690 506h-546v129h546v-129z" />
    <glyph glyph-name="period" unicode="." horiz-adv-x="444" 
d="M223 -22q-46 0 -78.5 33t-32.5 79t32.5 79.5t78.5 33.5q47 0 80 -33.5t33 -79.5t-33 -79t-80 -33z" />
    <glyph glyph-name="slash" unicode="/" horiz-adv-x="798" 
d="M813 1434l-688 -1672h-153l686 1672h155z" />
    <glyph glyph-name="zero" unicode="0" horiz-adv-x="1104" 
d="M1020 723q0 -180 -32.5 -319t-94 -234.5t-151 -145t-203.5 -49.5q-108 0 -192.5 47.5t-142.5 138.5t-88 223.5t-30 303.5q0 188 31.5 332t92.5 241.5t151.5 147t207.5 49.5q451 0 451 -735zM852 707q0 612 -291 612q-307 0 -307 -623q0 -581 301 -581q297 0 297 592z" />
    <glyph glyph-name="one" unicode="1" horiz-adv-x="1104" 
d="M724 0h-164v1239q-19 -19 -55.5 -43.5t-82 -48.5t-96 -45t-98.5 -33v166q54 15 114.5 40.5t119 57t110.5 66t90 67.5h62v-1466z" />
    <glyph glyph-name="two" unicode="2" horiz-adv-x="1104" 
d="M772 1058q0 66 -20.5 115t-56 81.5t-83.5 48.5t-104 16q-48 0 -94 -13t-89.5 -36t-84 -55t-75.5 -71v176q69 67 154.5 102.5t208.5 35.5q88 0 163 -25.5t130 -74.5t86.5 -121t31.5 -165q0 -85 -19.5 -154t-59 -130t-99.5 -117t-141 -114q-101 -72 -166.5 -123t-104 -95.5
t-54 -89t-15.5 -102.5h714v-147h-885v71q0 92 20 162t66 133t120.5 126t182.5 142q78 56 130.5 107t84.5 102t45.5 103.5t13.5 111.5z" />
    <glyph glyph-name="three" unicode="3" horiz-adv-x="1104" 
d="M953 406q0 -97 -36.5 -176.5t-103 -136t-159.5 -87.5t-205 -31q-205 0 -326 78v176q145 -114 332 -114q75 0 135.5 19t104 55t67 87t23.5 115q0 281 -400 281h-119v139h113q354 0 354 264q0 244 -270 244q-152 0 -285 -102v159q137 82 326 82q90 0 163 -25t125 -70
t80.5 -108t28.5 -139q0 -283 -286 -364v-4q73 -8 135 -35.5t107 -71.5t70.5 -103.5t25.5 -131.5z" />
    <glyph glyph-name="four" unicode="4" horiz-adv-x="1104" 
d="M850 1434v-947h184v-150h-184v-337h-162v337h-674v142q94 106 190 226.5t183.5 244.5t162 247.5t125.5 236.5h175zM199 487h489v702q-75 -131 -142 -234t-127.5 -187t-115.5 -152t-104 -129z" />
    <glyph glyph-name="five" unicode="5" horiz-adv-x="1104" 
d="M969 438q0 -105 -36 -190t-102.5 -146t-160.5 -94t-209 -33q-200 0 -297 60v174q146 -94 299 -94q78 0 140.5 23t106.5 64t67.5 99t23.5 127q0 140 -94 219.5t-273 79.5q-29 0 -61 -1t-64 -2.5t-62.5 -3.5t-55.5 -5l49 719h663v-148h-521l-29 -421q32 2 68 3.5t64 1.5
q114 0 204 -30t152.5 -85.5t95 -136t32.5 -180.5z" />
    <glyph glyph-name="six" unicode="6" horiz-adv-x="1104" 
d="M1022 455q0 -105 -34 -193t-94 -152t-143 -99.5t-180 -35.5q-108 0 -193.5 45t-145 129.5t-90.5 206.5t-31 275q0 187 41.5 339.5t118 261t184.5 167.5t241 59q148 0 238 -41v-155q-111 57 -234 57q-96 0 -173 -43t-132 -121.5t-84.5 -189.5t-29.5 -247h4q99 179 327 179
q94 0 169.5 -32t129 -90.5t82.5 -139.5t29 -180zM854 434q0 75 -19 135t-54.5 102t-87.5 64.5t-118 22.5q-61 0 -113 -23t-90 -62.5t-59.5 -92t-21.5 -111.5q0 -74 21 -138.5t59 -112.5t90.5 -75.5t116.5 -27.5q62 0 113 23.5t87 65.5t56 100.5t20 129.5z" />
    <glyph glyph-name="seven" unicode="7" horiz-adv-x="1104" 
d="M1010 1339q-33 -57 -79.5 -142t-98.5 -191t-106 -228t-101 -252t-82.5 -263.5t-51.5 -262.5h-176q18 128 55.5 261.5t85 262t100.5 247.5t103 219t91.5 176.5t66.5 119.5h-719v148h912v-95z" />
    <glyph glyph-name="eight" unicode="8" horiz-adv-x="1104" 
d="M90 400q0 57 18 114.5t51.5 107.5t83 91t112.5 65q-93 52 -148 133.5t-55 180.5q0 79 30.5 146t84.5 116t128 76.5t160 27.5q87 0 161 -28t128 -77t84 -116t30 -145q0 -99 -55 -180.5t-146 -133.5q62 -24 111 -65t82.5 -91t51.5 -107.5t18 -114.5q0 -94 -34 -172
t-95.5 -133.5t-147 -86.5t-188.5 -31q-102 0 -187 31t-147 86.5t-96.5 133.5t-34.5 172zM268 414q0 -67 20.5 -121t58 -92t91 -58.5t118.5 -20.5q63 0 116 21t91.5 59t60 92t21.5 120q0 60 -20.5 112.5t-58.5 92.5t-91 63t-119 23q-62 0 -114.5 -21.5t-91 -60t-60.5 -92
t-22 -117.5zM319 1079q0 -51 18.5 -94.5t51 -76t75.5 -51t92 -18.5t92.5 19t75.5 51.5t51 76t19 93.5q0 52 -18.5 96t-50.5 76t-75.5 50.5t-93.5 18.5q-53 0 -96.5 -19t-75 -51.5t-48.5 -76.5t-17 -94z" />
    <glyph glyph-name="nine" unicode="9" horiz-adv-x="1104" 
d="M1004 803q0 -197 -39 -350.5t-114 -260t-183 -162t-246 -55.5q-142 0 -250 50v157q119 -67 254 -67q97 0 173.5 40t129.5 116.5t81 188.5t28 257h-4q-92 -185 -320 -185q-92 0 -169 32.5t-133 92t-87 141.5t-31 181q0 106 34.5 194t96 151.5t146 98.5t184.5 35
q108 0 191.5 -43.5t140.5 -127t87 -205.5t30 -279zM827 950q0 83 -21.5 151t-59.5 116.5t-90.5 75t-114.5 26.5q-59 0 -110 -23.5t-88.5 -66t-59 -101t-21.5 -127.5q0 -76 20.5 -136t58.5 -101.5t91.5 -63.5t118.5 -22q57 0 107.5 21.5t88 58t59 86t21.5 106.5z" />
    <glyph glyph-name="colon" unicode=":" horiz-adv-x="444" 
d="M223 824q-46 0 -78.5 33t-32.5 79t32.5 78t78.5 32q47 0 80 -32t33 -78t-33 -79t-80 -33zM223 -22q-46 0 -78.5 33t-32.5 79t32.5 79.5t78.5 33.5q47 0 80 -33.5t33 -79.5t-33 -79t-80 -33z" />
    <glyph glyph-name="semicolon" unicode=";" horiz-adv-x="444" 
d="M226 824q-47 0 -79.5 33t-32.5 79t32.5 78t79.5 32q46 0 79 -32t33 -78t-33 -79t-79 -33zM316 228l-160 -492h-117l117 492h160z" />
    <glyph glyph-name="less" unicode="&#x3c;" horiz-adv-x="1401" 
d="M1132 127l-860 432v59l860 482v-150l-642 -356v-4l642 -314v-149z" />
    <glyph glyph-name="equal" unicode="=" horiz-adv-x="1401" 
d="M1172 744h-940v132h940v-132zM1172 318h-940v132h940v-132z" />
    <glyph glyph-name="greater" unicode="&#x3e;" horiz-adv-x="1401" 
d="M1132 559l-860 -432v149l644 312v6l-644 356v150l860 -482v-59z" />
    <glyph glyph-name="question" unicode="?" horiz-adv-x="918" 
d="M335 398q-9 26 -16 67.5t-7 82.5q0 64 25.5 115.5t63.5 96.5t83 86.5t83 84t63.5 89t25.5 102.5q0 48 -18.5 85t-50.5 62t-74 37.5t-89 12.5q-169 0 -293 -133v176q153 96 317 96q76 0 143 -20t117.5 -59.5t79.5 -98.5t29 -137q0 -74 -26 -132t-65.5 -106.5t-85.5 -90.5
t-85.5 -83.5t-65.5 -86.5t-26 -99q0 -46 11 -83.5t22 -63.5h-161zM425 -18q-44 0 -78 32q-33 32 -33 78q0 47 33 78q33 33 78 33t78 -33q33 -31 33 -78q0 -46 -33 -78q-34 -32 -78 -32z" />
    <glyph glyph-name="at" unicode="@" horiz-adv-x="1956" 
d="M1164 420h-5q-73 -238 -287 -238q-137 0 -220.5 101t-83.5 272q0 226 115.5 375.5t303.5 149.5q72 0 128.5 -37t72.5 -93h4q2 28 10 115h125q-47 -551 -47 -561q0 -207 119 -207q108 0 179.5 117t71.5 303q0 275 -174 449t-482 174q-297 0 -491 -208t-194 -520
q0 -307 184.5 -495.5t497.5 -188.5q247 0 422 82v-124q-173 -74 -432 -74q-364 0 -586.5 219.5t-222.5 574.5q0 366 233.5 607t596.5 241q340 0 563 -202t223 -527q0 -238 -117.5 -390.5t-286.5 -152.5q-219 0 -220 238zM985 964q-124 0 -200.5 -118t-76.5 -293
q0 -118 51.5 -186t137.5 -68q124 0 196.5 123.5t72.5 327.5q0 214 -181 214z" />
    <glyph glyph-name="A" unicode="A" horiz-adv-x="1321" 
d="M1298 0h-186l-152 402h-608l-143 -402h-187l550 1434h174zM905 553l-225 611q-11 30 -22 96h-4q-10 -61 -23 -96l-223 -611h497z" />
    <glyph glyph-name="B" unicode="B" horiz-adv-x="1174" 
d="M188 0v1434h408q186 0 295 -91t109 -237q0 -122 -66 -212t-182 -128v-4q145 -17 232 -109.5t87 -240.5q0 -184 -132 -298t-333 -114h-418zM356 1282v-463h172q138 0 217 66.5t79 187.5q0 209 -275 209h-193zM356 668v-516h228q148 0 229.5 70t81.5 192q0 254 -346 254
h-193z" />
    <glyph glyph-name="C" unicode="C" horiz-adv-x="1268" 
d="M1164 60q-159 -84 -396 -84q-306 0 -490 197t-184 517q0 344 207 556t525 212q204 0 338 -59v-179q-154 86 -340 86q-247 0 -400.5 -165t-153.5 -441q0 -262 143.5 -417.5t376.5 -155.5q216 0 374 96v-163z" />
    <glyph glyph-name="D" unicode="D" horiz-adv-x="1436" 
d="M188 0v1434h396q758 0 758 -699q0 -332 -210.5 -533.5t-563.5 -201.5h-380zM356 1282v-1130h214q282 0 439 151t157 428q0 551 -586 551h-224z" />
    <glyph glyph-name="E" unicode="E" horiz-adv-x="1036" 
d="M948 0h-760v1434h728v-152h-560v-477h518v-151h-518v-502h592v-152z" />
    <glyph glyph-name="F" unicode="F" horiz-adv-x="1000" 
d="M916 1282h-560v-496h518v-151h-518v-635h-168v1434h728v-152z" />
    <glyph glyph-name="G" unicode="G" horiz-adv-x="1405" 
d="M1260 98q-216 -122 -480 -122q-307 0 -496.5 198t-189.5 524q0 333 210.5 546.5t533.5 213.5q234 0 393 -76v-186q-174 110 -412 110q-241 0 -395 -166t-154 -430q0 -272 143 -427.5t388 -155.5q168 0 291 67v402h-314v152h482v-650z" />
    <glyph glyph-name="H" unicode="H" horiz-adv-x="1454" 
d="M1266 0h-168v654h-742v-654h-168v1434h168v-629h742v629h168v-1434z" />
    <glyph glyph-name="I" unicode="I" horiz-adv-x="545" 
d="M496 1434v-144h-140v-1146h140v-144h-448v144h140v1146h-140v144h448z" />
    <glyph glyph-name="J" unicode="J" horiz-adv-x="731" 
d="M555 514q0 -255 -108 -396.5t-289 -141.5q-84 0 -138 24v166q54 -39 140 -39q227 0 227 385v922h168v-920z" />
    <glyph glyph-name="K" unicode="K" horiz-adv-x="1188" 
d="M1186 0h-234l-554 656q-31 37 -38 50h-4v-706h-168v1434h168v-674h4q14 22 38 49l536 625h209l-615 -688z" />
    <glyph glyph-name="L" unicode="L" horiz-adv-x="964" 
d="M932 0h-744v1434h168v-1282h576v-152z" />
    <glyph glyph-name="M" unicode="M" horiz-adv-x="1839" 
d="M1650 0h-167v962q0 114 14 279h-4q-24 -97 -43 -139l-490 -1102h-82l-489 1094q-21 48 -43 147h-4q8 -86 8 -281v-960h-162v1434h222l440 -1000q51 -115 66 -172h6q43 118 69 176l449 996h210v-1434z" />
    <glyph glyph-name="N" unicode="N" horiz-adv-x="1532" 
d="M1344 0h-206l-738 1143q-28 43 -46 90h-6q8 -46 8 -197v-1036h-168v1434h218l718 -1125q45 -70 58 -96h4q-10 62 -10 211v1010h168v-1434z" />
    <glyph glyph-name="O" unicode="O" horiz-adv-x="1544" 
d="M766 -24q-305 0 -488.5 201t-183.5 523q0 346 187 552t509 206q297 0 478.5 -200t181.5 -523q0 -351 -186 -555t-498 -204zM778 1306q-226 0 -367 -163t-141 -428t137.5 -426.5t358.5 -161.5q236 0 372 154t136 431q0 284 -132 439t-364 155z" />
    <glyph glyph-name="P" unicode="P" horiz-adv-x="1147" 
d="M356 542v-542h-168v1434h394q230 0 356.5 -112t126.5 -316t-140.5 -334t-379.5 -130h-189zM356 1282v-588h176q174 0 265.5 79.5t91.5 224.5q0 284 -336 284h-197z" />
    <glyph glyph-name="Q" unicode="Q" horiz-adv-x="1544" 
d="M756 -24q-64 0 -130 12.5t-128 38t-118.5 63t-102.5 87.5q-183 200 -183 523q0 347 186 552q188 206 514 206q292 0 474 -200t182 -523q0 -136 -30.5 -256.5t-92.5 -217.5t-156 -164.5t-222 -96.5q52 -56 97.5 -99t91 -72.5t94.5 -44.5t108 -15q16 0 35 1.5t38.5 5
t37.5 8t33 10.5v-162q-16 -5 -36 -8.5t-40.5 -6t-40.5 -4t-37 -1.5q-96 0 -172.5 28.5t-143 78t-128.5 115.5t-130 142zM778 1306q-226 0 -367 -163t-141 -428q0 -264 137 -427q138 -161 359 -161q236 0 372 154t136 431q0 285 -132 439q-132 155 -364 155z" />
    <glyph glyph-name="R" unicode="R" horiz-adv-x="1225" 
d="M1216 0h-200l-240 402q-33 56 -64 95.5t-63.5 64.5t-70 36.5t-84.5 11.5h-138v-610h-168v1434h428q94 0 173.5 -23.5t138 -71.5t91.5 -119.5t33 -167.5q0 -75 -22.5 -137.5t-64 -111.5t-100 -83.5t-131.5 -53.5v-4q36 -16 62.5 -36.5t50.5 -48.5t47.5 -63.5t52.5 -82.5z
M356 1282v-520h228q63 0 116.5 19t92.5 54.5t61 87t22 115.5q0 115 -74.5 179.5t-215.5 64.5h-230z" />
    <glyph glyph-name="S" unicode="S" horiz-adv-x="1088" 
d="M121 58v198q34 -30 81.5 -54t100 -40.5t105.5 -25.5t98 -9q155 0 231.5 57.5t76.5 165.5q0 58 -25.5 101t-70.5 78.5t-106.5 68t-132.5 68.5q-75 38 -140 77t-113 86t-75.5 106.5t-27.5 139.5q0 98 43 170.5t113 119.5t159.5 70t182.5 23q212 0 309 -51v-189
q-127 88 -326 88q-55 0 -110 -11.5t-98 -37.5t-70 -67t-27 -100q0 -55 20.5 -95t60.5 -73t97.5 -64t132.5 -68q77 -38 146 -80t121 -93t82.5 -113t30.5 -142q0 -106 -41.5 -179.5t-112 -119.5t-162.5 -66.5t-194 -20.5q-34 0 -84 5.5t-102 16t-98.5 26t-74.5 34.5z" />
    <glyph glyph-name="T" unicode="T" horiz-adv-x="1073" 
d="M1036 1282h-414v-1282h-168v1282h-413v152h995v-152z" />
    <glyph glyph-name="U" unicode="U" horiz-adv-x="1407" 
d="M1237 580q0 -604 -545 -604q-522 0 -522 581v877h168v-866q0 -441 372 -441q359 0 359 426v881h168v-854z" />
    <glyph glyph-name="V" unicode="V" horiz-adv-x="1272" 
d="M1254 1434l-531 -1434h-185l-520 1434h187l397 -1137q19 -55 29 -127h4q8 60 33 129l405 1135h181z" />
    <glyph glyph-name="W" unicode="W" horiz-adv-x="1913" 
d="M1888 1434l-405 -1434h-197l-295 1048q-19 67 -23 146h-4q-6 -74 -26 -144l-297 -1050h-195l-420 1434h185l305 -1100q19 -69 24 -144h5q5 53 31 144l317 1100h161l304 -1108q16 -57 24 -134h4q4 52 27 138l293 1104h182z" />
    <glyph glyph-name="X" unicode="X" horiz-adv-x="1208" 
d="M1178 0h-205l-330 549q-15 25 -33 71h-4q-10 -23 -34 -71l-340 -549h-206l480 721l-442 713h206l293 -504q29 -50 51 -100h4q32 66 56 104l305 500h193l-451 -711z" />
    <glyph glyph-name="Y" unicode="Y" horiz-adv-x="1132" 
d="M1120 1434l-473 -904v-530h-168v526l-461 908h191l321 -648q6 -12 35 -88h3q10 34 38 88l336 648h178z" />
    <glyph glyph-name="Z" unicode="Z" horiz-adv-x="1168" 
d="M1124 1394l-840 -1242h820v-152h-1071v47l833 1235h-766v152h1024v-40z" />
    <glyph glyph-name="bracketleft" unicode="[" horiz-adv-x="618" 
d="M568 -326h-368v1760h368v-119h-222v-1522h222v-119z" />
    <glyph glyph-name="backslash" unicode="\" horiz-adv-x="776" 
d="M798 -240h-151l-673 1674h155z" />
    <glyph glyph-name="bracketright" unicode="]" horiz-adv-x="618" 
d="M420 -326h-367v119h221v1522h-221v119h367v-1760z" />
    <glyph glyph-name="asciicircum" unicode="^" horiz-adv-x="1401" 
d="M1174 624h-150l-332 619h-6l-309 -619h-147l422 834h65z" />
    <glyph glyph-name="underscore" unicode="_" horiz-adv-x="850" 
d="M850 -297h-850v119h850v-119z" />
    <glyph glyph-name="grave" unicode="`" horiz-adv-x="549" 
d="M471 1218h-127l-262 328h168z" />
    <glyph glyph-name="a" unicode="a" horiz-adv-x="1042" 
d="M899 0h-164v160h-4q-107 -184 -315 -184q-153 0 -239.5 81t-86.5 215q0 287 338 334l307 43q0 261 -211 261q-185 0 -334 -126v168q151 96 348 96q361 0 361 -382v-666zM735 518l-247 -34q-114 -16 -172 -56.5t-58 -143.5q0 -75 53.5 -122.5t142.5 -47.5
q122 0 201.5 85.5t79.5 216.5v102z" />
    <glyph glyph-name="b" unicode="b" horiz-adv-x="1204" 
d="M334 148h-4v-148h-164v1516h164v-672h4q121 204 354 204q197 0 308.5 -137.5t111.5 -368.5q0 -257 -125 -411.5t-342 -154.5q-203 0 -307 172zM330 561v-143q0 -127 82.5 -215.5t209.5 -88.5q149 0 233.5 114t84.5 317q0 171 -79 268t-214 97q-143 0 -230 -99.5
t-87 -249.5z" />
    <glyph glyph-name="c" unicode="c" horiz-adv-x="946" 
d="M864 47q-118 -71 -280 -71q-219 0 -353.5 142.5t-134.5 369.5q0 253 145 406.5t387 153.5q135 0 238 -50v-168q-114 80 -244 80q-157 0 -257.5 -112.5t-100.5 -295.5q0 -180 94.5 -284t253.5 -104q134 0 252 89v-156z" />
    <glyph glyph-name="d" unicode="d" horiz-adv-x="1206" 
d="M1040 0h-164v174h-4q-114 -198 -352 -198q-193 0 -308.5 137.5t-115.5 374.5q0 254 128 407t341 153q211 0 307 -166h4v634h164v-1516zM876 463v151q0 124 -82 210t-208 86q-150 0 -236 -110t-86 -304q0 -177 82.5 -279.5t221.5 -102.5q137 0 222.5 99t85.5 250z" />
    <glyph glyph-name="e" unicode="e" horiz-adv-x="1071" 
d="M989 471h-723q4 -171 92 -264t242 -93q173 0 318 114v-154q-135 -98 -357 -98q-217 0 -341 139.5t-124 392.5q0 239 135.5 389.5t336.5 150.5t311 -130t110 -361v-86zM821 610q-1 142 -68.5 221t-187.5 79q-116 0 -197 -83t-100 -217h553z" />
    <glyph glyph-name="f" unicode="f" horiz-adv-x="641" 
d="M672 1372q-48 27 -109 27q-172 0 -172 -217v-158h240v-140h-240v-884h-163v884h-175v140h175v166q0 161 93 254.5t232 93.5q75 0 119 -18v-148z" />
    <glyph glyph-name="g" unicode="g" horiz-adv-x="1206" 
d="M1040 82q0 -564 -540 -564q-190 0 -332 72v164q173 -96 330 -96q378 0 378 402v112h-4q-117 -196 -352 -196q-191 0 -307.5 136.5t-116.5 366.5q0 261 125.5 415t343.5 154q207 0 307 -166h4v142h164v-942zM876 463v151q0 122 -82.5 209t-205.5 87q-152 0 -238 -110.5
t-86 -309.5q0 -171 82.5 -273.5t218.5 -102.5q138 0 224.5 98t86.5 251z" />
    <glyph glyph-name="h" unicode="h" horiz-adv-x="1159" 
d="M1016 0h-164v590q0 320 -238 320q-120 0 -202 -92.5t-82 -237.5v-580h-164v1516h164v-662h4q118 194 336 194q346 0 346 -417v-631z" />
    <glyph glyph-name="i" unicode="i" horiz-adv-x="496" 
d="M250 1284q-44 0 -75 30t-31 76t31 76.5t75 30.5q45 0 76.5 -30.5t31.5 -76.5q0 -44 -31.5 -75t-76.5 -31zM330 0h-164v1024h164v-1024z" />
    <glyph glyph-name="j" unicode="j" horiz-adv-x="496" 
d="M330 43q0 -252 -101.5 -388.5t-290.5 -136.5q-70 0 -136 32v153q74 -45 140 -45q224 0 224 358v1008h164v-981zM250 1284q-44 0 -75 30t-31 76t31 76.5t75 30.5q45 0 76.5 -30.5t31.5 -76.5q0 -44 -31.5 -75t-76.5 -31z" />
    <glyph glyph-name="k" unicode="k" horiz-adv-x="1018" 
d="M1016 0h-230l-452 492h-4v-492h-164v1516h164v-961h4l430 469h215l-475 -494z" />
    <glyph glyph-name="l" unicode="l" horiz-adv-x="496" 
d="M330 0h-164v1516h164v-1516z" />
    <glyph glyph-name="m" unicode="m" horiz-adv-x="1764" 
d="M1620 0h-164v588q0 170 -52.5 246t-176.5 76q-105 0 -178.5 -96t-73.5 -230v-584h-164v608q0 302 -233 302q-108 0 -178 -90.5t-70 -235.5v-584h-164v1024h164v-162h4q109 186 318 186q105 0 183 -58.5t107 -153.5q114 212 340 212q338 0 338 -417v-631z" />
    <glyph glyph-name="n" unicode="n" horiz-adv-x="1159" 
d="M1016 0h-164v584q0 326 -238 326q-123 0 -203.5 -92.5t-80.5 -233.5v-584h-164v1024h164v-170h4q116 194 336 194q168 0 257 -108.5t89 -313.5v-626z" />
    <glyph glyph-name="o" unicode="o" horiz-adv-x="1200" 
d="M594 -24q-227 0 -362.5 143.5t-135.5 380.5q0 258 141 403t381 145q229 0 357.5 -141t128.5 -391q0 -245 -138.5 -392.5t-371.5 -147.5zM606 910q-158 0 -250 -107.5t-92 -296.5q0 -182 93 -287t249 -105q159 0 244.5 103t85.5 293q0 192 -85.5 296t-244.5 104z" />
    <glyph glyph-name="p" unicode="p" horiz-adv-x="1204" 
d="M334 148h-4v-619h-164v1495h164v-180h4q121 204 354 204q198 0 309 -137.5t111 -368.5q0 -257 -125 -411.5t-342 -154.5q-199 0 -307 172zM330 561v-143q0 -127 82.5 -215.5t209.5 -88.5q149 0 233.5 114t84.5 317q0 171 -79 268t-214 97q-143 0 -230 -99.5t-87 -249.5z
" />
    <glyph glyph-name="q" unicode="q" horiz-adv-x="1206" 
d="M1040 -471h-164v647h-4q-107 -200 -350 -200q-193 0 -309.5 137.5t-116.5 374.5q0 255 128 407.5t344 152.5q210 0 304 -166h4v142h164v-1495zM876 461v149q0 126 -82.5 213t-209.5 87q-148 0 -234 -109.5t-86 -308.5q0 -177 83 -277.5t214 -100.5q144 0 229.5 98.5
t85.5 248.5z" />
    <glyph glyph-name="r" unicode="r" horiz-adv-x="712" 
d="M700 858q-43 33 -124 33q-105 0 -175.5 -99t-70.5 -270v-522h-164v1024h164v-211h4q35 108 107 168.5t161 60.5q64 0 98 -14v-170z" />
    <glyph glyph-name="s" unicode="s" horiz-adv-x="869" 
d="M104 37v176q134 -99 295 -99q216 0 216 144q0 41 -18.5 69.5t-50 50.5t-74 39.5t-91.5 36.5q-68 27 -119.5 54.5t-86 62t-52 78.5t-17.5 103q0 72 33 127.5t88 93t125.5 56.5t145.5 19q133 0 238 -46v-166q-113 74 -260 74q-46 0 -83 -10.5t-63.5 -29.5t-41 -45.5
t-14.5 -58.5q0 -40 14.5 -67t42.5 -48t68 -38t91 -37q68 -26 122 -53.5t92 -62t58.5 -79.5t20.5 -107q0 -76 -33.5 -132t-89.5 -93t-129 -55t-153 -18q-158 0 -274 61z" />
    <glyph glyph-name="t" unicode="t" horiz-adv-x="694" 
d="M641 10q-58 -32 -153 -32q-269 0 -269 300v606h-176v140h176v250l164 53v-303h258v-140h-258v-577q0 -103 35 -147t116 -44q62 0 107 34v-140z" />
    <glyph glyph-name="u" unicode="u" horiz-adv-x="1159" 
d="M994 0h-164v162h-4q-102 -186 -316 -186q-366 0 -366 436v612h163v-586q0 -324 248 -324q120 0 197.5 88.5t77.5 231.5v590h164v-1024z" />
    <glyph glyph-name="v" unicode="v" horiz-adv-x="981" 
d="M971 1024l-408 -1024h-161l-388 1024h180l260 -744q29 -82 36 -143h4q10 77 32 139l272 748h173z" />
    <glyph glyph-name="w" unicode="w" horiz-adv-x="1480" 
d="M1456 1024l-307 -1024h-170l-211 733q-12 42 -16 95h-4q-3 -36 -21 -93l-229 -735h-164l-310 1024h172l212 -770q10 -35 14 -92h8q3 44 18 94l236 768h150l212 -772q10 -37 15 -92h8q2 39 17 92l208 772h162z" />
    <glyph glyph-name="x" unicode="x" horiz-adv-x="940" 
d="M914 1024l-344 -518l338 -506h-191l-201 332q-19 31 -45 78h-4q-5 -9 -47 -78l-205 -332h-189l349 502l-334 522h191l198 -350q22 -39 43 -80h4l256 430h181z" />
    <glyph glyph-name="y" unicode="y" horiz-adv-x="991" 
d="M981 1024l-471 -1188q-126 -318 -354 -318q-64 0 -107 13v147q53 -18 97 -18q124 0 186 148l82 194l-400 1022h182l277 -788q5 -15 21 -78h6q5 24 20 76l291 790h170z" />
    <glyph glyph-name="z" unicode="z" horiz-adv-x="926" 
d="M880 977l-606 -837h600v-140h-841v51l606 833h-549v140h790v-47z" />
    <glyph glyph-name="braceleft" unicode="{" horiz-adv-x="618" 
d="M555 -326q-307 4 -307 310v300q0 202 -156 212v116q156 10 156 216v292q0 310 307 314v-128q-159 -4 -159 -198v-293q0 -210 -150 -258v-4q150 -45 150 -256v-289q0 -111 35.5 -158.5t123.5 -49.5v-126z" />
    <glyph glyph-name="bar" unicode="|" horiz-adv-x="490" 
d="M320 -482h-148v2048h148v-2048z" />
    <glyph glyph-name="braceright" unicode="}" horiz-adv-x="618" 
d="M528 496q-156 -10 -156 -212v-300q0 -306 -306 -310v126q87 2 123.5 50t36.5 158v289q0 211 149 256v4q-149 48 -149 258v293q0 194 -160 198v128q306 -4 306 -314v-292q0 -206 156 -216v-116z" />
    <glyph glyph-name="asciitilde" unicode="~" horiz-adv-x="1401" 
d="M1194 750q-7 -148 -80.5 -229t-199.5 -81q-109 0 -265 109q-97 67 -159 67q-140 0 -146 -176h-135q5 143 79.5 226.5t201.5 83.5q106 0 235 -88q132 -90 197 -90q61 0 98 49t39 129h135z" />
    <glyph glyph-name="Adieresis" unicode="&#xc4;" horiz-adv-x="1321" 
d="M1298 0h-186l-152 402h-608l-143 -402h-187l550 1434h174zM905 553l-225 611q-11 30 -22 96h-4q-10 -61 -23 -96l-223 -611h497zM840 1565q-40 0 -69 28t-29 71q0 42 28 70t68 28q42 0 71 -28.5t29 -69.5t-28 -70t-70 -29zM456 1565q-42 0 -71.5 29.5t-29.5 69.5
q0 42 28.5 70t69.5 28t71 -28.5t30 -69.5t-29 -70t-69 -29z" />
    <glyph glyph-name="Aring" unicode="&#xc5;" horiz-adv-x="1321" 
d="M1298 0h-186l-152 402h-608l-143 -402h-187l529 1378q-101 52 -101 164q0 89 60 144t152 55q88 0 144 -54.5t56 -138.5q0 -112 -96 -166zM656 1659q-50 0 -82 -31.5t-32 -79.5q0 -114 114 -114q48 0 81 33t33 81q0 49 -33 80t-81 31zM905 553l-225 611q-11 30 -22 96h-4
q-10 -61 -23 -96l-223 -611h497z" />
    <glyph glyph-name="Ccedilla" unicode="&#xc7;" horiz-adv-x="1268" 
d="M1164 60q-159 -84 -396 -84q-306 0 -490 197t-184 517q0 344 207 556t525 212q204 0 338 -59v-179q-154 86 -340 86q-247 0 -400.5 -165t-153.5 -441q0 -262 143.5 -417.5t376.5 -155.5q216 0 374 96v-163zM960 -256q0 -176 -275 -176q-38 0 -65 2v90q43 -6 70 -6
q141 0 141 90q0 78 -129 78q-10 0 -41 -4v182h108v-104q88 0 139.5 -40t51.5 -112z" />
    <glyph glyph-name="Eacute" unicode="&#xc9;" horiz-adv-x="1036" 
d="M948 0h-760v1434h728v-152h-560v-477h518v-151h-518v-502h592v-152zM803 1893l-262 -328h-127l223 328h166z" />
    <glyph glyph-name="Ntilde" unicode="&#xd1;" horiz-adv-x="1532" 
d="M1344 0h-206l-738 1143q-28 43 -46 90h-6q8 -46 8 -197v-1036h-168v1434h218l718 -1125q45 -70 58 -96h4q-10 62 -10 211v1010h168v-1434zM1113 1803q0 -105 -48 -171.5t-130 -66.5q-71 0 -162 52q-77 43 -119 43q-88 0 -88 -113h-94q0 107 48 171.5t134 64.5
q65 0 149 -52q74 -44 128 -44q84 0 84 116h98z" />
    <glyph glyph-name="Odieresis" unicode="&#xd6;" horiz-adv-x="1544" 
d="M766 -24q-305 0 -488.5 201t-183.5 523q0 346 187 552t509 206q297 0 478.5 -200t181.5 -523q0 -351 -186 -555t-498 -204zM778 1306q-226 0 -367 -163t-141 -428t137.5 -426.5t358.5 -161.5q236 0 372 154t136 431q0 284 -132 439t-364 155zM968 1563q-40 0 -69 28
t-29 71q0 42 28 70t68 28q42 0 71 -28.5t29 -69.5t-28 -70t-70 -29zM584 1563q-42 0 -71.5 29.5t-29.5 69.5q0 42 28.5 70t69.5 28t71 -28.5t30 -69.5t-29 -70t-69 -29z" />
    <glyph glyph-name="Udieresis" unicode="&#xdc;" horiz-adv-x="1407" 
d="M1237 580q0 -604 -545 -604q-522 0 -522 581v877h168v-866q0 -441 372 -441q359 0 359 426v881h168v-854zM895 1567q-40 0 -69 28t-29 71q0 42 28 70t68 28q42 0 71 -28.5t29 -69.5t-28 -70t-70 -29zM511 1567q-42 0 -71.5 29.5t-29.5 69.5q0 42 28.5 70t69.5 28
t71 -28.5t30 -69.5t-29 -70t-69 -29z" />
    <glyph glyph-name="aacute" unicode="&#xe1;" horiz-adv-x="1042" 
d="M899 0h-164v160h-4q-107 -184 -315 -184q-153 0 -239.5 81t-86.5 215q0 287 338 334l307 43q0 261 -211 261q-185 0 -334 -126v168q151 96 348 96q361 0 361 -382v-666zM735 518l-247 -34q-114 -16 -172 -56.5t-58 -143.5q0 -75 53.5 -122.5t142.5 -47.5
q122 0 201.5 85.5t79.5 216.5v102zM757 1546l-262 -328h-127l223 328h166z" />
    <glyph glyph-name="agrave" unicode="&#xe0;" horiz-adv-x="1042" 
d="M899 0h-164v160h-4q-107 -184 -315 -184q-153 0 -239.5 81t-86.5 215q0 287 338 334l307 43q0 261 -211 261q-185 0 -334 -126v168q151 96 348 96q361 0 361 -382v-666zM735 518l-247 -34q-114 -16 -172 -56.5t-58 -143.5q0 -75 53.5 -122.5t142.5 -47.5
q122 0 201.5 85.5t79.5 216.5v102zM674 1218h-127l-262 328h168z" />
    <glyph glyph-name="acircumflex" unicode="&#xe2;" horiz-adv-x="1042" 
d="M899 0h-164v160h-4q-107 -184 -315 -184q-153 0 -239.5 81t-86.5 215q0 287 338 334l307 43q0 261 -211 261q-185 0 -334 -126v168q151 96 348 96q361 0 361 -382v-666zM735 518l-247 -34q-114 -16 -172 -56.5t-58 -143.5q0 -75 53.5 -122.5t142.5 -47.5
q122 0 201.5 85.5t79.5 216.5v102zM806 1218h-122l-164 230l-165 -230h-113l215 332h133z" />
    <glyph glyph-name="adieresis" unicode="&#xe4;" horiz-adv-x="1042" 
d="M899 0h-164v160h-4q-107 -184 -315 -184q-153 0 -239.5 81t-86.5 215q0 287 338 334l307 43q0 261 -211 261q-185 0 -334 -126v168q151 96 348 96q361 0 361 -382v-666zM735 518l-247 -34q-114 -16 -172 -56.5t-58 -143.5q0 -75 53.5 -122.5t142.5 -47.5
q122 0 201.5 85.5t79.5 216.5v102zM708 1218q-40 0 -69 28t-29 71q0 42 28 70t68 28q42 0 71 -28.5t29 -69.5t-28 -70t-70 -29zM324 1218q-42 0 -71.5 29.5t-29.5 69.5q0 42 28.5 70t69.5 28t71 -28.5t30 -69.5t-29 -70t-69 -29z" />
    <glyph glyph-name="atilde" unicode="&#xe3;" horiz-adv-x="1042" 
d="M899 0h-164v160h-4q-107 -184 -315 -184q-153 0 -239.5 81t-86.5 215q0 287 338 334l307 43q0 261 -211 261q-185 0 -334 -126v168q151 96 348 96q361 0 361 -382v-666zM735 518l-247 -34q-114 -16 -172 -56.5t-58 -143.5q0 -75 53.5 -122.5t142.5 -47.5
q122 0 201.5 85.5t79.5 216.5v102zM844 1458q0 -105 -48 -171.5t-130 -66.5q-71 0 -162 52q-77 43 -119 43q-88 0 -88 -113h-94q0 107 48 171.5t134 64.5q65 0 149 -52q74 -44 128 -44q84 0 84 116h98z" />
    <glyph glyph-name="aring" unicode="&#xe5;" horiz-adv-x="1042" 
d="M899 0h-164v160h-4q-107 -184 -315 -184q-153 0 -239.5 81t-86.5 215q0 287 338 334l307 43q0 261 -211 261q-185 0 -334 -126v168q151 96 348 96q361 0 361 -382v-666zM735 518l-247 -34q-114 -16 -172 -56.5t-58 -143.5q0 -75 53.5 -122.5t142.5 -47.5
q122 0 201.5 85.5t79.5 216.5v102zM517 1176q-87 0 -144.5 52.5t-57.5 137.5q0 90 59 144t150 54q89 0 146 -54t57 -138t-61 -140t-149 -56zM517 1483q-48 0 -80 -32.5t-32 -80.5q0 -112 112 -112q50 0 83 32t33 80q0 49 -33 81t-83 32z" />
    <glyph glyph-name="ccedilla" unicode="&#xe7;" horiz-adv-x="946" 
d="M864 47q-118 -71 -280 -71q-219 0 -353.5 142.5t-134.5 369.5q0 253 145 406.5t387 153.5q135 0 238 -50v-168q-114 80 -244 80q-157 0 -257.5 -112.5t-100.5 -295.5q0 -180 94.5 -284t253.5 -104q134 0 252 89v-156zM778 -256q0 -176 -275 -176q-38 0 -65 2v90
q43 -6 70 -6q141 0 141 90q0 78 -129 78q-10 0 -41 -4v182h108v-104q88 0 139.5 -40t51.5 -112z" />
    <glyph glyph-name="eacute" unicode="&#xe9;" horiz-adv-x="1071" 
d="M989 471h-723q4 -171 92 -264t242 -93q173 0 318 114v-154q-135 -98 -357 -98q-217 0 -341 139.5t-124 392.5q0 239 135.5 389.5t336.5 150.5t311 -130t110 -361v-86zM821 610q-1 142 -68.5 221t-187.5 79q-116 0 -197 -83t-100 -217h553zM795 1546l-262 -328h-127
l223 328h166z" />
    <glyph glyph-name="egrave" unicode="&#xe8;" horiz-adv-x="1071" 
d="M989 471h-723q4 -171 92 -264t242 -93q173 0 318 114v-154q-135 -98 -357 -98q-217 0 -341 139.5t-124 392.5q0 239 135.5 389.5t336.5 150.5t311 -130t110 -361v-86zM821 610q-1 142 -68.5 221t-187.5 79q-116 0 -197 -83t-100 -217h553zM725 1218h-127l-262 328h168z
" />
    <glyph glyph-name="ecircumflex" unicode="&#xea;" horiz-adv-x="1071" 
d="M989 471h-723q4 -171 92 -264t242 -93q173 0 318 114v-154q-135 -98 -357 -98q-217 0 -341 139.5t-124 392.5q0 239 135.5 389.5t336.5 150.5t311 -130t110 -361v-86zM821 610q-1 142 -68.5 221t-187.5 79q-116 0 -197 -83t-100 -217h553zM840 1218h-122l-164 230
l-165 -230h-113l215 332h133z" />
    <glyph glyph-name="edieresis" unicode="&#xeb;" horiz-adv-x="1071" 
d="M989 471h-723q4 -171 92 -264t242 -93q173 0 318 114v-154q-135 -98 -357 -98q-217 0 -341 139.5t-124 392.5q0 239 135.5 389.5t336.5 150.5t311 -130t110 -361v-86zM821 610q-1 142 -68.5 221t-187.5 79q-116 0 -197 -83t-100 -217h553zM746 1218q-40 0 -69 28t-29 71
q0 42 28 70t68 28q42 0 71 -28.5t29 -69.5t-28 -70t-70 -29zM362 1218q-42 0 -71.5 29.5t-29.5 69.5q0 42 28.5 70t69.5 28t71 -28.5t30 -69.5t-29 -70t-69 -29z" />
    <glyph glyph-name="iacute" unicode="&#xed;" horiz-adv-x="496" 
d="M330 0h-164v1024h164v-1024zM477 1546l-262 -328h-127l223 328h166z" />
    <glyph glyph-name="igrave" unicode="&#xec;" horiz-adv-x="496" 
d="M330 0h-164v1024h164v-1024zM369 1218h-127l-262 328h168z" />
    <glyph glyph-name="icircumflex" unicode="&#xee;" horiz-adv-x="496" 
d="M330 0h-164v1024h164v-1024zM519 1218h-122l-164 230l-165 -230h-113l215 332h133z" />
    <glyph glyph-name="idieresis" unicode="&#xef;" horiz-adv-x="496" 
d="M330 0h-164v1024h164v-1024zM430 1218q-40 0 -69 28t-29 71q0 42 28 70t68 28q42 0 71 -28.5t29 -69.5t-28 -70t-70 -29zM46 1218q-42 0 -71.5 29.5t-29.5 69.5q0 42 28.5 70t69.5 28t71 -28.5t30 -69.5t-29 -70t-69 -29z" />
    <glyph glyph-name="ntilde" unicode="&#xf1;" horiz-adv-x="1159" 
d="M1016 0h-164v584q0 326 -238 326q-123 0 -203.5 -92.5t-80.5 -233.5v-584h-164v1024h164v-170h4q116 194 336 194q168 0 257 -108.5t89 -313.5v-626zM908 1458q0 -105 -48 -171.5t-130 -66.5q-71 0 -162 52q-77 43 -119 43q-88 0 -88 -113h-94q0 107 48 171.5t134 64.5
q65 0 149 -52q74 -44 128 -44q84 0 84 116h98z" />
    <glyph glyph-name="oacute" unicode="&#xf3;" horiz-adv-x="1200" 
d="M594 -24q-227 0 -362.5 143.5t-135.5 380.5q0 258 141 403t381 145q229 0 357.5 -141t128.5 -391q0 -245 -138.5 -392.5t-371.5 -147.5zM606 910q-158 0 -250 -107.5t-92 -296.5q0 -182 93 -287t249 -105q159 0 244.5 103t85.5 293q0 192 -85.5 296t-244.5 104zM846 1546
l-262 -328h-127l223 328h166z" />
    <glyph glyph-name="ograve" unicode="&#xf2;" horiz-adv-x="1200" 
d="M594 -24q-227 0 -362.5 143.5t-135.5 380.5q0 258 141 403t381 145q229 0 357.5 -141t128.5 -391q0 -245 -138.5 -392.5t-371.5 -147.5zM606 910q-158 0 -250 -107.5t-92 -296.5q0 -182 93 -287t249 -105q159 0 244.5 103t85.5 293q0 192 -85.5 296t-244.5 104zM747 1218
h-127l-262 328h168z" />
    <glyph glyph-name="ocircumflex" unicode="&#xf4;" horiz-adv-x="1200" 
d="M594 -24q-227 0 -362.5 143.5t-135.5 380.5q0 258 141 403t381 145q229 0 357.5 -141t128.5 -391q0 -245 -138.5 -392.5t-371.5 -147.5zM606 910q-158 0 -250 -107.5t-92 -296.5q0 -182 93 -287t249 -105q159 0 244.5 103t85.5 293q0 192 -85.5 296t-244.5 104zM885 1218
h-122l-164 230l-165 -230h-113l215 332h133z" />
    <glyph glyph-name="odieresis" unicode="&#xf6;" horiz-adv-x="1200" 
d="M594 -24q-227 0 -362.5 143.5t-135.5 380.5q0 258 141 403t381 145q229 0 357.5 -141t128.5 -391q0 -245 -138.5 -392.5t-371.5 -147.5zM606 910q-158 0 -250 -107.5t-92 -296.5q0 -182 93 -287t249 -105q159 0 244.5 103t85.5 293q0 192 -85.5 296t-244.5 104zM793 1218
q-40 0 -69 28t-29 71q0 42 28 70t68 28q42 0 71 -28.5t29 -69.5t-28 -70t-70 -29zM409 1218q-42 0 -71.5 29.5t-29.5 69.5q0 42 28.5 70t69.5 28t71 -28.5t30 -69.5t-29 -70t-69 -29z" />
    <glyph glyph-name="otilde" unicode="&#xf5;" horiz-adv-x="1200" 
d="M594 -24q-227 0 -362.5 143.5t-135.5 380.5q0 258 141 403t381 145q229 0 357.5 -141t128.5 -391q0 -245 -138.5 -392.5t-371.5 -147.5zM606 910q-158 0 -250 -107.5t-92 -296.5q0 -182 93 -287t249 -105q159 0 244.5 103t85.5 293q0 192 -85.5 296t-244.5 104zM931 1458
q0 -105 -48 -171.5t-130 -66.5q-71 0 -162 52q-77 43 -119 43q-88 0 -88 -113h-94q0 107 48 171.5t134 64.5q65 0 149 -52q74 -44 128 -44q84 0 84 116h98z" />
    <glyph glyph-name="uacute" unicode="&#xfa;" horiz-adv-x="1159" 
d="M994 0h-164v162h-4q-102 -186 -316 -186q-366 0 -366 436v612h163v-586q0 -324 248 -324q120 0 197.5 88.5t77.5 231.5v590h164v-1024zM840 1546l-262 -328h-127l223 328h166z" />
    <glyph glyph-name="ugrave" unicode="&#xf9;" horiz-adv-x="1159" 
d="M994 0h-164v162h-4q-102 -186 -316 -186q-366 0 -366 436v612h163v-586q0 -324 248 -324q120 0 197.5 88.5t77.5 231.5v590h164v-1024zM705 1218h-127l-262 328h168z" />
    <glyph glyph-name="ucircumflex" unicode="&#xfb;" horiz-adv-x="1159" 
d="M994 0h-164v162h-4q-102 -186 -316 -186q-366 0 -366 436v612h163v-586q0 -324 248 -324q120 0 197.5 88.5t77.5 231.5v590h164v-1024zM854 1218h-122l-164 230l-165 -230h-113l215 332h133z" />
    <glyph glyph-name="udieresis" unicode="&#xfc;" horiz-adv-x="1159" 
d="M994 0h-164v162h-4q-102 -186 -316 -186q-366 0 -366 436v612h163v-586q0 -324 248 -324q120 0 197.5 88.5t77.5 231.5v590h164v-1024zM770 1218q-40 0 -69 28t-29 71q0 42 28 70t68 28q42 0 71 -28.5t29 -69.5t-28 -70t-70 -29zM386 1218q-42 0 -71.5 29.5t-29.5 69.5
q0 42 28.5 70t69.5 28t71 -28.5t30 -69.5t-29 -70t-69 -29z" />
    <glyph glyph-name="dagger" unicode="&#x2020;" horiz-adv-x="768" 
d="M728 893l-262 30l-40 -694h-76l-40 694l-262 -30v150l302 -20l-40 410h156l-40 -410l302 20v-150z" />
    <glyph glyph-name="degree" unicode="&#xb0;" horiz-adv-x="772" 
d="M385 897q-115 0 -196 81.5t-81 197.5q0 115 80 194.5t195 79.5q116 0 197.5 -80t81.5 -194q0 -116 -81 -197.5t-196 -81.5zM385 1333q-65 0 -111 -46t-46 -111q0 -67 45 -114.5t110 -47.5t112 48t47 114t-46 111.5t-111 45.5z" />
    <glyph glyph-name="cent" unicode="&#xa2;" horiz-adv-x="1104" 
d="M952 209q-96 -59 -221 -69v-189h-125v191q-193 22 -307.5 161t-114.5 346q0 219 114.5 366.5t307.5 184.5v213h125v-203q123 -2 221 -51v-172q-101 71 -221 78v-785q122 12 221 86v-157zM606 291v761q-119 -31 -186.5 -133.5t-67.5 -252.5t68 -249t186 -126z" />
    <glyph glyph-name="sterling" unicode="&#xa3;" horiz-adv-x="1104" 
d="M1006 0h-900v135q218 69 218 313v187h-197v141h197v254q0 188 109 308t282 120q117 0 213 -41v-155q-100 57 -211 57q-229 0 -229 -307v-236h296v-141h-296v-156q0 -242 -193 -339h711v-140z" />
    <glyph glyph-name="section" unicode="&#xa7;" horiz-adv-x="918" 
d="M658 416q90 -74 90 -186q0 -132 -100 -214t-255 -82q-131 0 -239 56v158q130 -74 250 -74q84 0 130 39.5t46 99.5q0 53 -35.5 89.5t-180.5 113.5q-233 122 -233 317q0 163 147 244q-106 83 -106 223q0 127 93.5 209t246.5 82q130 0 219 -43v-158q-101 62 -223 62
q-168 0 -168 -144q0 -55 40.5 -100t203.5 -123q223 -107 223 -293q0 -170 -149 -276zM398 905q-101 -51 -101 -159q0 -72 56.5 -126.5t197.5 -117.5q88 68 88 172q0 72 -52.5 122.5t-188.5 108.5z" />
    <glyph glyph-name="bullet" unicode="&#x2022;" horiz-adv-x="832" 
d="M418 408q-104 0 -179 73t-75 177q0 103 75 178.5t179 75.5t177 -75t73 -179t-73 -177t-177 -73z" />
    <glyph glyph-name="paragraph" unicode="&#xb6;" horiz-adv-x="938" 
d="M834 1331h-128v-1331h-106v1331h-158v-1331h-108v903q-108 0 -179 76t-71 191q0 117 74.5 190.5t181.5 73.5h494v-103z" />
    <glyph glyph-name="germandbls" unicode="&#xdf;" horiz-adv-x="1114" 
d="M461 2v160q75 -48 170 -48q109 0 177 73.5t68 197.5q0 150 -100 243.5t-278 113.5v130q118 20 194 103t76 197q0 108 -55 167.5t-152 59.5q-231 0 -231 -309v-1090h-164v1114q0 192 110 308t296 116q166 0 265 -95t99 -251q0 -127 -75 -228t-195 -140v-5
q378 -75 378 -426q0 -177 -111 -297t-294 -120q-101 0 -178 26z" />
    <glyph glyph-name="uni00AD" unicode="&#xad;" horiz-adv-x="819" 
d="M690 506h-546v129h546v-129z" />
    <glyph glyph-name="registered" unicode="&#xae;" horiz-adv-x="1823" 
d="M912 -33q-311 0 -530.5 219.5t-219.5 530.5t219.5 530.5t530.5 219.5q310 0 529.5 -219.5t219.5 -530.5t-219.5 -530.5t-529.5 -219.5zM912 1379q-274 0 -468 -194t-194 -468t194 -467.5t468 -193.5t467.5 193.5t193.5 467.5t-193.5 468t-467.5 194zM1276 248h-162
l-104 229q-79 172 -170 172h-88v-401h-133v954h268q167 0 257.5 -70t90.5 -190q0 -98 -63.5 -167t-177.5 -93v-4q79 -17 157 -176zM752 1088v-326h143q197 0 197 164q0 88 -53 125t-168 37h-119z" />
    <glyph glyph-name="copyright" unicode="&#xa9;" horiz-adv-x="1823" 
d="M912 -33q-311 0 -530.5 219.5t-219.5 530.5t219.5 530.5t530.5 219.5q310 0 529.5 -219.5t219.5 -530.5t-219.5 -530.5t-529.5 -219.5zM912 1379q-274 0 -468 -194t-194 -468t194 -467.5t468 -193.5t467.5 193.5t193.5 467.5t-193.5 468t-467.5 194zM1213 266
q-114 -69 -269 -69q-209 0 -350 141.5t-141 353.5q0 247 144.5 394t375.5 147q132 0 236 -53v-150q-95 72 -254 72q-156 0 -257.5 -106.5t-101.5 -286.5q0 -174 103.5 -279.5t263.5 -105.5q146 0 250 78v-136z" />
    <glyph glyph-name="trademark" unicode="&#x2122;" horiz-adv-x="1583" 
d="M1396 772h-108v478h-4l-219 -478h-59l-214 478h-4v-478h-102v662h127l225 -496h4l228 496h126v-662zM602 1336h-209v-564h-111v564h-206v98h526v-98z" />
    <glyph glyph-name="acute" unicode="&#xb4;" horiz-adv-x="578" 
d="M524 1546l-262 -328h-127l223 328h166z" />
    <glyph glyph-name="dieresis" unicode="&#xa8;" horiz-adv-x="848" 
d="M610 1218q-40 0 -69 28t-29 71q0 42 28 70t68 28q42 0 71 -28.5t29 -69.5t-28 -70t-70 -29zM226 1218q-42 0 -71.5 29.5t-29.5 69.5q0 42 28.5 70t69.5 28t71 -28.5t30 -69.5t-29 -70t-69 -29z" />
    <glyph glyph-name="notequal" unicode="&#x2260;" horiz-adv-x="1403" 
d="M1172 318h-550l-163 -318h-141l164 318h-250v132h319l149 294h-468v132h538l158 312h141l-159 -312h262v-132h-330l-152 -294h482v-132z" />
    <glyph glyph-name="AE" unicode="&#xc6;" horiz-adv-x="1762" 
d="M1667 0h-759v402h-510l-193 -402h-195l700 1434h924v-152h-559v-477h519v-151h-519v-502h592v-152zM908 553v729h-95l-346 -729h441z" />
    <glyph glyph-name="Oslash" unicode="&#xd8;" horiz-adv-x="1544" 
d="M324 131l-152 -182l-78 65l158 191q-158 195 -158 495q0 343 186.5 550.5t509.5 207.5q234 0 402 -129l135 162l78 -63l-139 -166q184 -200 184 -527q0 -351 -186 -555t-498 -204q-266 0 -442 155zM1090 1204q-126 102 -312 102q-227 0 -367.5 -164t-140.5 -427
q0 -223 98 -373zM1157 1130l-725 -866q131 -137 334 -137q236 0 372 154.5t136 430.5q0 260 -117 418z" />
    <glyph glyph-name="infinity" unicode="&#x221e;" horiz-adv-x="1673" 
d="M836 482q-168 -275 -382 -275q-165 0 -268.5 106.5t-103.5 278.5q0 162 108 277.5t264 115.5q236 0 386 -273q164 273 380 273q166 0 270 -106.5t104 -278.5q0 -161 -108 -277t-266 -116q-226 0 -384 275zM901 596q131 -260 319 -260q109 0 174.5 72.5t65.5 191.5
q0 112 -68 186t-172 74q-173 0 -319 -264zM774 598q-132 262 -320 262q-110 0 -175.5 -75t-65.5 -193q0 -110 67.5 -183t173.5 -73q176 0 320 262z" />
    <glyph glyph-name="plusminus" unicode="&#xb1;" horiz-adv-x="1401" 
d="M1172 652h-404v-404h-131v404h-405v132h405v404h131v-404h404v-132zM1172 0h-940v133h940v-133z" />
    <glyph glyph-name="lessequal" unicode="&#x2264;" horiz-adv-x="1403" 
d="M1132 254l-860 434v58l860 481v-150l-642 -354v-4l642 -313v-152zM1172 0h-940v133h940v-133z" />
    <glyph glyph-name="greaterequal" unicode="&#x2265;" horiz-adv-x="1403" 
d="M1132 690l-860 -434v152l644 309v6l-644 357v149l860 -481v-58zM1172 0h-940v133h940v-133z" />
    <glyph glyph-name="yen" unicode="&#xa5;" horiz-adv-x="1104" 
d="M1042 1434l-356 -656h285v-139h-334v-207h334v-139h-334v-293h-164v293h-344v139h344v207h-344v139h291l-352 656h192l250 -514q28 -58 47 -111h4q13 42 49 117l252 508h180z" />
    <glyph glyph-name="mu" unicode="&#xb5;" horiz-adv-x="1182" 
d="M1048 0h-170q-23 72 -23 168h-5q-84 -191 -279 -191q-167 0 -238 123h-4v-496h-163v1420h163v-626q0 -127 69 -202t180 -75q121 0 196.5 86t75.5 231v586h166v-759q0 -188 32 -265z" />
    <glyph glyph-name="partialdiff" unicode="&#x2202;" horiz-adv-x="1096" 
d="M862 872h4q26 476 -266 476q-123 0 -246 -80l39 156q119 65 248 65q194 0 290.5 -132t96.5 -423q0 -221 -65 -461t-200 -368.5t-319 -128.5q-166 0 -266 106.5t-100 287.5q0 272 147.5 471t374.5 199q178 0 262 -168zM850 692q-58 209 -230 209q-160 0 -267 -157
t-107 -367q0 -122 56.5 -192.5t153.5 -70.5q151 0 259 159.5t135 418.5z" />
    <glyph glyph-name="summation" unicode="&#x2211;" horiz-adv-x="1263" 
d="M1210 -469h-1159v78l676 883l-639 852v90h1082v-154h-836l594 -784l-625 -812h907v-153z" />
    <glyph glyph-name="product" unicode="&#x220f;" horiz-adv-x="1544" 
d="M1362 -469h-168v1749h-838v-1749h-168v1903h1174v-1903z" />
    <glyph glyph-name="integral" unicode="&#x222b;" horiz-adv-x="1105" 
d="M916 1372q-48 27 -111 27q-170 0 -170 -217v-1322q0 -158 -93.5 -252t-232.5 -94q-75 0 -119 19v147q48 -26 109 -26q172 0 172 217v1319q0 160 93.5 254t231.5 94q76 0 120 -18v-148z" />
    <glyph glyph-name="ordfeminine" unicode="&#xaa;" horiz-adv-x="803" 
d="M688 717h-129v100h-4q-79 -119 -231 -119q-109 0 -175.5 59.5t-66.5 152.5q0 202 248 235l229 31q0 168 -151 168q-136 0 -254 -86v128q111 70 266 70q126 0 197 -72t71 -202v-465zM559 1075l-180 -25q-168 -23 -168 -134q0 -51 38.5 -83t102.5 -32q82 0 144.5 61
t62.5 146v67z" />
    <glyph glyph-name="ordmasculine" unicode="&#xba;" horiz-adv-x="882" 
d="M436 696q-167 0 -262.5 100.5t-95.5 272.5q0 181 102.5 283t271.5 102q163 0 257 -99.5t94 -270.5q0 -178 -99.5 -283t-267.5 -105zM444 1344q-106 0 -168.5 -72t-62.5 -199q0 -124 59.5 -194t169.5 -70q105 0 166.5 71.5t61.5 194.5q0 126 -60.5 197.5t-165.5 71.5z" />
    <glyph glyph-name="Omega" unicode="&#x2126;" horiz-adv-x="1546" 
d="M1449 0h-519v147q345 255 345 633q0 245 -139 387.5t-358 142.5q-222 0 -363 -142t-141 -387q0 -378 346 -634v-147h-520v148l348 -1q-348 235 -348 638q0 313 185 493t487 180q309 0 493 -178.5t184 -493.5q0 -402 -347 -639l347 1v-148z" />
    <glyph glyph-name="ae" unicode="&#xe6;" horiz-adv-x="1704" 
d="M1622 471h-725q3 -171 91 -264t241 -93q177 0 321 114v-154q-132 -98 -358 -98q-270 0 -383 229h-4q-145 -229 -387 -229q-153 0 -240.5 80.5t-87.5 215.5q0 300 383 324l262 16q0 298 -215 298q-175 0 -330 -122v164q148 96 348 96q232 0 300 -200h4q116 200 356 200
q202 0 313 -130.5t111 -362.5v-84zM1454 610q-2 144 -68.5 222t-185.5 78q-116 0 -199 -82t-102 -218h555zM735 410v63l-203 -12q-139 -8 -207.5 -49t-68.5 -136q0 -73 53 -117.5t143 -44.5q119 0 201 84.5t82 211.5z" />
    <glyph glyph-name="oslash" unicode="&#xf8;" horiz-adv-x="1200" 
d="M1174 1048l-168 -180q98 -138 98 -346q0 -252 -139 -399t-371 -147q-192 0 -318 102l-145 -160l-82 78l149 164q-102 137 -102 340q0 258 142 403t382 145q184 0 308 -98l162 176zM821 836q-79 74 -215 74q-159 0 -250.5 -107.5t-91.5 -296.5q0 -132 50 -224zM891 742
l-508 -552q87 -76 221 -76q163 0 248.5 104t85.5 294q0 134 -47 230z" />
    <glyph glyph-name="questiondown" unicode="&#xbf;" horiz-adv-x="918" 
d="M625 630q9 -26 16 -67.5t7 -82.5q0 -64 -25.5 -115.5t-63.5 -96.5t-83 -86.5t-83 -84t-63.5 -89t-25.5 -102.5q0 -48 18.5 -85t50.5 -62t74 -37.5t89 -12.5q169 0 293 133v-176q-153 -96 -317 -96q-76 0 -143 20t-117 59.5t-79.5 98.5t-29.5 137q0 74 26 132t65.5 106.5
t85.5 90.5t85.5 83.5t65.5 86.5t26 99q0 46 -11 83.5t-22 63.5h161zM535 1046q44 0 78 -32q33 -31 33 -78q0 -46 -33 -78q-33 -33 -78 -33t-78 33q-33 32 -33 78q0 47 33 78q34 32 78 32z" />
    <glyph glyph-name="uni00A0" unicode="&#xa0;" horiz-adv-x="561" 
 />
    <glyph glyph-name="exclamdown" unicode="&#xa1;" horiz-adv-x="582" 
d="M291 826q-46 0 -78.5 32t-32.5 78t32.5 78t78.5 32q45 0 78 -32t33 -78t-33 -78t-78 -32zM379 -406h-172l19 1030h134z" />
    <glyph glyph-name="logicalnot" unicode="&#xac;" horiz-adv-x="1401" 
d="M1172 254h-132v430h-808v133h940v-563z" />
    <glyph glyph-name="radical" unicode="&#x221a;" horiz-adv-x="1331" 
d="M1114 1516l-389 -1516h-113l-319 750h-170v120h264l275 -661l334 1307h118z" />
    <glyph glyph-name="florin" unicode="&#x192;" horiz-adv-x="1104" 
d="M952 1266q-48 28 -108 28q-146 0 -170 -160l-31 -208h166v-138h-187l-90 -648q-58 -418 -348 -418q-31 0 -90 16v143q36 -21 86 -21q150 0 190 292l91 636h-103v138h124l28 219q17 131 104.5 210t221.5 79q64 0 116 -19v-149z" />
    <glyph glyph-name="approxequal" unicode="&#x2248;" horiz-adv-x="1403" 
d="M1194 960q-7 -146 -80.5 -227t-199.5 -81q-109 0 -265 108q-97 68 -159 68q-140 0 -146 -176h-135q5 144 79.5 226t201.5 82q106 0 235 -88q132 -90 197 -90q61 0 98 49t39 129h135zM1194 549q-7 -147 -80.5 -228t-199.5 -81q-109 0 -265 108q-94 66 -159 66
q-140 0 -146 -174h-135q5 143 79.5 226t201.5 83q106 0 235 -88q132 -91 197 -91q61 0 98 50t39 129h135z" />
    <glyph glyph-name="Delta" unicode="&#x2206;" horiz-adv-x="1320" 
d="M1272 0h-1221v76l521 1358h174l526 -1358v-76zM1057 152l-361 968q-33 88 -38 142h-4q-6 -48 -40 -142l-352 -968h795z" />
    <glyph glyph-name="guillemotleft" unicode="&#xab;" horiz-adv-x="1036" 
d="M946 200h-168l-299 336l299 344h170l-307 -344zM557 200h-166l-299 336l299 344h166l-303 -344z" />
    <glyph glyph-name="guillemotright" unicode="&#xbb;" horiz-adv-x="1036" 
d="M948 538l-301 -338h-165l302 338l-302 342h165zM559 538l-299 -338h-170l308 338l-308 342h170z" />
    <glyph glyph-name="ellipsis" unicode="&#x2026;" horiz-adv-x="1501" 
d="M1252 -18q-46 0 -77.5 32t-31.5 78t31.5 79.5t77.5 33.5q45 0 77.5 -33.5t32.5 -79.5t-32.5 -78t-77.5 -32zM750 -18q-46 0 -78.5 32t-32.5 78t32.5 79.5t78.5 33.5q45 0 77.5 -33.5t32.5 -79.5t-32.5 -78t-77.5 -32zM248 -18q-46 0 -77 32t-31 78t31 79.5t77 33.5
q45 0 77.5 -33.5t32.5 -79.5t-32 -78t-78 -32z" />
    <glyph glyph-name="Agrave" unicode="&#xc0;" horiz-adv-x="1321" 
d="M1298 0h-186l-152 402h-608l-143 -402h-187l550 1434h174zM905 553l-225 611q-11 30 -22 96h-4q-10 -61 -23 -96l-223 -611h497zM758 1566h-127l-262 328h168z" />
    <glyph glyph-name="Atilde" unicode="&#xc3;" horiz-adv-x="1321" 
d="M1298 0h-186l-152 402h-608l-143 -402h-187l550 1434h174zM905 553l-225 611q-11 30 -22 96h-4q-10 -61 -23 -96l-223 -611h497zM977 1803q0 -105 -48 -171.5t-130 -66.5q-71 0 -162 52q-77 43 -119 43q-88 0 -88 -113h-94q0 107 48 171.5t134 64.5q65 0 149 -52
q74 -44 128 -44q84 0 84 116h98z" />
    <glyph glyph-name="Otilde" unicode="&#xd5;" horiz-adv-x="1544" 
d="M766 -24q-305 0 -488.5 201t-183.5 523q0 346 187 552t509 206q297 0 478.5 -200t181.5 -523q0 -351 -186 -555t-498 -204zM778 1306q-226 0 -367 -163t-141 -428t137.5 -426.5t358.5 -161.5q236 0 372 154t136 431q0 284 -132 439t-364 155zM1103 1802
q0 -105 -48 -171.5t-130 -66.5q-71 0 -162 52q-77 43 -119 43q-88 0 -88 -113h-94q0 107 48 171.5t134 64.5q65 0 149 -52q74 -44 128 -44q84 0 84 116h98z" />
    <glyph glyph-name="OE" unicode="&#x152;" horiz-adv-x="1906" 
d="M1810 0h-720q-16 0 -138 -14q-98 -10 -182 -10q-312 0 -494 201t-182 523q0 346 189.5 552t514.5 206q90 0 178 -10q112 -14 114 -14h688v-152h-560v-477h518v-151h-518v-502h592v-152zM1050 160v1118q-160 28 -268 28q-229 0 -370.5 -166t-141.5 -425q0 -258 139.5 -423
t366.5 -165q116 0 274 33z" />
    <glyph glyph-name="oe" unicode="&#x153;" horiz-adv-x="1900" 
d="M1825 471h-725q3 -171 91.5 -264t242.5 -93q175 0 319 114v-154q-136 -98 -357 -98q-270 0 -382 237h-4q-131 -237 -416 -237q-229 0 -363.5 143t-134.5 379q0 258 142 404t382 146q294 0 402 -235h4q119 235 385 235q196 0 305 -131.5t109 -357.5v-88zM1657 610
q-2 142 -69 221t-183 79q-120 0 -203.5 -85.5t-99.5 -214.5h555zM606 910q-158 0 -250 -108.5t-92 -299.5q0 -180 92 -284t248 -104q159 0 245.5 102.5t86.5 291.5q0 194 -86.5 298t-243.5 104z" />
    <glyph glyph-name="endash" unicode="&#x2013;" horiz-adv-x="1024" 
d="M1024 506h-1024v129h1024v-129z" />
    <glyph glyph-name="emdash" unicode="&#x2014;" horiz-adv-x="2048" 
d="M2048 506h-2048v129h2048v-129z" />
    <glyph glyph-name="quotedblleft" unicode="&#x201c;" horiz-adv-x="772" 
d="M668 1458l-111 -446h-147l141 446h117zM364 1458l-108 -446h-150l140 446h118z" />
    <glyph glyph-name="quotedblright" unicode="&#x201d;" horiz-adv-x="772" 
d="M672 1458l-140 -446h-118l108 446h150zM368 1458l-140 -446h-118l111 446h147z" />
    <glyph glyph-name="quoteleft" unicode="&#x2018;" horiz-adv-x="469" 
d="M364 1458l-108 -446h-150l140 446h118z" />
    <glyph glyph-name="quoteright" unicode="&#x2019;" horiz-adv-x="469" 
d="M368 1458l-140 -446h-118l111 446h147z" />
    <glyph glyph-name="divide" unicode="&#xf7;" horiz-adv-x="1401" 
d="M708 868q-44 0 -74 30.5t-30 74.5q0 45 29 77t75 32q103 0 103 -107q0 -47 -30.5 -77t-72.5 -30zM1172 530h-940v134h940v-134zM704 112q-44 0 -75 30t-31 73q0 45 30 78t76 33q101 0 101 -109q0 -45 -29 -75t-72 -30z" />
    <glyph glyph-name="lozenge" unicode="&#x25ca;" horiz-adv-x="1195" 
d="M1088 717l-453 -717h-76l-451 715l451 719h76zM954 717l-356 575l-356 -575l356 -577z" />
    <glyph glyph-name="ydieresis" unicode="&#xff;" horiz-adv-x="991" 
d="M981 1024l-471 -1188q-126 -318 -354 -318q-64 0 -107 13v147q53 -18 97 -18q124 0 186 148l82 194l-400 1022h182l277 -788q5 -15 21 -78h6q5 24 20 76l291 790h170zM689 1218q-40 0 -69 28t-29 71q0 42 28 70t68 28q42 0 71 -28.5t29 -69.5t-28 -70t-70 -29zM305 1218
q-42 0 -71.5 29.5t-29.5 69.5q0 42 28.5 70t69.5 28t71 -28.5t30 -69.5t-29 -70t-69 -29z" />
    <glyph glyph-name="Ydieresis" unicode="&#x178;" horiz-adv-x="1132" 
d="M1120 1434l-473 -904v-530h-168v526l-461 908h191l321 -648q6 -12 35 -88h3q10 34 38 88l336 648h178zM759 1565q-40 0 -69 28t-29 71q0 42 28 70t68 28q42 0 71 -28.5t29 -69.5t-28 -70t-70 -29zM375 1565q-42 0 -71.5 29.5t-29.5 69.5q0 42 28.5 70t69.5 28t71 -28.5
t30 -69.5t-29 -70t-69 -29z" />
    <glyph glyph-name="fraction" unicode="&#x2044;" horiz-adv-x="354" 
d="M690 1434l-858 -1434h-144l859 1434h143z" />
    <glyph glyph-name="Euro" unicode="&#x20ac;" horiz-adv-x="1104" 
d="M1014 50q-133 -74 -282 -74q-427 0 -509 506h-121v140h108q-4 31 -4 77q0 48 6 108h-110v140h131q51 240 192.5 375.5t343.5 135.5q137 0 245 -56v-162q-114 78 -256 78q-125 0 -222.5 -100.5t-136.5 -270.5h497v-140h-519q-8 -99 -1 -185h520v-140h-504
q72 -366 350 -366q131 0 272 87v-153z" />
    <glyph glyph-name="guilsinglleft" unicode="&#x2039;" horiz-adv-x="647" 
d="M557 200h-166l-299 336l299 344h168l-305 -344z" />
    <glyph glyph-name="guilsinglright" unicode="&#x203a;" horiz-adv-x="647" 
d="M559 538l-301 -338h-166l304 338l-304 342h166z" />
    <glyph glyph-name="uniFB01" unicode="&#xfb01;" horiz-adv-x="1136" 
d="M672 1372q-48 27 -109 27q-172 0 -172 -217v-158h240v-140h-240v-884h-163v884h-175v140h175v166q0 161 93 254.5t232 93.5q75 0 119 -18v-148zM893 1284q-45 0 -76 30t-31 76q0 45 31 76t76 31t77 -30.5t32 -76.5q0 -44 -32 -75t-77 -31zM973 0h-164v1024h164v-1024z
" />
    <glyph glyph-name="uniFB02" unicode="&#xfb02;" horiz-adv-x="1136" 
d="M672 1372q-48 27 -109 27q-172 0 -172 -217v-158h240v-140h-240v-884h-163v884h-175v140h175v166q0 161 93 254.5t232 93.5q75 0 119 -18v-148zM975 0h-162v1516h162v-1516z" />
    <glyph glyph-name="daggerdbl" unicode="&#x2021;" horiz-adv-x="768" 
d="M728 519l-302 20l40 -310h-156l40 310l-302 -20v150l262 -30l58 192l-58 192l-262 -30v150l302 -20l-40 310h156l-40 -310l302 20v-150l-262 30l-58 -192l58 -192l262 30v-150z" />
    <glyph glyph-name="periodcentered" unicode="&#xb7;" horiz-adv-x="444" 
d="M223 510q-46 0 -78.5 33t-32.5 79q0 47 32.5 80t78.5 33q47 0 80 -33t33 -80q0 -46 -33 -79t-80 -33z" />
    <glyph glyph-name="periodcentered" unicode="&#x2219;" horiz-adv-x="444" 
d="M223 510q-46 0 -78.5 33t-32.5 79q0 47 32.5 80t78.5 33q47 0 80 -33t33 -80q0 -46 -33 -79t-80 -33z" />
    <glyph glyph-name="quotesinglbase" unicode="&#x201a;" horiz-adv-x="469" 
d="M346 217l-141 -445h-117l110 445h148z" />
    <glyph glyph-name="quotedblbase" unicode="&#x201e;" horiz-adv-x="772" 
d="M649 217l-139 -445h-119l109 445h149zM346 217l-141 -445h-117l110 445h148z" />
    <glyph glyph-name="perthousand" unicode="&#x2030;" horiz-adv-x="2478" 
d="M404 715q-148 0 -236 97.5t-88 260.5q0 178 93 280.5t251 102.5q153 0 237.5 -95t84.5 -267t-94.5 -275.5t-247.5 -103.5zM418 1346q-95 0 -150 -70.5t-55 -193.5q0 -121 54 -188.5t147 -67.5q94 0 147 70t53 194q0 121 -52.5 188.5t-143.5 67.5zM1366 1434l-922 -1444
h-143l921 1444h144zM2056 -22q-148 0 -236 98t-88 260q0 177 94.5 281t249.5 104q153 0 237.5 -95.5t84.5 -269.5q0 -171 -94 -274.5t-248 -103.5zM2070 608q-96 0 -150 -70.5t-54 -193.5q0 -120 53.5 -187t146.5 -67q95 0 148 70.5t53 193.5q0 121 -53 187.5t-144 66.5z
M1258 -22q-148 0 -236 98t-88 260q0 178 94 281.5t250 103.5q152 0 237 -96t85 -269q0 -171 -94.5 -274.5t-247.5 -103.5zM1272 608q-96 0 -150.5 -70t-54.5 -194q0 -119 54 -186.5t147 -67.5q94 0 147 70.5t53 193.5q0 122 -52.5 188t-143.5 66z" />
    <glyph glyph-name="Acircumflex" unicode="&#xc2;" horiz-adv-x="1321" 
d="M1298 0h-186l-152 402h-608l-143 -402h-187l550 1434h174zM905 553l-225 611q-11 30 -22 96h-4q-10 -61 -23 -96l-223 -611h497zM927 1565h-122l-164 230l-165 -230h-113l215 332h133z" />
    <glyph glyph-name="Ecircumflex" unicode="&#xca;" horiz-adv-x="1036" 
d="M948 0h-760v1434h728v-152h-560v-477h518v-151h-518v-502h592v-152zM827 1567h-122l-164 230l-165 -230h-113l215 332h133z" />
    <glyph glyph-name="Aacute" unicode="&#xc1;" horiz-adv-x="1321" 
d="M1298 0h-186l-152 402h-608l-143 -402h-187l550 1434h174zM905 553l-225 611q-11 30 -22 96h-4q-10 -61 -23 -96l-223 -611h497zM867 1894l-262 -328h-127l223 328h166z" />
    <glyph glyph-name="Edieresis" unicode="&#xcb;" horiz-adv-x="1036" 
d="M948 0h-760v1434h728v-152h-560v-477h518v-151h-518v-502h592v-152zM749 1566q-40 0 -69 28t-29 71q0 42 28 70t68 28q42 0 71 -28.5t29 -69.5t-28 -70t-70 -29zM365 1566q-42 0 -71.5 29.5t-29.5 69.5q0 42 28.5 70t69.5 28t71 -28.5t30 -69.5t-29 -70t-69 -29z" />
    <glyph glyph-name="Egrave" unicode="&#xc8;" horiz-adv-x="1036" 
d="M948 0h-760v1434h728v-152h-560v-477h518v-151h-518v-502h592v-152zM703 1566h-127l-262 328h168z" />
    <glyph glyph-name="Iacute" unicode="&#xcd;" horiz-adv-x="545" 
d="M496 1434v-144h-140v-1146h140v-144h-448v144h140v1146h-140v144h448zM509 1894l-262 -328h-127l223 328h166z" />
    <glyph glyph-name="Icircumflex" unicode="&#xce;" horiz-adv-x="545" 
d="M496 1434v-144h-140v-1146h140v-144h-448v144h140v1146h-140v144h448zM560 1567h-122l-164 230l-165 -230h-113l215 332h133z" />
    <glyph glyph-name="Idieresis" unicode="&#xcf;" horiz-adv-x="545" 
d="M496 1434v-144h-140v-1146h140v-144h-448v144h140v1146h-140v144h448zM470 1566q-40 0 -69 28t-29 71q0 42 28 70t68 28q42 0 71 -28.5t29 -69.5t-28 -70t-70 -29zM86 1566q-42 0 -71.5 29.5t-29.5 69.5q0 42 28.5 70t69.5 28t71 -28.5t30 -69.5t-29 -70t-69 -29z" />
    <glyph glyph-name="Igrave" unicode="&#xcc;" horiz-adv-x="545" 
d="M496 1434v-144h-140v-1146h140v-144h-448v144h140v1146h-140v144h448zM416 1566h-127l-262 328h168z" />
    <glyph glyph-name="Oacute" unicode="&#xd3;" horiz-adv-x="1544" 
d="M766 -24q-305 0 -488.5 201t-183.5 523q0 346 187 552t509 206q297 0 478.5 -200t181.5 -523q0 -351 -186 -555t-498 -204zM778 1306q-226 0 -367 -163t-141 -428t137.5 -426.5t358.5 -161.5q236 0 372 154t136 431q0 284 -132 439t-364 155zM1028 1894l-262 -328h-127
l223 328h166z" />
    <glyph glyph-name="Ocircumflex" unicode="&#xd4;" horiz-adv-x="1544" 
d="M766 -24q-305 0 -488.5 201t-183.5 523q0 346 187 552t509 206q297 0 478.5 -200t181.5 -523q0 -351 -186 -555t-498 -204zM778 1306q-226 0 -367 -163t-141 -428t137.5 -426.5t358.5 -161.5q236 0 372 154t136 431q0 284 -132 439t-364 155zM1063 1566h-122l-164 230
l-165 -230h-113l215 332h133z" />
    <glyph glyph-name="Ograve" unicode="&#xd2;" horiz-adv-x="1544" 
d="M766 -24q-305 0 -488.5 201t-183.5 523q0 346 187 552t509 206q297 0 478.5 -200t181.5 -523q0 -351 -186 -555t-498 -204zM778 1306q-226 0 -367 -163t-141 -428t137.5 -426.5t358.5 -161.5q236 0 372 154t136 431q0 284 -132 439t-364 155zM880 1566h-127l-262 328h168
z" />
    <glyph glyph-name="Uacute" unicode="&#xda;" horiz-adv-x="1407" 
d="M1237 580q0 -604 -545 -604q-522 0 -522 581v877h168v-866q0 -441 372 -441q359 0 359 426v881h168v-854zM960 1893l-262 -328h-127l223 328h166z" />
    <glyph glyph-name="Ucircumflex" unicode="&#xdb;" horiz-adv-x="1407" 
d="M1237 580q0 -604 -545 -604q-522 0 -522 581v877h168v-866q0 -441 372 -441q359 0 359 426v881h168v-854zM987 1567h-122l-164 230l-165 -230h-113l215 332h133z" />
    <glyph glyph-name="Ugrave" unicode="&#xd9;" horiz-adv-x="1407" 
d="M1237 580q0 -604 -545 -604q-522 0 -522 581v877h168v-866q0 -441 372 -441q359 0 359 426v881h168v-854zM830 1566h-127l-262 328h168z" />
    <glyph glyph-name="dotlessi" unicode="&#x131;" horiz-adv-x="496" 
d="M330 0h-164v1024h164v-1024z" />
    <glyph glyph-name="circumflex" unicode="&#x2c6;" horiz-adv-x="760" 
d="M656 1218h-122l-164 230l-165 -230h-113l215 332h133z" />
    <glyph glyph-name="tilde" unicode="&#x2dc;" horiz-adv-x="690" 
d="M676 1458q0 -105 -48 -171.5t-130 -66.5q-71 0 -162 52q-77 43 -119 43q-88 0 -88 -113h-94q0 107 48 171.5t134 64.5q65 0 149 -52q74 -44 128 -44q84 0 84 116h98z" />
    <glyph glyph-name="macron" unicode="&#xaf;" horiz-adv-x="635" 
d="M570 1218h-508v109h508v-109z" />
    <glyph glyph-name="macron" unicode="&#x2c9;" horiz-adv-x="635" 
d="M570 1218h-508v109h508v-109z" />
    <glyph glyph-name="breve" unicode="&#x2d8;" horiz-adv-x="622" 
d="M586 1470q-10 -113 -88.5 -182.5t-190.5 -69.5q-117 0 -191 69t-79 183h100q12 -155 172 -155q68 0 116.5 42t58.5 113h102z" />
    <glyph glyph-name="dotaccent" unicode="&#x2d9;" horiz-adv-x="412" 
d="M207 1218q-40 0 -69.5 28.5t-29.5 70.5q0 40 29 68t70 28t69.5 -27.5t28.5 -68.5t-28.5 -70t-69.5 -29z" />
    <glyph glyph-name="ring" unicode="&#x2da;" horiz-adv-x="574" 
d="M284 1176q-87 0 -144.5 52.5t-57.5 137.5q0 90 59 144t150 54q89 0 146 -54t57 -138t-61 -140t-149 -56zM284 1483q-48 0 -80 -32.5t-32 -80.5q0 -112 112 -112q50 0 83 32t33 80q0 49 -33 81t-83 32z" />
    <glyph glyph-name="cedilla" unicode="&#xb8;" horiz-adv-x="420" 
d="M391 -256q0 -176 -275 -176q-38 0 -65 2v90q43 -6 70 -6q141 0 141 90q0 78 -129 78q-10 0 -41 -4v182h108v-104q88 0 139.5 -40t51.5 -112z" />
    <glyph glyph-name="hungarumlaut" unicode="&#x2dd;" horiz-adv-x="664" 
d="M647 1536l-245 -318h-97l209 318h133zM400 1536l-240 -318h-96l206 318h130z" />
    <glyph glyph-name="ogonek" unicode="&#x2db;" horiz-adv-x="379" 
d="M338 0q-150 -141 -150 -223q0 -70 68 -70q30 0 56 13v-107q-30 -13 -82 -13q-76 0 -122 40t-46 110q0 122 157 250h119z" />
    <glyph glyph-name="caron" unicode="&#x2c7;" horiz-adv-x="760" 
d="M664 1548l-214 -330h-132l-216 330h115l164 -229l164 229h119z" />
    <glyph glyph-name="Lslash" unicode="&#x141;" horiz-adv-x="964" 
d="M932 0h-744v547l-155 -97v152l155 96v736h168v-631l328 203v-154l-328 -200v-500h576v-152z" />
    <glyph glyph-name="lslash" unicode="&#x142;" horiz-adv-x="561" 
d="M530 811l-174 -123v-688h-164v578l-170 -119v157l170 119v781h164v-670l174 122v-157z" />
    <glyph glyph-name="Scaron" unicode="&#x160;" horiz-adv-x="1088" 
d="M121 58v198q34 -30 81.5 -54t100 -40.5t105.5 -25.5t98 -9q155 0 231.5 57.5t76.5 165.5q0 58 -25.5 101t-70.5 78.5t-106.5 68t-132.5 68.5q-75 38 -140 77t-113 86t-75.5 106.5t-27.5 139.5q0 98 43 170.5t113 119.5t159.5 70t182.5 23q212 0 309 -51v-189
q-127 88 -326 88q-55 0 -110 -11.5t-98 -37.5t-70 -67t-27 -100q0 -55 20.5 -95t60.5 -73t97.5 -64t132.5 -68q77 -38 146 -80t121 -93t82.5 -113t30.5 -142q0 -106 -41.5 -179.5t-112 -119.5t-162.5 -66.5t-194 -20.5q-34 0 -84 5.5t-102 16t-98.5 26t-74.5 34.5zM826 1898
l-214 -330h-132l-216 330h115l164 -229l164 229h119z" />
    <glyph glyph-name="scaron" unicode="&#x161;" horiz-adv-x="869" 
d="M104 37v176q134 -99 295 -99q216 0 216 144q0 41 -18.5 69.5t-50 50.5t-74 39.5t-91.5 36.5q-68 27 -119.5 54.5t-86 62t-52 78.5t-17.5 103q0 72 33 127.5t88 93t125.5 56.5t145.5 19q133 0 238 -46v-166q-113 74 -260 74q-46 0 -83 -10.5t-63.5 -29.5t-41 -45.5
t-14.5 -58.5q0 -40 14.5 -67t42.5 -48t68 -38t91 -37q68 -26 122 -53.5t92 -62t58.5 -79.5t20.5 -107q0 -76 -33.5 -132t-89.5 -93t-129 -55t-153 -18q-158 0 -274 61zM682 1548l-214 -330h-132l-216 330h115l164 -229l164 229h119z" />
    <glyph glyph-name="Zcaron" unicode="&#x17d;" horiz-adv-x="1168" 
d="M1124 1394l-840 -1242h820v-152h-1071v47l833 1235h-766v152h1024v-40zM900 1895l-214 -330h-132l-216 330h115l164 -229l164 229h119z" />
    <glyph glyph-name="zcaron" unicode="&#x17e;" horiz-adv-x="926" 
d="M880 977l-606 -837h600v-140h-841v51l606 833h-549v140h790v-47zM782 1548l-214 -330h-132l-216 330h115l164 -229l164 229h119z" />
    <glyph glyph-name="brokenbar" unicode="&#xa6;" horiz-adv-x="490" 
d="M320 715h-148v851h148v-851zM320 -482h-148v852h148v-852z" />
    <glyph glyph-name="Eth" unicode="&#xd0;" horiz-adv-x="1436" 
d="M188 0v641h-160v155h160v638h396q758 0 758 -699q0 -334 -210.5 -534.5t-563.5 -200.5h-380zM356 1282v-486h336v-155h-336v-489h214q282 0 439 151t157 428q0 551 -586 551h-224z" />
    <glyph glyph-name="eth" unicode="&#xf0;" horiz-adv-x="1145" 
d="M786 968l4 3q-90 162 -198 266l-299 -151l-51 98l270 131q-118 105 -264 201h221q75 -52 172 -136l289 144l55 -94l-264 -130q327 -307 327 -774q0 -240 -129 -394t-351 -154t-347 140t-125 382q0 243 130 394.5t350 151.5q123 0 210 -78zM582 910q-148 0 -233 -108.5
t-85 -295.5q0 -181 83 -286.5t231 -105.5q139 0 220.5 108t81.5 288q0 400 -298 400z" />
    <glyph glyph-name="Yacute" unicode="&#xdd;" horiz-adv-x="1132" 
d="M1120 1434l-473 -904v-530h-168v526l-461 908h191l321 -648q6 -12 35 -88h3q10 34 38 88l336 648h178zM831 1894l-262 -328h-127l223 328h166z" />
    <glyph glyph-name="yacute" unicode="&#xfd;" horiz-adv-x="991" 
d="M981 1024l-471 -1188q-126 -318 -354 -318q-64 0 -107 13v147q53 -18 97 -18q124 0 186 148l82 194l-400 1022h182l277 -788q5 -15 21 -78h6q5 24 20 76l291 790h170zM762 1546l-262 -328h-127l223 328h166z" />
    <glyph glyph-name="Thorn" unicode="&#xde;" horiz-adv-x="1147" 
d="M356 318v-318h-168v1434h168v-226h226q232 0 357.5 -111.5t125.5 -316.5q0 -204 -141.5 -333t-381.5 -129h-186zM356 1057v-588h176q173 0 265 78t92 223q0 287 -336 287h-197z" />
    <glyph glyph-name="thorn" unicode="&#xfe;" horiz-adv-x="1204" 
d="M334 148h-4v-619h-164v1987h164v-672h4q121 204 354 204q198 0 309 -137.5t111 -368.5q0 -257 -125 -411.5t-342 -154.5q-199 0 -307 172zM330 561v-143q0 -127 82.5 -215.5t209.5 -88.5q149 0 233.5 114t84.5 317q0 171 -79 268t-214 97q-143 0 -230 -99.5t-87 -249.5z
" />
    <glyph glyph-name="minus" unicode="&#x2212;" horiz-adv-x="1401" 
d="M1172 530h-940v134h940v-134z" />
    <glyph glyph-name="multiply" unicode="&#xd7;" horiz-adv-x="1401" 
d="M1134 258l-94 -94l-340 340l-338 -340l-94 94l340 338l-340 340l94 94l338 -340l340 340l94 -94l-340 -340z" />
    <glyph glyph-name="uni00B9" unicode="&#xb9;" horiz-adv-x="719" 
d="M639 584h-504v112h185v594l-193 -55v125l323 96v-760h189v-112z" />
    <glyph glyph-name="uni00B2" unicode="&#xb2;" horiz-adv-x="750" 
d="M658 584h-554v114l240 236q104 102 132 156.5t28 109.5q0 58 -38 94.5t-100 36.5q-118 0 -216 -102v149q84 76 235 76q118 0 187 -66t69 -174q0 -153 -205 -348l-164 -156v-4h386v-122z" />
    <glyph glyph-name="uni00B3" unicode="&#xb3;" horiz-adv-x="750" 
d="M129 616v142q103 -76 217 -76q80 0 126 37.5t46 101.5q0 141 -219 141h-84v118h80q197 0 197 134q0 119 -144 119q-94 0 -186 -69v139q87 51 213 51q113 0 180 -59.5t67 -155.5q0 -151 -145 -205v-4q177 -42 177 -202q0 -117 -85 -191t-227 -74q-137 0 -213 53z" />
    <glyph glyph-name="onehalf" unicode="&#xbd;" horiz-adv-x="1906" 
d="M639 584h-504v112h185v594l-193 -55v125l323 96v-760h189v-112zM1393 1434l-858 -1434h-144l859 1434h143zM1748 1h-554v114l240 236q104 102 132 156.5t28 109.5q0 58 -38 94.5t-100 36.5q-118 0 -216 -102v149q84 76 235 76q118 0 187 -66t69 -174q0 -153 -205 -348
l-164 -156v-4h386v-122z" />
    <glyph glyph-name="onequarter" unicode="&#xbc;" horiz-adv-x="1856" 
d="M639 584h-504v112h185v594l-193 -55v125l323 96v-760h189v-112zM1393 1434l-858 -1434h-144l859 1434h143zM1706 204h-110v-204h-132v204h-393v92l369 554h156v-537h110v-109zM1468 724h-4q-12 -31 -38 -73l-218 -338h256v323q0 32 4 88z" />
    <glyph glyph-name="threequarters" unicode="&#xbe;" horiz-adv-x="1950" 
d="M129 616v142q103 -76 217 -76q80 0 126 37.5t46 101.5q0 141 -219 141h-84v118h80q197 0 197 134q0 119 -144 119q-94 0 -186 -69v139q87 51 213 51q113 0 180 -59.5t67 -155.5q0 -151 -145 -205v-4q177 -42 177 -202q0 -117 -85 -191t-227 -74q-137 0 -213 53z
M1464 1434l-858 -1434h-144l859 1434h143zM1771 204h-110v-204h-132v204h-393v92l369 554h156v-537h110v-109zM1533 724h-4q-12 -31 -38 -73l-218 -338h256v323q0 32 4 88z" />
    <glyph glyph-name="uni2074" unicode="&#x2074;" horiz-adv-x="719" 
d="M682 788h-110v-204h-132v204h-393v92l369 554h156v-537h110v-109zM444 1308h-4q-12 -31 -38 -73l-218 -338h256v323q0 32 4 88z" />
    <glyph glyph-name="currency" unicode="&#xa4;" horiz-adv-x="1138" 
d="M1038 354l-92 -96l-137 138q-105 -76 -239 -76q-136 0 -240 76l-138 -138l-92 96l138 134q-76 113 -76 237q0 129 76 237l-138 136l92 96l138 -137q110 77 240 77q129 0 237 -77l139 137l92 -96l-137 -136q78 -112 78 -237q0 -121 -78 -237zM570 1002q-116 0 -195.5 -81
t-79.5 -194t80.5 -194t194.5 -81q113 0 194.5 81t81.5 194t-83 194t-193 81z" />
    <glyph glyph-name="uni25CC" unicode="&#x25cc;" horiz-adv-x="1217" 
d="M980 918q0 -50 -48 -50q-52 0 -52 50t52 50q48 0 48 -50zM832 1016q0 -49 -48 -49q-52 0 -52 49q0 51 52 51q48 0 48 -51zM1079 770q0 -51 -51 -51q-49 0 -49 51q0 49 51 49q49 0 49 -49zM1115 596q0 -50 -48 -50q-52 0 -52 50t52 50q48 0 48 -50zM658 1053
q0 -51 -50 -51t-50 51q0 49 50 49t50 -49zM485 1016q0 -49 -51 -49q-49 0 -49 49q0 51 49 51q51 0 51 -51zM1079 422q0 -49 -51 -49q-49 0 -49 49q0 51 49 51q51 0 51 -51zM337 918q0 -50 -50 -50t-50 47q0 53 50 53t50 -50zM980 272q0 -49 -48 -49q-52 0 -52 49q0 51 52 51
q48 0 48 -51zM832 174q0 -48 -48 -48q-52 0 -52 48q0 52 52 52q48 0 48 -52zM238 770q0 -51 -48 -51q-52 0 -52 51q0 49 50 49t50 -49zM202 596q0 -50 -48 -50q-52 0 -52 50t52 50q48 0 48 -50zM658 141q0 -51 -50 -51t-50 51q0 49 50 49t50 -49zM238 422q0 -49 -50 -49
t-50 49q0 51 50 51t50 -51zM485 178q0 -52 -51 -52q-49 0 -49 48q0 52 49 52q51 0 51 -48zM337 272q0 -49 -50 -49t-50 49q0 51 50 51t50 -51z" />
    <glyph glyph-name="uni13A0" unicode="&#x13a0;" horiz-adv-x="1436" 
d="M188 0v1434h396q758 0 758 -699q0 -332 -210.5 -533.5t-563.5 -201.5h-380zM356 1282v-1130h214q282 0 439 151t157 428q0 551 -586 551h-224z" />
    <glyph glyph-name="uni13A1" unicode="&#x13a1;" horiz-adv-x="1404" 
d="M1394 230q-5 -72 -35 -127q-13 -24 -33 -47t-48.5 -40.5t-67.5 -28.5t-90 -11t-90.5 11t-68.5 28.5t-48.5 40.5t-32.5 47q-30 55 -34 127v172q0 55 -19 94t-52 64.5t-77 37.5t-94 12h-248v-610h-168v1434h428q94 0 173.5 -23.5t138 -71.5t91.5 -119.5t33 -167.5
q0 -75 -24.5 -135.5t-63 -106.5t-86.5 -77.5t-95 -47.5q58 0 102.5 -22.5t75 -60t46 -87t15.5 -104.5v-179q0 -5 3 -21t13 -33t29.5 -30.5t52.5 -13.5q36 0 56 15t30 33q11 21 13 48h175zM356 1282v-520h228q63 0 116.5 19t92.5 54.5t61 86.5t22 116q0 115 -74 179.5
t-216 64.5h-230z" />
    <glyph glyph-name="uni13A2" unicode="&#x13a2;" horiz-adv-x="1073" 
d="M1036 1282h-414v-1282h-168v1282h-413v152h995v-152z" />
    <glyph glyph-name="uni13A3" unicode="&#x13a3;" horiz-adv-x="1529" 
d="M64 347q0 67 14.5 126.5t45.5 106.5t78.5 79.5t112.5 45.5q29 78 76 138t107 102.5t129 67t142 31.5v246h-140v144h448v-144h-140v-246q132 -10 226 -57t154.5 -121t89 -171t28.5 -207q0 -117 -31.5 -211.5t-94 -161.5t-156 -103t-216.5 -36v138q85 0 147 29.5
t102.5 81.5t60.5 123t20 154t-23 157t-73 130t-128.5 88.5t-189.5 32.5q-136 0 -224 -55.5t-136 -151.5q64 -14 110.5 -46.5t76.5 -79.5t44.5 -106t14.5 -125q0 -79 -20 -146.5t-61 -117t-105 -78t-152 -28.5t-151.5 29t-105 79t-61 117.5t-19.5 145.5zM581 343
q0 113 -43.5 178t-135.5 65q-93 0 -136.5 -63.5t-43.5 -176.5q0 -115 43.5 -179t136.5 -64q92 0 135.5 63.5t43.5 176.5z" />
    <glyph glyph-name="uni13A4" unicode="&#x13a4;" horiz-adv-x="1837" 
d="M696 -24q-143 0 -254.5 55t-189 152.5t-118 229.5t-40.5 287q0 164 38 303t115.5 240t195.5 158t277 57q145 0 255.5 -56t185 -153.5t112 -229.5t37.5 -287q66 1 127.5 9t109 30t76 63.5t28.5 110.5q0 31 -8.5 59t-25 49t-41 33t-56.5 12q-24 0 -45.5 -4t-38.5 -9
q-19 -5 -37 -12l-7 139q22 7 47 12q21 5 48.5 8.5t58.5 3.5q61 0 110.5 -22t84 -59t53.5 -85.5t19 -101.5q0 -104 -37.5 -175t-105 -115t-161.5 -64.5t-207 -24.5q-16 -135 -61.5 -247.5t-121 -194t-181.5 -126.5t-242 -45zM708 1306q-113 0 -195.5 -47.5t-136.5 -128.5
t-80 -188t-26 -227q0 -118 24 -224.5t76 -187.5t132.5 -128.5t193.5 -47.5q117 0 200 44t136 122.5t77.5 185.5t24.5 233t-23 234.5t-74 188.5t-132 125.5t-197 45.5z" />
    <glyph glyph-name="uni13A5" unicode="&#x13a5;" horiz-adv-x="545" 
d="M356 1024v-880h140v-144h-448v144h140v880h168zM274 1284q-22 0 -41.5 8t-33.5 22t-22.5 33.5t-8.5 42.5t8.5 42.5t22.5 34t33.5 22.5t41.5 8t42 -8t34.5 -22.5t23 -34t8.5 -42.5q0 -22 -8.5 -41.5t-23 -33.5t-34.5 -22.5t-42 -8.5z" />
    <glyph glyph-name="uni13A6" unicode="&#x13a6;" horiz-adv-x="1088" 
d="M1078 796v-155h-225q63 -55 100 -123t37 -156q0 -106 -41.5 -179.5t-112 -119.5t-162.5 -66.5t-194 -20.5q-35 0 -84.5 5.5t-101.5 16t-98.5 26t-74.5 34.5v198q34 -30 81.5 -54t100 -40.5t105.5 -25.5t98 -9q156 0 232 57t76 166q0 52 -22 93t-60.5 75.5t-90 64
t-111.5 58.5h-507v155h237q-63 52 -100 118.5t-37 160.5q0 98 43 170t113 119.5t159.5 70.5t182.5 23q211 0 309 -51v-189q-127 88 -326 88q-56 0 -110.5 -11.5t-97.5 -37.5t-70 -67t-27 -100q0 -54 20 -94t58 -73t93.5 -63t126.5 -64h481z" />
    <glyph glyph-name="uni13A7" unicode="&#x13a7;" horiz-adv-x="1529" 
d="M84 650q0 75 15.5 152.5t54.5 140t105.5 102t168.5 39.5q83 0 146.5 -28t106 -78.5t64 -120.5t21.5 -153q0 -96 -33.5 -173.5t-82.5 -137.5t-104.5 -102t-100.5 -68q59 -46 135 -71t171 -25q129 0 224.5 44t158.5 122.5t94 185.5t31 233t-29 234.5t-89.5 188.5
t-154.5 125.5t-223 45.5q-84 0 -166 -21.5t-160 -64.5v179q67 29 154 44t184 15q156 0 278.5 -56t207 -153.5t129.5 -229.5t45 -284q0 -163 -44.5 -302t-131.5 -240.5t-214.5 -159t-293.5 -57.5q-158 0 -281.5 53t-209.5 144.5t-131 214t-45 262.5zM255 665q0 -101 26 -190
t77 -161q33 16 75.5 45t80 75.5t63.5 112t26 155.5q0 42 -9 87.5t-29.5 83.5t-53 63t-79.5 25q-56 0 -91 -28t-54 -71.5t-25.5 -96t-6.5 -100.5z" />
    <glyph glyph-name="uni13A8" unicode="&#x13a8;" horiz-adv-x="1071" 
d="M496 1434v-144h-140v-301q42 32 82 45.5t69 13.5q54 0 88.5 -15.5t54 -42t26.5 -61.5t7 -74q0 -30 -3 -61t-6.5 -61t-6.5 -58t-3 -52q0 -40 12.5 -64.5t47.5 -24.5q45 0 75 20t48.5 51t26 69t7.5 74q0 65 -19 108.5t-42 69.5q-26 31 -60 49l61 101q60 -21 108 -64
q20 -18 39.5 -43t34.5 -57.5t24.5 -72.5t9.5 -89q0 -81 -27 -147t-72 -113t-102.5 -72.5t-118.5 -25.5q-64 0 -104.5 17.5t-63 46.5t-30.5 68t-8 81q0 30 3 60.5t6 59.5t6 55.5t3 49.5q0 36 -11 58t-41 22q-39 0 -63 -34.5t-36.5 -88.5t-17 -119t-4.5 -126v-398h140v-144
h-448v144h140v1146h-140v144h448z" />
    <glyph glyph-name="uni13A9" unicode="&#x13a9;" horiz-adv-x="1174" 
d="M1162 1434l-443 -1001q-44 -99 -87.5 -182.5t-97 -145t-122 -96t-161.5 -34.5q-108 0 -179 31v170q85 -51 166 -51q61 0 102 23.5t72.5 63t59 90.5t62.5 106l-486 1026h191l381 -859h2l360 859h180z" />
    <glyph glyph-name="uni13AA" unicode="&#x13aa;" horiz-adv-x="1321" 
d="M1298 0h-186l-152 402h-608l-143 -402h-187l550 1434h174zM905 553l-225 611q-11 30 -22 96h-4q-10 -61 -23 -96l-223 -611h497z" />
    <glyph glyph-name="uni13AB" unicode="&#x13ab;" horiz-adv-x="1097" 
d="M921 422q0 -93 -25 -174t-77 -141.5t-132.5 -95.5t-192.5 -35q-110 0 -190.5 37t-134 97.5t-79.5 137t-26 155.5h183q0 -52 13 -101.5t43 -88.5t78 -62.5t117 -23.5t117.5 23.5t79 63t44 92.5t13.5 113v1015h169v-1012z" />
    <glyph glyph-name="uni13AC" unicode="&#x13ac;" horiz-adv-x="1036" 
d="M948 0h-760v1434h728v-152h-560v-477h518v-151h-518v-502h592v-152z" />
    <glyph glyph-name="uni13AD" unicode="&#x13ad;" horiz-adv-x="1466" 
d="M550 1290v144h442v-144h-140v-437h594v-107l-558 -746h-198v720h-113q-8 -56 -28.5 -103.5t-55 -82.5t-83.5 -55t-114 -20q-73 0 -124.5 25.5t-84.5 68.5t-48 100.5t-15 120.5q0 66 16.5 125.5t51.5 104.5t88.5 71t127.5 26q60 0 106.5 -19.5t79.5 -53t53.5 -79
t28.5 -96.5h114v437h-140zM852 720v-538l402 538h-402zM302 984q-36 0 -62.5 -15.5t-44 -43t-25.5 -65t-8 -80.5t8.5 -80.5t25.5 -65t43.5 -43t62.5 -15.5t62.5 15.5t44 43t25.5 65t8 80.5q0 44 -8 81.5t-25.5 64.5t-44 42.5t-62.5 15.5z" />
    <glyph glyph-name="uni13AE" unicode="&#x13ae;" horiz-adv-x="1206" 
d="M612 798v-144h-140v-110q30 -11 61 -15.5t63 -4.5q85 0 150 29.5t109 81.5t66.5 123t22.5 154t-20.5 157t-64 130t-111.5 88.5t-163 32.5q-50 0 -94.5 -8t-83.5 -21.5t-72 -30.5t-60 -35q-63 -42 -111 -95v168q47 45 109 80q54 30 130 55t176 25q136 0 236 -41.5
t166 -116t98.5 -177.5t32.5 -225q0 -110 -34.5 -204t-98 -162.5t-153.5 -107t-202 -38.5q-82 0 -152 18v-260h140v-144h-448v144h140v510h-140v144h448z" />
    <glyph glyph-name="uni13AF" unicode="&#x13af;" horiz-adv-x="1441" 
d="M2 156q52 -29 113 -29q58 0 98.5 40.5t68.5 108.5t46 158t31.5 189.5t26 202.5t29.5 196q19 106 59 187.5t98 137t132.5 83.5t162.5 28q450 0 450 -735q0 -60 -3 -138.5t-15 -161.5t-37 -163t-69.5 -143t-111 -101.5t-162.5 -38.5q-79 0 -137 21v158q52 -29 113 -29
q81 0 130.5 41t76.5 111t36 163.5t10 198.5h-625q-11 -78 -24.5 -157.5t-34 -153.5t-49 -138t-67.5 -112t-90.5 -75.5t-118.5 -27.5q-79 0 -137 21v158zM858 1319q-111 0 -180.5 -83.5t-104.5 -244.5q-9 -40 -15.5 -89.5t-14.5 -105.5h604q-19 523 -289 523z" />
    <glyph glyph-name="uni13B0" unicode="&#x13b0;" horiz-adv-x="938" 
d="M356 1434v-648h518v-151h-518v-635h-168v1434h168z" />
    <glyph glyph-name="uni13B1" unicode="&#x13b1;" horiz-adv-x="966" 
d="M932 1278h-575v-1278h-169v1434h744v-156z" />
    <glyph glyph-name="uni13B2" unicode="&#x13b2;" horiz-adv-x="1758" 
d="M482 114q118 0 232 70q-65 62 -121 141.5t-97 175.5t-64.5 208.5t-23.5 240.5q0 102 29.5 194t84 161.5t132 111t174.5 41.5t174.5 -41.5t132 -111t84 -161.5t29.5 -194q0 -129 -23 -241.5t-63 -208.5t-95.5 -175.5t-119.5 -141.5q113 -69 227 -69q64 0 111.5 24.5
t79 67.5t46.5 102t15 128h-140v144h448v-144h-140q0 -54 -9.5 -109.5t-30.5 -106.5t-54 -95.5t-80 -77.5t-108.5 -52t-139.5 -19q-81 0 -168 28.5t-172 85.5q-85 -57 -174 -85.5t-174 -28.5q-78 0 -139 19t-107.5 52t-79.5 77.5t-54 95.5t-30.5 106.5t-9.5 109.5h168
q0 -69 15 -128t45.5 -102t77.5 -67.5t112 -24.5zM1072 960q0 52 -13.5 112.5t-43 112.5t-75.5 86.5t-112 34.5t-112 -34.5t-75.5 -86.5t-43 -112.5t-13.5 -112.5q0 -114 18.5 -215t51.5 -187t77.5 -156.5t97.5 -124.5q52 54 97 124.5t77 156.5t50.5 187t18.5 215z" />
    <glyph glyph-name="uni13B3" unicode="&#x13b3;" horiz-adv-x="1913" 
d="M1888 1434l-405 -1434h-197l-295 1048q-19 67 -23 146h-4q-6 -74 -26 -144l-297 -1050h-195l-420 1434h185l305 -1100q19 -69 24 -144h5q5 53 31 144l317 1100h161l304 -1108q16 -57 24 -134h4q4 52 27 138l293 1104h182z" />
    <glyph glyph-name="uni13B4" unicode="&#x13b4;" horiz-adv-x="1228" 
d="M984 434q0 -101 -31 -185t-89 -145t-140 -94.5t-184 -33.5q-103 0 -185.5 33.5t-140.5 94.5t-89 145t-31 185t31 185t89 145t140.5 94.5t185.5 33.5q93 0 171 -29q-28 100 -45.5 197t-17.5 178q0 72 27 127.5t74 93t111.5 56.5t139.5 19q42 0 79.5 -7.5t66.5 -15.5
q33 -11 62 -23v-166q-33 20 -70 37q-32 14 -73.5 25.5t-86.5 11.5q-46 0 -77 -13.5t-50 -36.5t-27 -52.5t-8 -61.5q0 -56 9 -116.5t22.5 -122t31 -121t34 -113t30.5 -98.5t22 -77q9 -35 14 -72.5t5 -77.5zM816 434q0 64 -18 122t-53.5 102t-87.5 70t-119 26t-118.5 -26
t-86.5 -70t-53 -102t-18 -122t18 -122t53 -102t86.5 -70t118.5 -26t119 26t87.5 70t53.5 102t18 122z" />
    <glyph glyph-name="uni13B5" unicode="&#x13b5;" horiz-adv-x="1228" 
d="M925 796q23 38 34 88.5t11 113.5q0 71 -20.5 124t-58.5 88.5t-91 53.5t-117 18q-84 0 -145.5 -32t-102 -85t-60 -120.5t-19.5 -138.5v-906h-168v914q0 122 37.5 218.5t103.5 163.5t156.5 102.5t197.5 35.5q95 0 179.5 -26t147.5 -79t99.5 -133.5t36.5 -189.5
q0 -45 -7 -87t-18.5 -79.5t-25.5 -69.5t-28 -57z" />
    <glyph glyph-name="uni13B6" unicode="&#x13b6;" horiz-adv-x="1466" 
d="M991 474h-144v448h144v-155q39 0 83 -6.5t87.5 -22.5t83.5 -42.5t70.5 -66.5t48.5 -95.5t18 -128.5q0 -84 -28 -148t-73.5 -112t-104 -80t-120 -52t-120.5 -28.5t-106 -8.5q-179 0 -316.5 54t-230.5 150t-141 228.5t-48 289.5q0 163 55 302t154 241t235.5 159.5
t299.5 57.5q235 0 393 -76v-186q-175 110 -412 110q-126 0 -228 -46.5t-173 -127.5t-109.5 -189.5t-38.5 -232.5q0 -128 34 -235t103.5 -184t175 -120.5t248.5 -43.5q28 0 67.5 4.5t82 15.5t85 30.5t76 50.5t54 74t20.5 101q0 53 -18 93.5t-49 67.5t-72 41t-86 14v-145z" />
    <glyph glyph-name="uni13B7" unicode="&#x13b7;" horiz-adv-x="1839" 
d="M1650 0h-167v962q0 114 14 279h-4q-24 -97 -43 -139l-490 -1102h-82l-489 1094q-21 48 -43 147h-4q8 -86 8 -281v-960h-162v1434h222l440 -1000q51 -115 66 -172h6q43 118 69 176l449 996h210v-1434z" />
    <glyph glyph-name="uni13B8" unicode="&#x13b8;" horiz-adv-x="987" 
d="M238 524h-144v448h144v-150q29 16 66 29.5t69 13.5q29 0 53.5 -16.5t47 -36t44.5 -36t48 -16.5q29 0 62 15.5t61 34.5v71q0 213 -80 319.5t-259 106.5q-52 0 -98 -7.5t-81 -16.5q-41 -11 -77 -23v169q29 8 66 14q32 5 75 10t97 5q272 0 398.5 -151t126.5 -453v-854h-168
v666q-15 -8 -31.5 -16.5t-34 -15.5t-34 -11t-31.5 -4q-32 0 -60.5 16.5t-53.5 36t-45 36t-35 16.5q-24 0 -59 -16t-67 -34v-150z" />
    <glyph glyph-name="uni13B9" unicode="&#x13b9;" horiz-adv-x="1847" 
d="M833 910q-77 0 -147 -27.5t-128 -77.5q67 -15 126.5 -49.5t104.5 -89.5t71 -133t26 -180q0 -83 -20.5 -152.5t-60 -119.5t-97.5 -77.5t-133 -27.5q-96 0 -163 37.5t-109.5 97.5t-61.5 135t-19 150q0 73 11 138t32 122q-49 -20 -91 -52t-72 -76l-92 83q24 39 60 72.5
t80.5 59t95 43t103.5 25.5q82 107 203.5 166t262.5 67v246h-140v144h448v-144h-140v-246q0 -83 15 -139t40.5 -89.5t59 -47.5t69.5 -14q38 0 73.5 14t70.5 35.5t70.5 46t73 46t78.5 35.5t88 14q39 0 79 -13t72 -28q38 -18 73 -40v-148q-33 25 -69 44q-31 17 -69.5 30.5
t-77.5 13.5q-35 0 -68 -14t-67.5 -35.5t-70 -46t-75.5 -46t-84.5 -35.5t-96.5 -14q-53 0 -95.5 12.5t-76 33.5t-58.5 47.5t-43 54.5q-42 65 -61 149zM390 416q0 -48 8.5 -104t30 -103t58 -78.5t92.5 -31.5q41 0 69 23t45.5 59t25 79.5t7.5 85.5q0 81 -22 141.5t-58.5 101.5
t-85 64.5t-101.5 29.5q-33 -57 -51 -124t-18 -143z" />
    <glyph glyph-name="uni13BA" unicode="&#x13ba;" horiz-adv-x="1584" 
d="M1396 1434v-1434h-168v635h-167q-4 -84 -17 -165.5t-37.5 -154.5t-62 -135.5t-90.5 -107.5t-122.5 -70.5t-157.5 -25.5q-91 0 -160 29t-120.5 79.5t-86 119t-55 147.5t-29.5 165t-9 172q0 190 33 334t96 241t154.5 146t208.5 49q215 0 331 -168t126 -504h165v648h168z
M597 1306q-154 0 -230.5 -149.5t-76.5 -460.5q0 -291 75 -430t226 -139q148 0 222.5 141.5t74.5 437.5q0 307 -73 453.5t-218 146.5z" />
    <glyph glyph-name="uni13BB" unicode="&#x13bb;" horiz-adv-x="1454" 
d="M1266 0h-168v654h-742v-654h-168v1434h168v-629h742v629h168v-1434z" />
    <glyph glyph-name="uni13BC" unicode="&#x13bc;" horiz-adv-x="1028" 
d="M654 1434v-144h-140v-252q99 -18 177 -65.5t132 -119.5t82.5 -164.5t28.5 -200.5q0 -111 -34 -204.5t-97.5 -162t-154 -107t-202.5 -38.5q-41 0 -84.5 4.5t-86 13.5t-81 22t-68.5 31v156q30 -22 66.5 -38.5t75.5 -28t78 -17t72 -5.5q85 0 150 29.5t109 81t66.5 122.5
t22.5 155q0 83 -24 157.5t-69.5 130t-112.5 88t-152 32.5q-33 0 -70.5 -5t-75.5 -15t-74 -25t-64 -35v168q42 20 102 31.5t120 16.5v244h-140v144h448z" />
    <glyph glyph-name="uni13BD" unicode="&#x13bd;" horiz-adv-x="1572" 
d="M1558 1434v-144h-141l-379 -857q-44 -99 -87.5 -182.5t-97 -145t-122 -96t-161.5 -34.5q-78 0 -139.5 19t-108.5 52t-80 77.5t-54 95.5t-30.5 106.5t-9.5 109.5h-140v144h448v-144h-140q0 -69 16.5 -126t47 -98t75.5 -63.5t102 -22.5q61 0 102 23.5t72.5 63t59 90.5
t62.5 106l-486 1026h191l381 -859h2l299 715h-130v144h448z" />
    <glyph glyph-name="uni13BE" unicode="&#x13be;" horiz-adv-x="1544" 
d="M766 -24q-305 0 -488.5 201t-183.5 523q0 346 187 552t509 206q297 0 478.5 -200t181.5 -523q0 -351 -186 -555t-498 -204zM1270 792q-18 245 -147.5 379.5t-344.5 134.5q-208 0 -345 -140t-159 -374h996zM1270 637h-996q21 -234 155 -372t337 -138q220 0 352.5 133.5
t151.5 376.5z" />
    <glyph glyph-name="uni13BF" unicode="&#x13bf;" horiz-adv-x="1128" 
d="M641 520h444v-144h-140v-333q0 -87 -17 -152.5t-44.5 -114.5t-62.5 -82.5t-72 -55.5q-86 -52 -196 -60v140q36 4 61 12.5t54.5 27t54.5 51.5t41.5 83.5t16.5 123.5v63q-45 -46 -102.5 -73.5t-131.5 -27.5q-75 0 -135.5 23.5t-103.5 66.5t-66 104t-23 136v576h-176v140
h176v250l164 53v-303h258v-140h-258v-547q0 -51 14.5 -92t39.5 -69.5t59.5 -44t75.5 -15.5q35 0 72 15.5t67.5 44t50 69.5t19.5 92v39h-140v144z" />
    <glyph glyph-name="uni13C0" unicode="&#x13c0;" horiz-adv-x="1405" 
d="M1260 98q-216 -122 -480 -122q-307 0 -496.5 198t-189.5 524q0 333 210.5 546.5t533.5 213.5q234 0 393 -76v-186q-174 110 -412 110q-241 0 -395 -166t-154 -430q0 -272 143 -427.5t388 -155.5q168 0 291 67v402h-314v152h482v-650z" />
    <glyph glyph-name="uni13C1" unicode="&#x13c1;" horiz-adv-x="1491" 
d="M1325 0h-168v836q0 126 -16 217t-50.5 150.5t-89 87.5t-130.5 28q-111 0 -183 -83.5t-107 -244.5q-12 -55 -21 -127.5t-19.5 -154.5t-23.5 -168t-33 -167t-48 -153.5t-68.5 -126.5t-94.5 -85.5t-126 -31.5q-79 0 -137 21v158q52 -29 113 -29q58 0 98.5 40.5t68.5 108.5
t46 158t31.5 189.5t26 202.5t29.5 196q19 106 60 187.5t99.5 137t134 83.5t163.5 28q117 0 201 -36t138.5 -112.5t80 -197t25.5 -289.5v-823z" />
    <glyph glyph-name="uni13C2" unicode="&#x13c2;" horiz-adv-x="1354" 
d="M1188 0h-168v530q0 232 -245 232q-178 0 -406 -110v-652h-168v1434h168v-646q229 122 426 122q93 0 166 -25t123.5 -72.5t77 -116.5t26.5 -158v-538z" />
    <glyph glyph-name="uni13C3" unicode="&#x13c3;" horiz-adv-x="1168" 
d="M1124 1394l-840 -1242h820v-152h-1071v47l833 1235h-766v152h1024v-40z" />
    <glyph glyph-name="uni13C4" unicode="&#x13c4;" horiz-adv-x="1278" 
d="M40 1066v144h138q16 47 52.5 92t90.5 79.5t126 55.5t160 21q136 0 232 -37.5t156.5 -113t88.5 -189t28 -264.5v-854h-168v458h-342q-110 0 -189.5 21t-131 61t-76.5 97.5t-25 130.5h-140v144h448v-144h-140q0 -57 23 -88.5t59 -46t80.5 -17.5t88.5 -3h345v268
q0 213 -79 319.5t-258 106.5q-46 0 -84.5 -10t-68.5 -24.5t-51.5 -31.5t-33.5 -31h119v-144h-448z" />
    <glyph glyph-name="uni13C5" unicode="&#x13c5;" horiz-adv-x="1763" 
d="M564 -24q-91 0 -160 29t-120.5 79.5t-86 119t-55 147.5t-29.5 165t-9 172q0 190 33 334t96 241t154.5 146t208.5 49q181 0 291 -117t148 -353q20 19 41.5 31t43 18.5t41.5 8.5t38 2q54 0 88.5 -15.5t54 -42t26.5 -61.5t7 -74q0 -30 -3 -61t-6.5 -61t-6.5 -58t-3 -52
q0 -40 12.5 -64.5t47.5 -24.5q45 0 75 20t48.5 51t26 69t7.5 74q0 65 -19 108.5t-42 69.5q-26 31 -60 49l61 101q60 -21 108 -64q20 -18 39.5 -43t34.5 -57.5t24.5 -72.5t9.5 -89q0 -81 -27 -147t-72 -113t-102.5 -72.5t-118.5 -25.5q-64 0 -104.5 17.5t-63 46.5t-30.5 68
t-8 81q0 30 3 60.5t6 59.5t6 55.5t3 49.5q0 36 -11 58t-41 22q-29 0 -48.5 -12.5t-32.5 -31.5t-20 -42t-10 -43.5t-3.5 -36.5t-0.5 -21q0 -91 -9.5 -182t-32 -174t-59 -154.5t-91 -124t-128.5 -82.5t-170 -30zM587 1306q-154 0 -230.5 -149.5t-76.5 -460.5q0 -291 75 -430
t226 -139q148 0 222.5 141.5t74.5 437.5q0 307 -73 453.5t-218 146.5z" />
    <glyph glyph-name="uni13C6" unicode="&#x13c6;" horiz-adv-x="1073" 
d="M1036 0h-995v152h413v1130h-413v152h995v-152h-414v-1130h414v-152z" />
    <glyph glyph-name="uni13C7" unicode="&#x13c7;" horiz-adv-x="2079" 
d="M1064 733v-459q26 -41 67 -74q35 -28 90 -50.5t134 -22.5q127 0 214 44t140 122.5t76.5 185.5t23.5 233t-33.5 234.5t-100 188.5t-165 125.5t-227.5 45.5q-58 0 -106.5 -11t-88.5 -29.5t-72 -42t-57 -47.5q-58 -57 -93 -129l-150 71q38 95 115 170q33 32 76.5 62.5
t100.5 54.5t128.5 38.5t158.5 14.5q156 0 283 -56t217.5 -153.5t140 -229.5t49.5 -284q0 -163 -37 -302t-114 -240.5t-197 -159t-286 -57.5q-92 0 -162.5 24.5t-118.5 53.5q-56 34 -98 78q-46 -44 -108 -78q-53 -29 -128.5 -53.5t-171.5 -24.5q-111 0 -200 36t-151.5 101.5
t-95.5 157.5t-33 205q0 54 12.5 110.5t39 113t67 109.5t96.5 99l117 -115q-87 -67 -125.5 -150t-38.5 -181q0 -76 25 -137.5t69.5 -105.5t105.5 -68t133 -24q75 0 133 22.5t98 50.5q47 33 80 74v459h168z" />
    <glyph glyph-name="uni13C8" unicode="&#x13c8;" horiz-adv-x="1826" 
d="M482 1320q-65 0 -112 -24.5t-77.5 -67.5t-45.5 -102t-15 -128h-168q0 54 9.5 109.5t30.5 106.5t54 95.5t79.5 77.5t108 52t138.5 19q85 0 169.5 -25t165.5 -75q168 100 373 100q150 0 257.5 -36.5t177 -96t102.5 -135.5t33 -155q0 -77 -29.5 -149.5t-85.5 -129.5
t-136.5 -91.5t-182.5 -34.5v168q60 0 106.5 20t79 53t49 75.5t16.5 88.5q0 52 -22.5 103t-69.5 91.5t-120 65.5t-173 25q-126 0 -242 -64q64 -62 118.5 -141.5t94 -176.5t61.5 -210.5t22 -243.5q0 -102 -29.5 -194t-84 -161.5t-132 -111t-174.5 -41.5t-174.5 41.5t-132 111
t-84 161.5t-29.5 194q0 130 19.5 244.5t56.5 212t88.5 177t116.5 141.5q-105 61 -207 61zM584 474q0 -52 13.5 -112.5t43 -112.5t75.5 -86.5t112 -34.5t112 34.5t75.5 86.5t43 112.5t13.5 112.5q0 114 -19 215t-52.5 187t-79.5 156t-99 124q-53 -54 -97 -124t-75.5 -156
t-48.5 -187t-17 -215z" />
    <glyph glyph-name="uni13C9" unicode="&#x13c9;" horiz-adv-x="2258" 
d="M1833 1064q20 -16 43 -27q20 -11 45 -19t51 -8q58 0 93 27t35 90q0 35 -10 60t-26 40.5t-37 23t-43 7.5q-40 0 -75 -21.5t-69.5 -54.5t-71 -72.5t-79 -75.5t-93.5 -64t-116 -38l-320 -932h-185l-421 1216q-27 -63 -56.5 -107.5t-64.5 -72t-78 -40.5t-97 -13
q-52 0 -97.5 16t-79 47.5t-52.5 77t-19 104.5q0 45 12 82t27 65q17 33 39 59l122 -46q-16 -20 -27 -43q-11 -20 -19 -45t-8 -51q0 -54 29 -86t78 -32q45 0 77 23t56 63.5t43 95t36 121.5h187l406 -1264l254 772q-44 11 -89.5 33.5t-82.5 58.5t-60.5 87t-23.5 119q0 45 17 85
t48.5 69.5t76 47t98.5 17.5q56 0 101.5 -15.5t77.5 -47t49 -78t17 -109.5q0 -23 -6 -52.5t-14 -61.5q39 19 73.5 49.5t67.5 64t66 67.5t70.5 61.5t80.5 44.5t95 17q60 0 109 -20t83.5 -55t53 -84.5t18.5 -107.5q0 -62 -18 -112t-51 -84.5t-80 -53t-106 -18.5q-45 0 -82 12
t-65 27q-33 17 -59 39zM1375 1103q7 22 13 50t6 54q0 54 -26.5 85.5t-64.5 31.5q-20 0 -35.5 -8.5t-26.5 -21.5t-16.5 -29.5t-5.5 -32.5q0 -37 12.5 -64.5t33 -46.5t46.5 -30.5t54 -16.5z" />
    <glyph glyph-name="uni13CA" unicode="&#x13ca;" horiz-adv-x="2130" 
d="M1388 910q-81 0 -147.5 -31t-113 -84.5t-72 -124.5t-25.5 -152q0 -80 23 -151t69 -124.5t114.5 -84.5t159.5 -31q119 0 206.5 45t144.5 122t85 179.5t28 218.5q0 126 -35 237.5t-103.5 195.5t-168.5 132.5t-229 48.5v152q166 0 298 -60.5t224 -163t141 -237t49 -282.5
q0 -151 -38.5 -285t-117.5 -235t-200.5 -160t-287.5 -59q-110 0 -202.5 35t-162.5 98q-76 -63 -176.5 -98t-228.5 -35q-116 0 -213.5 39.5t-168 109.5t-109.5 166t-39 209q0 122 37.5 223t106.5 173t167 112t220 40v-148q-81 0 -148 -29.5t-115 -81t-74 -121t-26 -150.5
q0 -80 23 -151t69 -124.5t114.5 -84.5t159.5 -31q96 0 170.5 28.5t130.5 80.5q-32 58 -48.5 124t-16.5 140q0 122 37.5 223t107 173t167.5 112t220 40q133 0 238 -50v-168q-115 80 -244 80z" />
    <glyph glyph-name="uni13CB" unicode="&#x13cb;" horiz-adv-x="1143" 
d="M647 831v-139h-29q-83 0 -147 -20.5t-107.5 -58.5t-66 -93t-22.5 -124q0 -71 27.5 -123.5t73 -86.5t103.5 -50.5t119 -16.5q93 0 151 17t91 43.5t44.5 59.5t11.5 65q0 22 -10.5 47t-30.5 46t-50 35t-70 14v148q88 0 149.5 -27.5t100.5 -70.5t56.5 -94.5t17.5 -100.5
q0 -53 -21 -110.5t-73 -105t-140 -78.5t-221 -31q-94 0 -185 25.5t-163 78.5t-116 134t-44 192q0 65 24.5 128t66.5 113t99 83.5t122 39.5v4q-61 18 -109.5 48t-82.5 72t-52 97t-18 125q0 90 35.5 155t96 106.5t140 61t166.5 19.5q207 0 364 -88v-170q-170 113 -350 113
q-58 0 -107.5 -13.5t-86 -41.5t-57.5 -71t-21 -102q0 -63 23 -110.5t63.5 -79.5t96.5 -48t121 -16h17z" />
    <glyph glyph-name="uni13CC" unicode="&#x13cc;" horiz-adv-x="1407" 
d="M1237 580q0 -604 -545 -604q-522 0 -522 581v877h168v-629h731v629h168v-854zM710 127q359 0 359 426v101h-731v-86q0 -441 372 -441z" />
    <glyph glyph-name="uni13CD" unicode="&#x13cd;" horiz-adv-x="2019" 
d="M606 1118q41 95 118 170q33 32 77 62.5t101 54.5t127 38.5t156 14.5q104 0 199 -26.5t177.5 -76t149.5 -120t114.5 -157.5t73.5 -188.5t26 -214.5q0 -147 -34 -274.5t-99 -222t-160 -148.5t-217 -54q-93 0 -165 26.5t-122.5 75.5t-80 117.5t-36.5 152.5h-256
q-8 -71 -33.5 -138t-68 -119t-103 -83.5t-139.5 -31.5q-88 0 -153 40t-108 103t-64.5 141.5t-21.5 156.5t21.5 155.5t64.5 140t108 101.5t153 39q77 0 137 -30.5t102.5 -81t68.5 -115.5t35 -134h254v217h-140v144h448v-144h-140v-288q0 -68 15 -124t45.5 -95.5t76 -61
t106.5 -21.5q84 0 146 43.5t103 116.5t61 169.5t20 203.5q0 145 -41.5 265t-117 206.5t-182 134.5t-235.5 48q-57 0 -105 -11t-88 -29.5t-72 -42t-57 -47.5q-59 -57 -95 -129zM591 413q0 56 -11 109t-33 94t-55.5 65.5t-79.5 24.5t-80 -24t-56 -64.5t-33 -93t-11 -108.5
q0 -57 11 -110t33 -93.5t56 -65t80 -24.5t79.5 24t55.5 64.5t33 93t11 108.5z" />
    <glyph glyph-name="uni13CE" unicode="&#x13ce;" horiz-adv-x="1104" 
d="M1034 381h-184v-381h-162v381h-674v107l638 946h198v-920h184v-133zM688 514v620q0 66 4 148h-4q-14 -36 -55 -110l-441 -658h496z" />
    <glyph glyph-name="uni13CF" unicode="&#x13cf;" horiz-adv-x="1180" 
d="M188 0v1434h168v-608h272q214 0 333 -103.5t119 -294.5q0 -198 -125 -313t-341 -115h-426zM356 674v-522h236q149 0 230 70t81 196q0 256 -311 256h-236z" />
    <glyph glyph-name="uni13D0" unicode="&#x13d0;" horiz-adv-x="1014" 
d="M729 748q-26 0 -63.5 -15t-87.5 -44v-545h140v-144h-448v144h140v454q-32 -12 -64 -19t-61 -7q-63 0 -111.5 18t-81.5 51t-50.5 79t-17.5 102q0 26 4.5 50t9.5 42q6 21 15 38h156q-14 -20 -25 -41q-10 -18 -17.5 -41.5t-7.5 -47.5q0 -56 31 -86t95 -30q23 0 55.5 9.5
t69.5 29.5v545h-140v144h448v-144h-140v-446q85 38 151 38q63 0 111.5 -18t81.5 -51t50.5 -79t17.5 -102q0 -27 -5 -50.5t-10 -41.5q-6 -21 -14 -38h-156q14 20 25 41q9 18 17 41t8 48q0 56 -31 86t-95 30z" />
    <glyph glyph-name="uni13D1" unicode="&#x13d1;" horiz-adv-x="1416" 
d="M1258 1097q-4 39 -20 70q-7 13 -17 26t-24 23t-32.5 16t-42.5 6q-46 0 -79 -27.5t-62.5 -69.5t-60.5 -90t-74 -90t-102 -69.5t-144 -27.5q-24 0 -46.5 1.5t-45.5 5.5q-39 -50 -78 -103.5t-70 -110.5t-50.5 -119t-19.5 -129q0 -60 17 -111.5t52 -89.5t88.5 -59.5
t126.5 -21.5q72 0 125 22.5t87.5 60t51.5 86t17 100.5q0 46 -15 85.5t-43.5 68.5t-69.5 46t-93 17v168q92 0 167 -31.5t127.5 -85t81 -123t28.5 -145.5q0 -79 -29.5 -154.5t-87.5 -134.5t-144 -95t-199 -36q-115 0 -201.5 33.5t-145 92t-88 138t-29.5 172.5q0 83 23.5 154.5
t60.5 134t81.5 117t85.5 102.5q-86 46 -138.5 126.5t-52.5 193.5q0 45 17 85t48.5 69.5t76 47t98.5 17.5q56 0 101.5 -15.5t77.5 -47t49 -78t17 -109.5q0 -56 -18.5 -107.5t-47.5 -102.5q69 0 112 28t76.5 70.5t63.5 91.5t67 91.5t87 70.5t123 28q48 0 86 -12t67 -31.5
t50 -44.5t36 -51q34 -61 45 -143h-148zM502 1207q0 54 -26.5 85.5t-64.5 31.5q-20 0 -35.5 -8.5t-26.5 -21.5t-16.5 -29.5t-5.5 -32.5q0 -63 27 -117.5t90 -85.5q26 43 42 86.5t16 91.5z" />
    <glyph glyph-name="uni13D2" unicode="&#x13d2;" horiz-adv-x="1225" 
d="M188 0v1434h428q94 0 173.5 -23.5t138 -71.5t91.5 -119.5t33 -167.5q0 -56 -12.5 -103t-32.5 -85t-45.5 -68t-52.5 -53q-62 -54 -142 -85l449 -658h-200l-405 610v152q53 0 101 19t84.5 54.5t58 86.5t21.5 116q0 115 -74 179.5t-216 64.5h-230v-1282h-168z" />
    <glyph glyph-name="uni13D3" unicode="&#x13d3;" horiz-adv-x="1097" 
d="M176 1434h169v-1015q0 -60 13.5 -113t44 -92.5t79 -63t117.5 -23.5t117 23.5t78 62.5t43 88.5t13 101.5h183q0 -79 -26 -155.5t-79.5 -137t-134.5 -97.5t-190 -37q-112 0 -192.5 35t-132.5 95.5t-77 141.5t-25 174v1012z" />
    <glyph glyph-name="uni13D4" unicode="&#x13d4;" horiz-adv-x="1666" 
d="M25 1434h185l369 -1244l173 598l-207 646h185l106 -358l103 356h182l-200 -643l178 -599l360 1242h182l-445 -1432h-191l-167 520l-162 -520h-191z" />
    <glyph glyph-name="uni13D5" unicode="&#x13d5;" horiz-adv-x="1148" 
d="M1138 1170v-144h-331q-4 78 -33 140q-12 26 -31.5 51.5t-47 45t-65 31.5t-86.5 12q-45 0 -89 -11.5t-78.5 -37.5t-56 -67t-21.5 -100q0 -54 19.5 -93t58 -72t94 -63.5t127.5 -65.5h540v-155h-287q63 -55 101 -122.5t38 -156.5q0 -106 -41.5 -179.5t-112 -119.5
t-162.5 -66.5t-194 -20.5q-35 0 -84.5 5.5t-101.5 16t-98.5 26t-74.5 34.5v198q34 -30 81.5 -54t100 -40.5t105.5 -25.5t98 -9q156 0 232 57t76 166q0 58 -24 100.5t-68 78t-105.5 68t-137.5 69.5q-75 37 -140 75.5t-113 86t-75.5 107.5t-27.5 140q0 98 36.5 170t96.5 119.5
t137 70.5t158 23q71 0 127 -17t99 -43.5t73.5 -59t51 -64.5t32.5 -60t17 -44h187z" />
    <glyph glyph-name="uni13D6" unicode="&#x13d6;" horiz-adv-x="1530" 
d="M609 1278h-575v156h744v-1015q0 -60 13.5 -113t44 -92.5t79 -63t117.5 -23.5t117 23.5t78 62.5t43 88.5t13 101.5q0 46 -15 87.5t-43.5 73t-69.5 50.5t-93 19v168q92 0 167 -33.5t127.5 -89t81 -127.5t28.5 -148q0 -79 -26 -155.5t-79.5 -137t-134.5 -97.5t-190 -37
q-112 0 -192.5 35t-132.5 95.5t-77 141.5t-25 174v856z" />
    <glyph glyph-name="uni13D7" unicode="&#x13d7;" horiz-adv-x="1169" 
d="M981 0h-164v341q-19 -59 -53 -123.5t-83 -118t-113 -88.5t-143 -35q-77 0 -132.5 17t-94.5 45t-63 65.5t-38 78.5t-18.5 83.5t-4.5 80.5h168q0 -43 8 -82.5t28 -70t53 -48.5t84 -18q56 0 108 32.5t96.5 88t81 130t62.5 158.5t40 173t14 173v552h164v-1434z" />
    <glyph glyph-name="uni13D8" unicode="&#x13d8;" horiz-adv-x="1169" 
d="M981 0h-164v341q-19 -59 -53 -123.5t-83 -118t-113 -88.5t-143 -35q-77 0 -132.5 17t-94.5 45t-63 65.5t-38 78.5t-18.5 83.5t-4.5 80.5h168q0 -43 8 -82.5t28 -70t53 -48.5t84 -18q56 0 108 32.5t96.5 88t81 130t62.5 158.5t40 173t14 173v396h-575v156h739v-1434z" />
    <glyph glyph-name="uni13D9" unicode="&#x13d9;" horiz-adv-x="1272" 
d="M1254 1434l-531 -1434h-185l-520 1434h187l397 -1137q19 -55 29 -127h4q8 60 33 129l405 1135h181z" />
    <glyph glyph-name="uni13DA" unicode="&#x13da;" horiz-adv-x="1088" 
d="M121 58v198q34 -30 81.5 -54t100 -40.5t105.5 -25.5t98 -9q155 0 231.5 57.5t76.5 165.5q0 58 -25.5 101t-70.5 78.5t-106.5 68t-132.5 68.5q-75 38 -140 77t-113 86t-75.5 106.5t-27.5 139.5q0 98 43 170.5t113 119.5t159.5 70t182.5 23q212 0 309 -51v-189
q-127 88 -326 88q-55 0 -110 -11.5t-98 -37.5t-70 -67t-27 -100q0 -55 20.5 -95t60.5 -73t97.5 -64t132.5 -68q77 -38 146 -80t121 -93t82.5 -113t30.5 -142q0 -106 -41.5 -179.5t-112 -119.5t-162.5 -66.5t-194 -20.5q-34 0 -84 5.5t-102 16t-98.5 26t-74.5 34.5z" />
    <glyph glyph-name="uni13DB" unicode="&#x13db;" horiz-adv-x="1763" 
d="M812 1307q-97 0 -189 -46q66 -60 123 -137t99 -172.5t65.5 -212t23.5 -255.5q0 -102 -29.5 -194t-84 -161.5t-132 -111t-174.5 -41.5q-101 0 -179 41.5t-131.5 111t-81.5 161.5t-28 194q0 156 27.5 289t76 241t115.5 191t146 139t168 85t181 29q83 0 144 -24t102 -53
q42 29 104 53t144 24q109 0 185 -34t123 -90.5t68 -128.5t21 -147q0 -40 -7.5 -76.5t-20 -69.5t-28.5 -62t-32 -53q-39 -56 -87 -101l-117 115q35 27 62 65q23 32 42.5 78.5t19.5 107.5q0 62 -18.5 108t-50.5 76.5t-74.5 45.5t-89.5 15q-57 0 -102.5 -19.5t-77.5 -42.5
q-37 -27 -65 -62q-28 35 -64 62q-31 23 -75.5 42.5t-101.5 19.5zM270 474q0 -52 13 -112.5t42 -112.5t75.5 -86.5t113.5 -34.5q66 0 112 34.5t75.5 86.5t43 112.5t13.5 112.5q0 126 -19.5 231t-53.5 191.5t-81.5 154.5t-102.5 120q-52 -51 -94.5 -121t-73 -158t-47 -192.5
t-16.5 -225.5z" />
    <glyph glyph-name="uni13DC" unicode="&#x13dc;" horiz-adv-x="1600" 
d="M800 1458q66 0 123 -19.5t98.5 -55.5t65.5 -86.5t24 -112.5q0 -41 -12 -77.5t-33.5 -68.5t-52 -61t-66.5 -55q53 -30 117.5 -64.5t130 -75t127 -88.5t109 -104t76.5 -122t29 -143q0 -75 -23 -139t-66 -110.5t-105 -73t-140 -26.5q-59 0 -118 22t-105.5 65t-75.5 106.5
t-29 146.5q0 72 17 130.5t44.5 105t62 81t68.5 59.5q-65 37 -133 71t-133 69q-66 -35 -134 -69t-133 -71q34 -25 68.5 -59.5t62 -81t45 -105t17.5 -130.5q0 -83 -29 -146.5t-75.5 -106.5t-105.5 -65t-118 -22q-78 0 -140 26.5t-105 73t-66 110.5t-23 139q0 77 27 141.5
t72 119.5t104.5 102t125 87.5t132.5 76.5t128 70q-36 26 -66.5 55t-52 61t-33.5 68.5t-12 77.5q0 62 24 112.5t65.5 86.5t98.5 55.5t123 19.5zM235 325q0 -48 11 -89.5t32 -72t52 -47.5t72 -17q34 0 63 18.5t51 49.5t34.5 70t12.5 81q0 59 -14 105t-36.5 81.5t-51 61
t-57.5 43.5q-75 -56 -122 -125t-47 -159zM1037 318q0 -42 12.5 -81t34 -70t51 -49.5t63.5 -18.5q41 0 72 17t52 47.5t32 72t11 89.5q0 45 -12.5 84.5t-35 74.5t-53.5 66t-68 59q-29 -18 -57.5 -43.5t-51 -61t-36.5 -81.5t-14 -105zM943 1188q0 30 -11 54.5t-30 41.5t-45 26
t-57 9t-57 -9t-45 -26t-30 -41.5t-11 -54.5q0 -52 39 -96t104 -86q64 42 103.5 86t39.5 96z" />
    <glyph glyph-name="uni13DD" unicode="&#x13dd;" horiz-adv-x="1026" 
d="M764 992q0 328 -202 328q-100 0 -153 -81.5t-53 -246.5v-840h576v-152h-744v998q0 230 97.5 345t276.5 115q183 0 276.5 -117t93.5 -349h-168z" />
    <glyph glyph-name="uni13DE" unicode="&#x13de;" horiz-adv-x="964" 
d="M932 0h-744v1434h168v-1282h576v-152z" />
    <glyph glyph-name="uni13DF" unicode="&#x13df;" horiz-adv-x="1268" 
d="M1164 60q-159 -84 -396 -84q-306 0 -490 197t-184 517q0 344 207 556t525 212q204 0 338 -59v-179q-154 86 -340 86q-247 0 -400.5 -165t-153.5 -441q0 -262 143.5 -417.5t376.5 -155.5q216 0 374 96v-163z" />
    <glyph glyph-name="uni13E0" unicode="&#x13e0;" horiz-adv-x="1438" 
d="M474 572h-118q-74 0 -131.5 19.5t-98 56t-61.5 89.5t-21 120q0 76 30 128.5t75 85.5t97.5 48t98.5 15q77 0 133 -26.5t92.5 -69t54 -97t17.5 -109.5v-108h408v710h168v-710h190v-152h-190v-136q0 -115 -25 -201.5t-73 -144t-117.5 -86t-158.5 -28.5q-183 0 -276.5 117
t-93.5 349v130zM642 442q0 -328 202 -328q100 0 153 81.5t53 246.5v130h-408v-130zM474 724v113q0 38 -10.5 65.5t-28 45.5t-41 26.5t-49.5 8.5q-28 0 -52.5 -9t-43 -25.5t-29 -40t-10.5 -51.5q0 -27 8 -51t25 -42.5t45 -29t68 -10.5h118z" />
    <glyph glyph-name="uni13E1" unicode="&#x13e1;" horiz-adv-x="1758" 
d="M1276 1320q-59 0 -117 -18t-115 -53q65 -62 121 -141.5t97 -175.5t64.5 -208t23.5 -240q0 -102 -29.5 -194t-84 -161.5t-132 -111t-174.5 -41.5t-174.5 41.5t-132 111t-84 161.5t-29.5 194q0 128 23 241t63 209t95 175.5t119 141.5q-113 69 -226 69q-65 0 -112 -24.5
t-78.5 -67.5t-46.5 -102t-15 -128h140v-144h-448v144h140q0 54 9.5 109.5t30.5 106.5t54 95.5t80 77.5t108.5 52t139.5 19q80 0 167.5 -28.5t172.5 -85.5q85 57 174 85.5t174 28.5q77 0 138.5 -19t108 -52t79.5 -77.5t54 -95.5t30.5 -106.5t9.5 -109.5h-168q0 69 -15 128
t-45.5 102t-78 67.5t-111.5 24.5zM686 474q0 -52 13.5 -112.5t43 -112.5t75.5 -86.5t112 -34.5t112 34.5t75.5 86.5t43 112.5t13.5 112.5q0 114 -18.5 215t-51.5 187t-78 156t-98 124q-53 -54 -97 -124t-76.5 -156t-50.5 -187t-18 -215z" />
    <glyph glyph-name="uni13E2" unicode="&#x13e2;" horiz-adv-x="1147" 
d="M356 542v-542h-168v1434h394q230 0 356.5 -112t126.5 -316t-140.5 -334t-379.5 -130h-189zM356 1282v-588h176q174 0 265.5 79.5t91.5 224.5q0 284 -336 284h-197z" />
    <glyph glyph-name="uni13E3" unicode="&#x13e3;" horiz-adv-x="1464" 
d="M876 1026v144h199q-8 12 -28.5 34.5t-56.5 45t-89.5 39.5t-126.5 17q-131 0 -226 -46.5t-157 -127.5t-91.5 -192t-29.5 -240q0 -122 41 -227t115 -182t177 -120.5t227 -43.5q54 0 112 7t115.5 21.5t112.5 36.5t104 51v-163q-45 -25 -101.5 -44t-117.5 -32.5t-124.5 -20.5
t-122.5 -7q-157 0 -288.5 53.5t-226 149t-147 226t-52.5 285.5q0 164 44.5 304.5t130.5 243.5t213 161.5t292 58.5q91 0 161 -18t123 -45.5t90.5 -61.5t62 -66t37.5 -58.5t18 -38.5h188v-144h-578z" />
    <glyph glyph-name="uni13E4" unicode="&#x13e4;" horiz-adv-x="1607" 
d="M1597 1434l-821 -1434h-168v1282h-576v152h744v-1128l630 1128h191z" />
    <glyph glyph-name="uni13E5" unicode="&#x13e5;" horiz-adv-x="1341" 
d="M712 983q56 27 122 46t138 19q75 0 135 -23.5t102.5 -67t65 -106.5t22.5 -142h-146q0 32 -7.5 65t-26 60t-49.5 44.5t-78 17.5v-896h-168v856l-466 -232v-624h-168v1434h168v-627z" />
    <glyph glyph-name="uni13E6" unicode="&#x13e6;" horiz-adv-x="1188" 
d="M1186 0h-234l-554 656q-31 37 -38 50h-4v-706h-168v1434h168v-674h4q14 22 38 49l536 625h209l-615 -688z" />
    <glyph glyph-name="uni13E7" unicode="&#x13e7;" horiz-adv-x="1150" 
d="M816 1434h168v-1000q0 -101 -31 -185t-89 -145t-140 -94.5t-184 -33.5q-103 0 -185.5 33.5t-140.5 94.5t-89 145t-31 185t31 185t89 145t140.5 94.5t185.5 33.5q83 0 152 -22t124 -63v627zM816 434q0 64 -18 122t-53.5 102t-87.5 70t-119 26t-118.5 -26t-86.5 -70
t-53 -102t-18 -122t18 -122t53 -102t86.5 -70t118.5 -26t119 26t87.5 70t53.5 102t18 122z" />
    <glyph glyph-name="uni13E8" unicode="&#x13e8;" horiz-adv-x="1871" 
d="M1393 467l74 -168l75 168h163l146 -272h-157l-70 161l-69 -161h-170l-53 108q-81 -167 -224 -247t-347 -80q-158 0 -282 58t-209.5 158t-130.5 235t-45 290q0 154 45 289.5t130.5 235.5t209.5 158t282 58q204 0 347 -80.5t224 -246.5l58 108h165l69 -161l70 161h157
l-146 -272h-163l-75 168l-74 -168h-170q-18 76 -60 138.5t-103 107.5t-137 69.5t-162 24.5q-124 0 -216.5 -47t-153.5 -127t-91 -187.5t-30 -228.5q0 -122 30 -229.5t91 -187.5t153.5 -126.5t216.5 -46.5q86 0 162 24.5t137 69.5t103 107.5t60 138.5h170z" />
    <glyph glyph-name="uni13E9" unicode="&#x13e9;" horiz-adv-x="1666" 
d="M1092 376h-140v144h448v-144h-140v-182q42 -31 91.5 -49t109.5 -18q38 0 73 7.5t62 16.5q32 11 60 25v-156q-28 -12 -61 -22q-28 -8 -63 -15t-72 -7q-53 0 -93.5 5t-74.5 14.5t-63.5 23.5t-60.5 33q-179 -76 -388 -76q-158 0 -285 54t-216 150t-137 228.5t-48 289.5
q0 163 55 302t154 241t235.5 159.5t299.5 57.5q235 0 393 -76v-186q-175 110 -412 110q-126 0 -228 -46.5t-173 -127.5t-109.5 -189.5t-38.5 -232.5q0 -128 34.5 -235t101.5 -184t166 -120.5t229 -43.5q169 0 291 67v182z" />
    <glyph glyph-name="uni13EA" unicode="&#x13ea;" horiz-adv-x="2211" 
d="M1402 127q106 0 190.5 35.5t148.5 96t108 142.5t68 175q-16 2 -57.5 10t-95 28t-111.5 55t-106.5 90t-80 133.5t-31.5 185.5q0 83 22 153t62.5 120.5t97 78.5t126.5 28q66 0 120 -25.5t95.5 -71t71.5 -108t49.5 -136t28.5 -156t9 -167.5q0 -177 -51.5 -326.5t-145 -259
t-225.5 -171t-293 -61.5q-129 0 -259.5 37.5t-248.5 111.5q-100 -74 -206.5 -111.5t-203.5 -37.5q-78 0 -139 19t-107.5 52t-79.5 77.5t-54 95.5t-30.5 106.5t-9.5 109.5h168q0 -69 15 -128t45.5 -102t77.5 -67.5t112 -24.5q71 0 144.5 25.5t144.5 76.5q-71 62 -130.5 139.5
t-102.5 169.5t-66.5 198.5t-23.5 226.5q0 102 29.5 194t84 161.5t132 111t174.5 41.5t174.5 -41.5t132 -111t84 -161.5t29.5 -194q0 -116 -20 -218.5t-56 -192t-85.5 -165.5t-107.5 -138q91 -54 188.5 -81.5t194.5 -27.5zM868 1306q-66 0 -112 -34.5t-75.5 -86.5t-43 -112.5
t-13.5 -112.5q0 -104 20 -195.5t55.5 -171t85 -146t109.5 -119.5q47 55 87 122t69 146.5t45.5 170.5t16.5 193q0 52 -13.5 112.5t-43 112.5t-75.5 86.5t-112 34.5zM1946 809q0 106 -13 196.5t-38.5 157.5t-64.5 105t-91 38q-36 0 -62.5 -19t-44 -49.5t-26 -70t-8.5 -81.5
q0 -69 17 -122t45 -92.5t64 -67.5t74 -46.5t75.5 -29t67.5 -15.5q2 24 3.5 48t1.5 48z" />
    <glyph glyph-name="uni13EB" unicode="&#x13eb;" horiz-adv-x="1544" 
d="M766 -24q-158 0 -282.5 55t-211 152.5t-132.5 229.5t-46 287q0 164 45.5 303t134 240t218.5 158t298 57q156 0 278.5 -56t207 -153.5t129.5 -229.5t45 -284q0 -163 -44.5 -302t-131.5 -240.5t-214.5 -159t-293.5 -57.5zM778 1306q-77 0 -142.5 -19t-120 -53t-97 -82.5
t-73.5 -106.5h169q59 0 103 -17.5t78 -52t61.5 -86t54.5 -119.5q20 -51 38 -94t39.5 -74t50 -48.5t69.5 -17.5h249q17 85 17 176q0 126 -29 234.5t-89.5 188.5t-154.5 125.5t-223 45.5zM270 715q0 -118 31.5 -224.5t94 -187.5t155.5 -128.5t215 -47.5q158 0 264.5 64.5
t166.5 176.5h-205q-62 0 -107 20.5t-79.5 58.5t-62 92t-53.5 122q-20 51 -37 91t-38 68t-48 42.5t-67 14.5h-214q-16 -76 -16 -162z" />
    <glyph glyph-name="uni13EC" unicode="&#x13ec;" horiz-adv-x="1757" 
d="M1163 1306q-49 0 -89.5 -10t-70.5 -21q-35 -13 -63 -30v179q28 9 63 17q30 6 70.5 11.5t89.5 5.5q97 0 187 -36t159.5 -111.5t111.5 -192.5t42 -278q0 -208 -55 -369t-156 -271t-244 -167t-319 -57q-132 0 -242.5 32.5t-199 92t-154.5 142t-110.5 183t-66.5 215.5
t-22 238q0 132 28.5 238.5t81 182.5t127 117t167.5 41q70 0 126.5 -28t97 -78.5t62.5 -120.5t22 -153q0 -98 -28.5 -172.5t-73.5 -128.5t-100.5 -90t-110 -58.5t-101.5 -34t-75 -15.5q32 -94 84.5 -176.5t124 -143.5t162.5 -96.5t201 -35.5q130 0 239.5 48t189 140
t124.5 227t45 308q0 116 -26 202t-70.5 142.5t-103 84t-124.5 27.5zM265 894q0 -45 4 -90t12 -90q32 6 71.5 16.5t80 29t78.5 46.5t67 67.5t47 92t18 120.5q0 42 -8.5 81.5t-26 70t-44 49.5t-62.5 19q-44 0 -86 -23t-76 -72.5t-54.5 -128t-20.5 -188.5z" />
    <glyph glyph-name="uni13ED" unicode="&#x13ed;" horiz-adv-x="1342" 
d="M482 114q118 0 232 70q-65 62 -121 141.5t-97 175.5t-64.5 208.5t-23.5 240.5q0 102 29.5 194t84 161.5t132 111t174.5 41.5t174.5 -41.5t132 -111t84 -161.5t29.5 -194q0 -114 -25 -230t-72 -224.5t-114 -203t-152 -165t-186 -111t-215 -40.5q-78 0 -139 19t-107.5 52
t-79.5 77.5t-54 95.5t-30.5 106.5t-9.5 109.5h168q0 -69 15 -128t45.5 -102t77.5 -67.5t112 -24.5zM1072 960q0 52 -13.5 112.5t-43 112.5t-75.5 86.5t-112 34.5t-112 -34.5t-75.5 -86.5t-43 -112.5t-13.5 -112.5q0 -114 18.5 -215t51.5 -187t77.5 -156.5t97.5 -124.5
q52 54 97 124.5t77 156.5t50.5 187t18.5 215z" />
    <glyph glyph-name="uni13EE" unicode="&#x13ee;" horiz-adv-x="1104" 
d="M934 1417v-155q-111 57 -234 57q-191 0 -305.5 -170t-114.5 -455h4q100 203 328 203q188 0 299 -120.5t111 -322.5q0 -211 -127 -344.5t-323 -133.5q-216 0 -339 172t-123 483q0 377 161 602t425 225q150 0 238 -41zM576 758q-127 0 -206 -86t-79 -203q0 -147 78.5 -251
t208.5 -104q124 0 200 90.5t76 229.5q0 152 -73 238t-205 86z" />
    <glyph glyph-name="uni13EF" unicode="&#x13ef;" horiz-adv-x="2079" 
d="M1560 715q-44 -38 -85 -68q-18 -13 -37 -25t-38 -21.5t-36.5 -15t-31.5 -5.5q-17 0 -42.5 15t-51.5 32.5t-48.5 32.5t-33.5 15q-12 0 -37.5 -17.5t-54.5 -37.5v-346q26 -41 67 -74q35 -28 90 -50.5t134 -22.5q127 0 214 44t140 122.5t76.5 185.5t23.5 233t-33.5 234.5
t-100 188.5t-165 125.5t-227.5 45.5q-58 0 -106.5 -11t-88.5 -29.5t-72 -42t-57 -47.5q-58 -57 -93 -129l-150 71q38 95 115 170q33 32 76.5 62.5t100.5 54.5t128.5 38.5t158.5 14.5q156 0 283 -56t217.5 -153.5t140 -229.5t49.5 -284q0 -163 -37 -302t-114 -240.5
t-197 -159t-286 -57.5q-92 0 -162.5 24.5t-118.5 53.5q-56 34 -98 78q-46 -44 -108 -78q-53 -29 -128.5 -53.5t-171.5 -24.5q-111 0 -200 36t-151.5 101.5t-95.5 157.5t-33 205q0 54 12.5 110.5t39 113t67 109.5t96.5 99l117 -115q-87 -67 -125.5 -150t-38.5 -181
q0 -76 25 -137.5t69.5 -105.5t105.5 -68t133 -24q75 0 133 22.5t98 50.5q47 33 80 74v350q-27 19 -52 35.5t-40 16.5q-16 0 -40 -15t-47 -33q-27 -21 -57 -48l-84 100q44 37 86 67q36 26 74.5 47t67.5 21q17 0 42 -14.5t50.5 -31.5t48 -31.5t35.5 -14.5q15 0 38 14.5
t48 31.5t49 31.5t41 14.5q16 0 40.5 -15t49.5 -33t48 -33t38 -15t39.5 15t47.5 33q27 21 57 48z" />
    <glyph glyph-name="uni13F0" unicode="&#x13f0;" horiz-adv-x="1257" 
d="M706 1458q81 0 153.5 -22.5t126.5 -66t86 -107t32 -146.5q0 -283 -288 -364v-4q72 -5 134 -32t107.5 -72t71 -105.5t25.5 -132.5q0 -106 -36 -186.5t-99 -134.5t-150 -81.5t-189 -27.5q-70 0 -133 8t-120 22v-156h-168v213q-60 26 -106.5 53t-78.5 50q-37 26 -64 51
l83 142q18 -18 43 -37q21 -17 52 -38.5t71 -43.5v772q0 108 37 191.5t98.5 140t142.5 85.5t169 29zM427 981v-813q57 -19 122 -30t138 -11q67 0 122 15t94.5 47t61 82t21.5 120q0 281 -399 281h-99v139h93q355 0 355 264q0 61 -18 105t-49.5 72t-75 41t-95.5 13
q-47 0 -95 -20t-87 -60.5t-64 -101.5t-25 -143z" />
    <glyph glyph-name="uni13F1" unicode="&#x13f1;" horiz-adv-x="1417" 
d="M1293 693v-412q0 -65 -24 -119.5t-66 -95t-97.5 -63t-118.5 -22.5t-117.5 22.5t-94.5 63t-62.5 95t-22.5 119.5q0 63 21.5 117.5t61 94.5t94 62.5t120.5 22.5q38 0 72.5 -8t65.5 -22v158q0 64 -11 114.5t-38 86t-72.5 54t-114.5 18.5q-63 0 -113 -23t-87.5 -60.5
t-63.5 -84.5t-43 -95l-252 -716h-175l-135 363h155l63 -193l200 586q20 58 51.5 116.5t78 107.5t108.5 84.5t143 47.5v178h-140v144h448v-144h-140v-179q84 -13 142 -49.5t94.5 -92t53 -126t16.5 -150.5zM1125 281q0 43 -10.5 75t-29.5 53t-44 31.5t-54 10.5
q-60 0 -99.5 -42.5t-39.5 -127.5q0 -42 10.5 -74.5t29.5 -54.5t44.5 -33t54.5 -11t54 11t44 33t29.5 54.5t10.5 74.5z" />
    <glyph glyph-name="uni13F2" unicode="&#x13f2;" horiz-adv-x="1354" 
d="M201 998q0 105 37.5 190t103.5 145t156 92.5t195 32.5q100 0 190 -31.5t157.5 -91t107.5 -145.5t40 -195h-168q0 72 -27 131.5t-72.5 102.5t-104.5 67t-123 24q-67 0 -126 -26.5t-103 -71.5t-69.5 -104.5t-25.5 -125.5v-274q229 122 426 122q90 0 162.5 -24t123.5 -70.5
t79 -116.5t28 -161v-468h-168v460q0 232 -245 232q-178 0 -406 -110v-582h-168v998z" />
    <glyph glyph-name="uni13F3" unicode="&#x13f3;" horiz-adv-x="1738" 
d="M1439 1007l-75 168l-74 -168h-148q-28 84 -81 150q-23 28 -52.5 55t-68 48t-86 34t-105.5 13q-120 0 -210 -44.5t-149.5 -123.5t-89.5 -189t-30 -240q0 -128 35.5 -235t105 -184t172.5 -120.5t238 -43.5q42 0 86 7.5t86 19.5t80 27.5t69 32.5v182h-140v144h448v-144h-140
v-271q-51 -35 -113 -62.5t-129 -46.5t-135.5 -29.5t-132.5 -10.5q-163 0 -293.5 54t-222 150t-141 228.5t-49.5 289.5q0 175 41 315.5t123 239.5t205 152t286 53q66 0 122.5 -12.5t103 -32.5t84 -46t66.5 -53q68 -63 109 -143l58 108h155l69 -161l70 161h132l-126 -272h-153
z" />
    <glyph glyph-name="uni13F4" unicode="&#x13f4;" horiz-adv-x="1174" 
d="M188 0v1434h408q186 0 295 -91t109 -237q0 -122 -66 -212t-182 -128v-4q145 -17 232 -109.5t87 -240.5q0 -184 -132 -298t-333 -114h-418zM356 1282v-463h172q138 0 217 66.5t79 187.5q0 209 -275 209h-193zM356 668v-516h228q148 0 229.5 70t81.5 192q0 254 -346 254
h-193z" />
    <glyph glyph-name="glyph334" horiz-adv-x="0" 
d="M0 1746q0 23 9 43.5t24 35.5t35.5 24t43.5 9t43.5 -9t35.5 -24t24 -35.5t9 -43.5t-9 -43.5t-24 -35.5t-35.5 -24t-43.5 -9t-43.5 9t-35.5 24t-24 35.5t-9 43.5z" />
    <glyph glyph-name="glyph335" horiz-adv-x="0" 
d="M100 1746q0 -23 9 -43.5t24 -35.5t35.5 -24t43.5 -9t43.5 9t35.5 24t24 35.5t9 43.5t-9 43.5t-24 35.5t-35.5 24t-43.5 9t-43.5 -9t-35.5 -24t-24 -35.5t-9 -43.5zM0 1749q0 43 17 81t45.5 66.5t67 45t81.5 16.5t81.5 -16.5t68 -45t46.5 -66.5t17 -81t-17 -82
t-46.5 -68.5t-68 -47t-81.5 -17.5t-81.5 17.5t-67 47t-45.5 68.5t-17 82z" />
    <glyph glyph-name="glyph336" horiz-adv-x="0" 
d="M164 508h-164v417h164v-417z" />
    <glyph glyph-name="glyph337" horiz-adv-x="0" 
d="M0 717v717h124v-717h-124z" />
    <glyph glyph-name="glyph338" horiz-adv-x="0" 
d="M256 717v593h-256v124h637v-124h-257v-593h-124z" />
    <glyph glyph-name="glyph339" horiz-adv-x="0" 
d="M477 650h-353v-206h-124v537h124v-207h353v-124z" />
    <glyph glyph-name="uni1400" unicode="&#x1400;" horiz-adv-x="1401" 
d="M1172 744h-940v132h940v-132zM1172 318h-940v132h940v-132z" />
    <glyph glyph-name="uni1401" unicode="&#x1401;" horiz-adv-x="1514" 
d="M40 1434h1434l-707 -1434h-20zM757 341l458 929h-916z" />
    <glyph glyph-name="uni1402" unicode="&#x1402;" horiz-adv-x="1514" 
d="M747 1434h20l707 -1434h-1434zM299 164h916l-458 929zM645 1746q0 -23 9 -43.5t24 -35.5t35.5 -24t43.5 -9t43.5 9t35.5 24t24 35.5t9 43.5t-9 43.5t-24 35.5t-35.5 24t-43.5 9t-43.5 -9t-35.5 -24t-24 -35.5t-9 -43.5zM545 1749q0 43 17 81t45.5 66.5t67 45t81.5 16.5
t81.5 -16.5t68 -45t46.5 -66.5t17 -81t-17 -82t-46.5 -68.5t-68 -47t-81.5 -17.5t-81.5 17.5t-67 47t-45.5 68.5t-17 82z" />
    <glyph glyph-name="uni1403" unicode="&#x1403;" horiz-adv-x="1514" 
d="M747 1434h20l707 -1434h-1434zM299 164h916l-458 929z" />
    <glyph glyph-name="uni1404" unicode="&#x1404;" horiz-adv-x="1514" 
d="M747 1434h20l707 -1434h-1434zM299 164h916l-458 929zM645 1746q0 23 9 43.5t24 35.5t35.5 24t43.5 9t43.5 -9t35.5 -24t24 -35.5t9 -43.5t-9 -43.5t-24 -35.5t-35.5 -24t-43.5 -9t-43.5 9t-35.5 24t-24 35.5t-9 43.5z" />
    <glyph glyph-name="uni1405" unicode="&#x1405;" horiz-adv-x="1574" 
d="M100 0v1434l1434 -707v-20zM1193 717l-929 458v-916z" />
    <glyph glyph-name="uni1406" unicode="&#x1406;" horiz-adv-x="1574" 
d="M100 0v1434l1434 -707v-20zM1193 717l-929 458v-916zM70 1746q0 23 9 43.5t24 35.5t35.5 24t43.5 9t43.5 -9t35.5 -24t24 -35.5t9 -43.5t-9 -43.5t-24 -35.5t-35.5 -24t-43.5 -9t-43.5 9t-35.5 24t-24 35.5t-9 43.5z" />
    <glyph glyph-name="uni1407" unicode="&#x1407;" horiz-adv-x="1574" 
d="M100 0v1434l1434 -707v-20zM1193 717l-929 458v-916zM70 1746q0 23 9 43.5t24 35.5t35.5 24t43.5 9t43.5 -9t35.5 -24t24 -35.5t9 -43.5t-9 -43.5t-24 -35.5t-35.5 -24t-43.5 -9t-43.5 9t-35.5 24t-24 35.5t-9 43.5zM705 1746q0 23 9 43.5t24 35.5t35.5 24t43.5 9
t43.5 -9t35.5 -24t24 -35.5t9 -43.5t-9 -43.5t-24 -35.5t-35.5 -24t-43.5 -9t-43.5 9t-35.5 24t-24 35.5t-9 43.5z" />
    <glyph glyph-name="uni1408" unicode="&#x1408;" horiz-adv-x="1574" 
d="M100 0v1434l1434 -707v-20zM1193 717l-929 458v-916zM612 508h-164v417h164v-417z" />
    <glyph glyph-name="uni1409" unicode="&#x1409;" horiz-adv-x="1574" 
d="M100 0v1434l1434 -707v-20zM1193 717l-929 458v-916zM428 717q0 23 9 43.5t24 35.5t35.5 24t43.5 9t43.5 -9t35.5 -24t24 -35.5t9 -43.5t-9 -43.5t-24 -35.5t-35.5 -24t-43.5 -9t-43.5 9t-35.5 24t-24 35.5t-9 43.5z" />
    <glyph glyph-name="uni140A" unicode="&#x140a;" horiz-adv-x="1574" 
d="M40 707v20l1434 707v-1434zM1310 259v916l-929 -458z" />
    <glyph glyph-name="uni140B" unicode="&#x140b;" horiz-adv-x="1574" 
d="M40 707v20l1434 707v-1434zM1310 259v916l-929 -458zM1280 1746q0 23 9 43.5t24 35.5t35.5 24t43.5 9t43.5 -9t35.5 -24t24 -35.5t9 -43.5t-9 -43.5t-24 -35.5t-35.5 -24t-43.5 -9t-43.5 9t-35.5 24t-24 35.5t-9 43.5z" />
    <glyph glyph-name="uni140C" unicode="&#x140c;" horiz-adv-x="1514" 
d="M40 1434h1434l-707 -1434h-20zM757 341l458 929h-916zM10 717q0 23 9 43.5t24 35.5t35.5 24t43.5 9t43.5 -9t35.5 -24t24 -35.5t9 -43.5t-9 -43.5t-24 -35.5t-35.5 -24t-43.5 -9t-43.5 9t-35.5 24t-24 35.5t-9 43.5z" />
    <glyph glyph-name="uni140D" unicode="&#x140d;" horiz-adv-x="1514" 
d="M40 1434h1434l-707 -1434h-20zM757 341l458 929h-916zM1280 717q0 23 9 43.5t24 35.5t35.5 24t43.5 9t43.5 -9t35.5 -24t24 -35.5t9 -43.5t-9 -43.5t-24 -35.5t-35.5 -24t-43.5 -9t-43.5 9t-35.5 24t-24 35.5t-9 43.5z" />
    <glyph glyph-name="uni140E" unicode="&#x140e;" horiz-adv-x="1514" 
d="M747 1434h20l707 -1434h-1434zM299 164h916l-458 929zM10 717q0 23 9 43.5t24 35.5t35.5 24t43.5 9t43.5 -9t35.5 -24t24 -35.5t9 -43.5t-9 -43.5t-24 -35.5t-35.5 -24t-43.5 -9t-43.5 9t-35.5 24t-24 35.5t-9 43.5z" />
    <glyph glyph-name="uni140F" unicode="&#x140f;" horiz-adv-x="1514" 
d="M747 1434h20l707 -1434h-1434zM299 164h916l-458 929zM1280 717q0 23 9 43.5t24 35.5t35.5 24t43.5 9t43.5 -9t35.5 -24t24 -35.5t9 -43.5t-9 -43.5t-24 -35.5t-35.5 -24t-43.5 -9t-43.5 9t-35.5 24t-24 35.5t-9 43.5z" />
    <glyph glyph-name="uni1410" unicode="&#x1410;" horiz-adv-x="1514" 
d="M747 1434h20l707 -1434h-1434zM299 164h916l-458 929zM645 1746q0 23 9 43.5t24 35.5t35.5 24t43.5 9t43.5 -9t35.5 -24t24 -35.5t9 -43.5t-9 -43.5t-24 -35.5t-35.5 -24t-43.5 -9t-43.5 9t-35.5 24t-24 35.5t-9 43.5zM10 717q0 23 9 43.5t24 35.5t35.5 24t43.5 9
t43.5 -9t35.5 -24t24 -35.5t9 -43.5t-9 -43.5t-24 -35.5t-35.5 -24t-43.5 -9t-43.5 9t-35.5 24t-24 35.5t-9 43.5z" />
    <glyph glyph-name="uni1411" unicode="&#x1411;" horiz-adv-x="1514" 
d="M747 1434h20l707 -1434h-1434zM299 164h916l-458 929zM645 1746q0 23 9 43.5t24 35.5t35.5 24t43.5 9t43.5 -9t35.5 -24t24 -35.5t9 -43.5t-9 -43.5t-24 -35.5t-35.5 -24t-43.5 -9t-43.5 9t-35.5 24t-24 35.5t-9 43.5zM1280 717q0 23 9 43.5t24 35.5t35.5 24t43.5 9
t43.5 -9t35.5 -24t24 -35.5t9 -43.5t-9 -43.5t-24 -35.5t-35.5 -24t-43.5 -9t-43.5 9t-35.5 24t-24 35.5t-9 43.5z" />
    <glyph glyph-name="uni1412" unicode="&#x1412;" horiz-adv-x="1808" 
d="M334 0v1434l1434 -707v-20zM1427 717l-929 458v-916zM10 717q0 23 9 43.5t24 35.5t35.5 24t43.5 9t43.5 -9t35.5 -24t24 -35.5t9 -43.5t-9 -43.5t-24 -35.5t-35.5 -24t-43.5 -9t-43.5 9t-35.5 24t-24 35.5t-9 43.5z" />
    <glyph glyph-name="uni1413" unicode="&#x1413;" horiz-adv-x="1868" 
d="M100 0v1434l1434 -707v-20zM1193 717l-929 458v-916zM1634 717q0 23 9 43.5t24 35.5t35.5 24t43.5 9t43.5 -9t35.5 -24t24 -35.5t9 -43.5t-9 -43.5t-24 -35.5t-35.5 -24t-43.5 -9t-43.5 9t-35.5 24t-24 35.5t-9 43.5z" />
    <glyph glyph-name="uni1414" unicode="&#x1414;" horiz-adv-x="1808" 
d="M334 0v1434l1434 -707v-20zM1427 717l-929 458v-916zM10 717q0 23 9 43.5t24 35.5t35.5 24t43.5 9t43.5 -9t35.5 -24t24 -35.5t9 -43.5t-9 -43.5t-24 -35.5t-35.5 -24t-43.5 -9t-43.5 9t-35.5 24t-24 35.5t-9 43.5zM304 1746q0 23 9 43.5t24 35.5t35.5 24t43.5 9t43.5 -9
t35.5 -24t24 -35.5t9 -43.5t-9 -43.5t-24 -35.5t-35.5 -24t-43.5 -9t-43.5 9t-35.5 24t-24 35.5t-9 43.5z" />
    <glyph glyph-name="uni1415" unicode="&#x1415;" horiz-adv-x="1868" 
d="M100 0v1434l1434 -707v-20zM1193 717l-929 458v-916zM1634 717q0 23 9 43.5t24 35.5t35.5 24t43.5 9t43.5 -9t35.5 -24t24 -35.5t9 -43.5t-9 -43.5t-24 -35.5t-35.5 -24t-43.5 -9t-43.5 9t-35.5 24t-24 35.5t-9 43.5zM70 1746q0 23 9 43.5t24 35.5t35.5 24t43.5 9
t43.5 -9t35.5 -24t24 -35.5t9 -43.5t-9 -43.5t-24 -35.5t-35.5 -24t-43.5 -9t-43.5 9t-35.5 24t-24 35.5t-9 43.5z" />
    <glyph glyph-name="uni1416" unicode="&#x1416;" horiz-adv-x="1574" 
d="M100 0v1434l1434 -707v-20zM1193 717l-929 458v-916zM70 1746q0 23 9 43.5t24 35.5t35.5 24t43.5 9t43.5 -9t35.5 -24t24 -35.5t9 -43.5t-9 -43.5t-24 -35.5t-35.5 -24t-43.5 -9t-43.5 9t-35.5 24t-24 35.5t-9 43.5zM705 1452q0 23 9 43.5t24 35.5t35.5 24t43.5 9
t43.5 -9t35.5 -24t24 -35.5t9 -43.5t-9 -43.5t-24 -35.5t-35.5 -24t-43.5 -9t-43.5 9t-35.5 24t-24 35.5t-9 43.5z" />
    <glyph glyph-name="uni1417" unicode="&#x1417;" horiz-adv-x="1868" 
d="M334 707v20l1434 707v-1434zM1604 259v916l-929 -458zM10 717q0 23 9 43.5t24 35.5t35.5 24t43.5 9t43.5 -9t35.5 -24t24 -35.5t9 -43.5t-9 -43.5t-24 -35.5t-35.5 -24t-43.5 -9t-43.5 9t-35.5 24t-24 35.5t-9 43.5z" />
    <glyph glyph-name="uni1418" unicode="&#x1418;" horiz-adv-x="1808" 
d="M40 707v20l1434 707v-1434zM1310 259v916l-929 -458zM1574 717q0 23 9 43.5t24 35.5t35.5 24t43.5 9t43.5 -9t35.5 -24t24 -35.5t9 -43.5t-9 -43.5t-24 -35.5t-35.5 -24t-43.5 -9t-43.5 9t-35.5 24t-24 35.5t-9 43.5z" />
    <glyph glyph-name="uni1419" unicode="&#x1419;" horiz-adv-x="1868" 
d="M334 707v20l1434 707v-1434zM1604 259v916l-929 -458zM10 717q0 23 9 43.5t24 35.5t35.5 24t43.5 9t43.5 -9t35.5 -24t24 -35.5t9 -43.5t-9 -43.5t-24 -35.5t-35.5 -24t-43.5 -9t-43.5 9t-35.5 24t-24 35.5t-9 43.5zM1574 1746q0 23 9 43.5t24 35.5t35.5 24t43.5 9
t43.5 -9t35.5 -24t24 -35.5t9 -43.5t-9 -43.5t-24 -35.5t-35.5 -24t-43.5 -9t-43.5 9t-35.5 24t-24 35.5t-9 43.5z" />
    <glyph glyph-name="uni141A" unicode="&#x141a;" horiz-adv-x="1808" 
d="M40 707v20l1434 707v-1434zM1310 259v916l-929 -458zM1574 717q0 23 9 43.5t24 35.5t35.5 24t43.5 9t43.5 -9t35.5 -24t24 -35.5t9 -43.5t-9 -43.5t-24 -35.5t-35.5 -24t-43.5 -9t-43.5 9t-35.5 24t-24 35.5t-9 43.5zM1280 1746q0 23 9 43.5t24 35.5t35.5 24t43.5 9
t43.5 -9t35.5 -24t24 -35.5t9 -43.5t-9 -43.5t-24 -35.5t-35.5 -24t-43.5 -9t-43.5 9t-35.5 24t-24 35.5t-9 43.5z" />
    <glyph glyph-name="uni141B" unicode="&#x141b;" horiz-adv-x="1574" 
d="M40 707v20l1434 707v-1434zM1310 259v916l-929 -458zM1280 1746q0 23 9 43.5t24 35.5t35.5 24t43.5 9t43.5 -9t35.5 -24t24 -35.5t9 -43.5t-9 -43.5t-24 -35.5t-35.5 -24t-43.5 -9t-43.5 9t-35.5 24t-24 35.5t-9 43.5zM645 1452q0 23 9 43.5t24 35.5t35.5 24t43.5 9
t43.5 -9t35.5 -24t24 -35.5t9 -43.5t-9 -43.5t-24 -35.5t-35.5 -24t-43.5 -9t-43.5 9t-35.5 24t-24 35.5t-9 43.5z" />
    <glyph glyph-name="uni141C" unicode="&#x141c;" horiz-adv-x="1200" 
d="M224 1434v-397q0 -45 8 -83t26.5 -65t48.5 -42t74 -15t74 14.5t48.5 41t26.5 64.5t8 85v397h124v-397q0 -47 8.5 -85t27 -64.5t48.5 -41t73 -14.5q44 0 74 14.5t48.5 41t26.5 64.5t8 85v397h124v-397q0 -72 -19.5 -131t-56 -101t-88.5 -65t-117 -23q-72 0 -127.5 27
t-91.5 77q-37 -50 -92 -77t-127 -27q-65 0 -117 23t-88.5 65t-56 101t-19.5 131v397h124z" />
    <glyph glyph-name="uni141D" unicode="&#x141d;" horiz-adv-x="1048" 
d="M624 1222q0 -23 9 -43.5t24 -35.5t35.5 -24t43.5 -9t43.5 9t35.5 24t24 35.5t9 43.5t-9 43.5t-24 35.5t-35.5 24t-43.5 9t-43.5 -9t-35.5 -24t-24 -35.5t-9 -43.5zM524 1225q0 43 17 81t45.5 66.5t67 45t81.5 16.5t81.5 -16.5t68 -45t46.5 -66.5t17 -81t-17 -82
t-46.5 -68.5t-68 -47t-81.5 -17.5t-81.5 17.5t-67 47t-45.5 68.5t-17 82zM200 929q0 -23 9 -43.5t24 -35.5t35.5 -24t43.5 -9t43.5 9t35.5 24t24 35.5t9 43.5t-9 43.5t-24 35.5t-35.5 24t-43.5 9t-43.5 -9t-35.5 -24t-24 -35.5t-9 -43.5zM100 932q0 43 17 81t45.5 66.5
t67 45t81.5 16.5t81.5 -16.5t68 -45t46.5 -66.5t17 -81t-17 -82t-46.5 -68.5t-68 -47t-81.5 -17.5t-81.5 17.5t-67 47t-45.5 68.5t-17 82z" />
    <glyph glyph-name="uni141E" unicode="&#x141e;" horiz-adv-x="917" 
d="M453 1434h10l353 -717h-716zM299 841h318l-159 322z" />
    <glyph glyph-name="uni141F" unicode="&#x141f;" horiz-adv-x="691" 
d="M100 717l356 717h135l-356 -717h-135z" />
    <glyph glyph-name="uni1420" unicode="&#x1420;" horiz-adv-x="691" 
d="M456 717l-356 717h135l356 -717h-135z" />
    <glyph glyph-name="uni1421" unicode="&#x1421;" horiz-adv-x="837" 
d="M737 1075q0 -74 -22 -139.5t-63 -114t-100 -76.5t-134 -28q-74 0 -133 28t-100 76.5t-63 114t-22 139.5v359h126v-359q0 -47 11.5 -89.5t35.5 -74.5t60 -51t85 -19t85.5 19t60.5 51t35.5 74.5t11.5 89.5v359h126v-359z" />
    <glyph glyph-name="uni1422" unicode="&#x1422;" horiz-adv-x="837" 
d="M100 1076q0 74 22 139.5t63 114t100 76.5t134 28q74 0 133 -28t100 -76.5t63 -114t22 -139.5v-359h-126v359q0 47 -11.5 89.5t-35.5 74.5t-60 51t-85 19t-85.5 -19t-60.5 -51t-35.5 -74.5t-11.5 -89.5v-359h-126v359z" />
    <glyph glyph-name="uni1423" unicode="&#x1423;" horiz-adv-x="917" 
d="M100 717v126h359q47 0 89.5 18t74.5 49.5t51 74t19 91.5t-19 91t-51 73.5t-74.5 49.5t-89.5 18h-359v126h359q74 0 139.5 -28t114 -76.5t76.5 -114t28 -139.5q0 -75 -28 -140t-76.5 -114t-114 -77t-139.5 -28h-359z" />
    <glyph glyph-name="uni1424" unicode="&#x1424;" horiz-adv-x="917" 
d="M100 1075q0 74 28 139.5t76.5 114t114 77t139.5 28.5t139.5 -28.5t114 -77t77 -114t28.5 -139.5t-28.5 -139.5t-77 -114t-114 -76.5t-139.5 -28t-139.5 28t-114 76.5t-76.5 114t-28 139.5zM224 1075q0 -49 18.5 -92t49 -73.5t73.5 -49.5t92 -19t93 19t74 49.5t49.5 73.5
t19.5 92t-19.5 93t-49.5 74t-74 49t-93 19t-92 -19t-73.5 -49t-49 -74t-18.5 -93z" />
    <glyph glyph-name="uni1425" unicode="&#x1425;" horiz-adv-x="961" 
d="M100 717l356 717h135l-356 -717h-135zM370 717l356 717h135l-356 -717h-135z" />
    <glyph glyph-name="uni1426" unicode="&#x1426;" horiz-adv-x="572" 
d="M100 717v717h124v-717h-124zM348 717v717h124v-717h-124z" />
    <glyph glyph-name="uni1427" unicode="&#x1427;" horiz-adv-x="424" 
d="M100 717q0 23 9 43.5t24 35.5t35.5 24t43.5 9t43.5 -9t35.5 -24t24 -35.5t9 -43.5t-9 -43.5t-24 -35.5t-35.5 -24t-43.5 -9t-43.5 9t-35.5 24t-24 35.5t-9 43.5z" />
    <glyph glyph-name="uni1428" unicode="&#x1428;" horiz-adv-x="917" 
d="M100 1137h717v-124h-717v124z" />
    <glyph glyph-name="uni1429" unicode="&#x1429;" horiz-adv-x="917" 
d="M100 1137h296v297h124v-297h297v-124h-297v-296h-124v296h-296v124z" />
    <glyph glyph-name="uni142A" unicode="&#x142a;" horiz-adv-x="917" 
d="M396 717v593h-296v124h717v-124h-297v-593h-124z" />
    <glyph glyph-name="uni142B" unicode="&#x142b;" horiz-adv-x="2075" 
d="M40 1434h1434l-707 -1434h-20zM757 341l458 929h-916zM1930 717l-356 717h135l356 -717h-135z" />
    <glyph glyph-name="uni142C" unicode="&#x142c;" horiz-adv-x="1619" 
d="M747 1434h20l707 -1434h-1434zM299 164h916l-458 929zM1474 717l-356 717h135l356 -717h-135z" />
    <glyph glyph-name="uni142D" unicode="&#x142d;" horiz-adv-x="1900" 
d="M100 0v1434l1434 -707v-20zM1193 717l-929 458v-916zM1755 717l-356 717h135l356 -717h-135z" />
    <glyph glyph-name="uni142E" unicode="&#x142e;" horiz-adv-x="2075" 
d="M40 707v20l1434 707v-1434zM1310 259v916l-929 -458zM1930 717l-356 717h135l356 -717h-135z" />
    <glyph glyph-name="uni142F" unicode="&#x142f;" horiz-adv-x="1514" 
d="M40 1434h178l539 -1093l539 1093h178l-707 -1434h-20z" />
    <glyph glyph-name="uni1430" unicode="&#x1430;" horiz-adv-x="1514" 
d="M747 1434h20l707 -1434h-178l-539 1093l-539 -1093h-178zM645 1746q0 -23 9 -43.5t24 -35.5t35.5 -24t43.5 -9t43.5 9t35.5 24t24 35.5t9 43.5t-9 43.5t-24 35.5t-35.5 24t-43.5 9t-43.5 -9t-35.5 -24t-24 -35.5t-9 -43.5zM545 1749q0 43 17 81t45.5 66.5t67 45
t81.5 16.5t81.5 -16.5t68 -45t46.5 -66.5t17 -81t-17 -82t-46.5 -68.5t-68 -47t-81.5 -17.5t-81.5 17.5t-67 47t-45.5 68.5t-17 82z" />
    <glyph glyph-name="uni1431" unicode="&#x1431;" horiz-adv-x="1514" 
d="M747 1434h20l707 -1434h-178l-539 1093l-539 -1093h-178z" />
    <glyph glyph-name="uni1432" unicode="&#x1432;" horiz-adv-x="1514" 
d="M747 1434h20l707 -1434h-178l-539 1093l-539 -1093h-178zM645 1746q0 23 9 43.5t24 35.5t35.5 24t43.5 9t43.5 -9t35.5 -24t24 -35.5t9 -43.5t-9 -43.5t-24 -35.5t-35.5 -24t-43.5 -9t-43.5 9t-35.5 24t-24 35.5t-9 43.5z" />
    <glyph glyph-name="uni1433" unicode="&#x1433;" horiz-adv-x="1574" 
d="M1534 727v-20l-1434 -707v178l1093 539l-1093 539v178z" />
    <glyph glyph-name="uni1434" unicode="&#x1434;" horiz-adv-x="1574" 
d="M1534 727v-20l-1434 -707v178l1093 539l-1093 539v178zM70 1746q0 23 9 43.5t24 35.5t35.5 24t43.5 9t43.5 -9t35.5 -24t24 -35.5t9 -43.5t-9 -43.5t-24 -35.5t-35.5 -24t-43.5 -9t-43.5 9t-35.5 24t-24 35.5t-9 43.5z" />
    <glyph glyph-name="uni1435" unicode="&#x1435;" horiz-adv-x="1574" 
d="M1534 727v-20l-1434 -707v178l1093 539l-1093 539v178zM70 1746q0 23 9 43.5t24 35.5t35.5 24t43.5 9t43.5 -9t35.5 -24t24 -35.5t9 -43.5t-9 -43.5t-24 -35.5t-35.5 -24t-43.5 -9t-43.5 9t-35.5 24t-24 35.5t-9 43.5zM705 1746q0 23 9 43.5t24 35.5t35.5 24t43.5 9
t43.5 -9t35.5 -24t24 -35.5t9 -43.5t-9 -43.5t-24 -35.5t-35.5 -24t-43.5 -9t-43.5 9t-35.5 24t-24 35.5t-9 43.5z" />
    <glyph glyph-name="uni1436" unicode="&#x1436;" horiz-adv-x="1574" 
d="M1534 727v-20l-1434 -707v178l1093 539l-1093 539v178zM582 508h-164v417h164v-417z" />
    <glyph glyph-name="uni1437" unicode="&#x1437;" horiz-adv-x="1574" 
d="M1534 727v-20l-1434 -707v178l1093 539l-1093 539v178zM428 717q0 23 9 43.5t24 35.5t35.5 24t43.5 9t43.5 -9t35.5 -24t24 -35.5t9 -43.5t-9 -43.5t-24 -35.5t-35.5 -24t-43.5 -9t-43.5 9t-35.5 24t-24 35.5t-9 43.5z" />
    <glyph glyph-name="uni1438" unicode="&#x1438;" horiz-adv-x="1574" 
d="M1474 1434v-178l-1093 -539l1093 -539v-178l-1434 707v20z" />
    <glyph glyph-name="uni1439" unicode="&#x1439;" horiz-adv-x="1574" 
d="M1474 1434v-178l-1093 -539l1093 -539v-178l-1434 707v20zM1280 1746q0 23 9 43.5t24 35.5t35.5 24t43.5 9t43.5 -9t35.5 -24t24 -35.5t9 -43.5t-9 -43.5t-24 -35.5t-35.5 -24t-43.5 -9t-43.5 9t-35.5 24t-24 35.5t-9 43.5z" />
    <glyph glyph-name="uni143A" unicode="&#x143a;" horiz-adv-x="1514" 
d="M40 1434h178l539 -1093l539 1093h178l-707 -1434h-20zM10 717q0 23 9 43.5t24 35.5t35.5 24t43.5 9t43.5 -9t35.5 -24t24 -35.5t9 -43.5t-9 -43.5t-24 -35.5t-35.5 -24t-43.5 -9t-43.5 9t-35.5 24t-24 35.5t-9 43.5z" />
    <glyph glyph-name="uni143B" unicode="&#x143b;" horiz-adv-x="1514" 
d="M40 1434h178l539 -1093l539 1093h178l-707 -1434h-20zM1280 717q0 23 9 43.5t24 35.5t35.5 24t43.5 9t43.5 -9t35.5 -24t24 -35.5t9 -43.5t-9 -43.5t-24 -35.5t-35.5 -24t-43.5 -9t-43.5 9t-35.5 24t-24 35.5t-9 43.5z" />
    <glyph glyph-name="uni143C" unicode="&#x143c;" horiz-adv-x="1514" 
d="M747 1434h20l707 -1434h-178l-539 1093l-539 -1093h-178zM10 717q0 23 9 43.5t24 35.5t35.5 24t43.5 9t43.5 -9t35.5 -24t24 -35.5t9 -43.5t-9 -43.5t-24 -35.5t-35.5 -24t-43.5 -9t-43.5 9t-35.5 24t-24 35.5t-9 43.5z" />
    <glyph glyph-name="uni143D" unicode="&#x143d;" horiz-adv-x="1514" 
d="M747 1434h20l707 -1434h-178l-539 1093l-539 -1093h-178zM1280 717q0 23 9 43.5t24 35.5t35.5 24t43.5 9t43.5 -9t35.5 -24t24 -35.5t9 -43.5t-9 -43.5t-24 -35.5t-35.5 -24t-43.5 -9t-43.5 9t-35.5 24t-24 35.5t-9 43.5z" />
    <glyph glyph-name="uni143E" unicode="&#x143e;" horiz-adv-x="1514" 
d="M747 1434h20l707 -1434h-178l-539 1093l-539 -1093h-178zM645 1746q0 23 9 43.5t24 35.5t35.5 24t43.5 9t43.5 -9t35.5 -24t24 -35.5t9 -43.5t-9 -43.5t-24 -35.5t-35.5 -24t-43.5 -9t-43.5 9t-35.5 24t-24 35.5t-9 43.5zM10 717q0 23 9 43.5t24 35.5t35.5 24t43.5 9
t43.5 -9t35.5 -24t24 -35.5t9 -43.5t-9 -43.5t-24 -35.5t-35.5 -24t-43.5 -9t-43.5 9t-35.5 24t-24 35.5t-9 43.5z" />
    <glyph glyph-name="uni143F" unicode="&#x143f;" horiz-adv-x="1514" 
d="M747 1434h20l707 -1434h-178l-539 1093l-539 -1093h-178zM645 1746q0 23 9 43.5t24 35.5t35.5 24t43.5 9t43.5 -9t35.5 -24t24 -35.5t9 -43.5t-9 -43.5t-24 -35.5t-35.5 -24t-43.5 -9t-43.5 9t-35.5 24t-24 35.5t-9 43.5zM1280 717q0 23 9 43.5t24 35.5t35.5 24t43.5 9
t43.5 -9t35.5 -24t24 -35.5t9 -43.5t-9 -43.5t-24 -35.5t-35.5 -24t-43.5 -9t-43.5 9t-35.5 24t-24 35.5t-9 43.5z" />
    <glyph glyph-name="uni1440" unicode="&#x1440;" horiz-adv-x="1808" 
d="M1768 727v-20l-1434 -707v178l1093 539l-1093 539v178zM10 717q0 23 9 43.5t24 35.5t35.5 24t43.5 9t43.5 -9t35.5 -24t24 -35.5t9 -43.5t-9 -43.5t-24 -35.5t-35.5 -24t-43.5 -9t-43.5 9t-35.5 24t-24 35.5t-9 43.5z" />
    <glyph glyph-name="uni1441" unicode="&#x1441;" horiz-adv-x="1868" 
d="M1534 727v-20l-1434 -707v178l1093 539l-1093 539v178zM1634 717q0 23 9 43.5t24 35.5t35.5 24t43.5 9t43.5 -9t35.5 -24t24 -35.5t9 -43.5t-9 -43.5t-24 -35.5t-35.5 -24t-43.5 -9t-43.5 9t-35.5 24t-24 35.5t-9 43.5z" />
    <glyph glyph-name="uni1442" unicode="&#x1442;" horiz-adv-x="1808" 
d="M1768 727v-20l-1434 -707v178l1093 539l-1093 539v178zM10 717q0 23 9 43.5t24 35.5t35.5 24t43.5 9t43.5 -9t35.5 -24t24 -35.5t9 -43.5t-9 -43.5t-24 -35.5t-35.5 -24t-43.5 -9t-43.5 9t-35.5 24t-24 35.5t-9 43.5zM304 1746q0 23 9 43.5t24 35.5t35.5 24t43.5 9
t43.5 -9t35.5 -24t24 -35.5t9 -43.5t-9 -43.5t-24 -35.5t-35.5 -24t-43.5 -9t-43.5 9t-35.5 24t-24 35.5t-9 43.5z" />
    <glyph glyph-name="uni1443" unicode="&#x1443;" horiz-adv-x="1868" 
d="M1534 727v-20l-1434 -707v178l1093 539l-1093 539v178zM1634 717q0 23 9 43.5t24 35.5t35.5 24t43.5 9t43.5 -9t35.5 -24t24 -35.5t9 -43.5t-9 -43.5t-24 -35.5t-35.5 -24t-43.5 -9t-43.5 9t-35.5 24t-24 35.5t-9 43.5zM70 1746q0 23 9 43.5t24 35.5t35.5 24t43.5 9
t43.5 -9t35.5 -24t24 -35.5t9 -43.5t-9 -43.5t-24 -35.5t-35.5 -24t-43.5 -9t-43.5 9t-35.5 24t-24 35.5t-9 43.5z" />
    <glyph glyph-name="uni1444" unicode="&#x1444;" horiz-adv-x="1868" 
d="M1768 1434v-178l-1093 -539l1093 -539v-178l-1434 707v20zM10 717q0 23 9 43.5t24 35.5t35.5 24t43.5 9t43.5 -9t35.5 -24t24 -35.5t9 -43.5t-9 -43.5t-24 -35.5t-35.5 -24t-43.5 -9t-43.5 9t-35.5 24t-24 35.5t-9 43.5z" />
    <glyph glyph-name="uni1445" unicode="&#x1445;" horiz-adv-x="1808" 
d="M1474 1434v-178l-1093 -539l1093 -539v-178l-1434 707v20zM1574 717q0 23 9 43.5t24 35.5t35.5 24t43.5 9t43.5 -9t35.5 -24t24 -35.5t9 -43.5t-9 -43.5t-24 -35.5t-35.5 -24t-43.5 -9t-43.5 9t-35.5 24t-24 35.5t-9 43.5z" />
    <glyph glyph-name="uni1446" unicode="&#x1446;" horiz-adv-x="1868" 
d="M1768 1434v-178l-1093 -539l1093 -539v-178l-1434 707v20zM10 717q0 23 9 43.5t24 35.5t35.5 24t43.5 9t43.5 -9t35.5 -24t24 -35.5t9 -43.5t-9 -43.5t-24 -35.5t-35.5 -24t-43.5 -9t-43.5 9t-35.5 24t-24 35.5t-9 43.5zM1574 1746q0 23 9 43.5t24 35.5t35.5 24t43.5 9
t43.5 -9t35.5 -24t24 -35.5t9 -43.5t-9 -43.5t-24 -35.5t-35.5 -24t-43.5 -9t-43.5 9t-35.5 24t-24 35.5t-9 43.5z" />
    <glyph glyph-name="uni1447" unicode="&#x1447;" horiz-adv-x="1808" 
d="M1474 1434v-178l-1093 -539l1093 -539v-178l-1434 707v20zM1574 717q0 23 9 43.5t24 35.5t35.5 24t43.5 9t43.5 -9t35.5 -24t24 -35.5t9 -43.5t-9 -43.5t-24 -35.5t-35.5 -24t-43.5 -9t-43.5 9t-35.5 24t-24 35.5t-9 43.5zM1280 1746q0 23 9 43.5t24 35.5t35.5 24t43.5 9
t43.5 -9t35.5 -24t24 -35.5t9 -43.5t-9 -43.5t-24 -35.5t-35.5 -24t-43.5 -9t-43.5 9t-35.5 24t-24 35.5t-9 43.5z" />
    <glyph glyph-name="uni1448" unicode="&#x1448;" horiz-adv-x="1574" 
d="M1474 1434v-178l-1093 -539l1093 -539v-178l-1434 707v20zM1280 1746q0 23 9 43.5t24 35.5t35.5 24t43.5 9t43.5 -9t35.5 -24t24 -35.5t9 -43.5t-9 -43.5t-24 -35.5t-35.5 -24t-43.5 -9t-43.5 9t-35.5 24t-24 35.5t-9 43.5zM645 1452q0 23 9 43.5t24 35.5t35.5 24t43.5 9
t43.5 -9t35.5 -24t24 -35.5t9 -43.5t-9 -43.5t-24 -35.5t-35.5 -24t-43.5 -9t-43.5 9t-35.5 24t-24 35.5t-9 43.5z" />
    <glyph glyph-name="uni1449" unicode="&#x1449;" horiz-adv-x="917" 
d="M823 717l-717 353v10l717 354v-135l-447 -224l447 -223v-135z" />
    <glyph glyph-name="uni144A" unicode="&#x144a;" horiz-adv-x="324" 
d="M100 717v717h124v-717h-124z" />
    <glyph glyph-name="uni144B" unicode="&#x144b;" horiz-adv-x="642" 
d="M542 717h-124v238q0 63 -26.5 91.5t-70.5 28.5q-40 0 -68.5 -29.5t-28.5 -90.5v-238h-124v717h124v-276q12 9 29 16q14 6 33.5 11t44.5 5q49 0 88 -17.5t66.5 -48.5t42 -74.5t14.5 -94.5v-238z" />
    <glyph glyph-name="uni144C" unicode="&#x144c;" horiz-adv-x="1474" 
d="M268 711q0 -111 25 -210.5t81 -174.5t145.5 -118.5t217.5 -43.5q130 0 219.5 43.5t145 118.5t80 174.5t24.5 210.5v723h168v-723q0 -145 -35.5 -274.5t-112 -226.5t-197.5 -153.5t-292 -56.5t-292 56.5t-197.5 153.5t-112 226.5t-35.5 274.5v723h168v-723z" />
    <glyph glyph-name="uni144D" unicode="&#x144d;" horiz-adv-x="1474" 
d="M1206 723q0 111 -25 210.5t-81 174.5t-145.5 118.5t-217.5 43.5q-130 0 -219.5 -43.5t-145 -118.5t-80 -174.5t-24.5 -210.5v-723h-168v723q0 145 35.5 274.5t112 226.5t197.5 153.5t292 56.5t292 -56.5t197.5 -153.5t112 -226.5t35.5 -274.5v-723h-168v723zM626 1746
q0 -23 9 -43.5t24 -35.5t35.5 -24t43.5 -9t43.5 9t35.5 24t24 35.5t9 43.5t-9 43.5t-24 35.5t-35.5 24t-43.5 9t-43.5 -9t-35.5 -24t-24 -35.5t-9 -43.5zM526 1749q0 43 17 81t45.5 66.5t67 45t81.5 16.5t81.5 -16.5t68 -45t46.5 -66.5t17 -81t-17 -82t-46.5 -68.5t-68 -47
t-81.5 -17.5t-81.5 17.5t-67 47t-45.5 68.5t-17 82z" />
    <glyph glyph-name="uni144E" unicode="&#x144e;" horiz-adv-x="1474" 
d="M1206 723q0 111 -25 210.5t-81 174.5t-145.5 118.5t-217.5 43.5q-130 0 -219.5 -43.5t-145 -118.5t-80 -174.5t-24.5 -210.5v-723h-168v723q0 145 35.5 274.5t112 226.5t197.5 153.5t292 56.5t292 -56.5t197.5 -153.5t112 -226.5t35.5 -274.5v-723h-168v723z" />
    <glyph glyph-name="uni144F" unicode="&#x144f;" horiz-adv-x="1474" 
d="M1206 723q0 111 -25 210.5t-81 174.5t-145.5 118.5t-217.5 43.5q-130 0 -219.5 -43.5t-145 -118.5t-80 -174.5t-24.5 -210.5v-723h-168v723q0 145 35.5 274.5t112 226.5t197.5 153.5t292 56.5t292 -56.5t197.5 -153.5t112 -226.5t35.5 -274.5v-723h-168v723zM625 1746
q0 23 9 43.5t24 35.5t35.5 24t43.5 9t43.5 -9t35.5 -24t24 -35.5t9 -43.5t-9 -43.5t-24 -35.5t-35.5 -24t-43.5 -9t-43.5 9t-35.5 24t-24 35.5t-9 43.5z" />
    <glyph glyph-name="uni1450" unicode="&#x1450;" 
d="M100 1266v168h723q145 0 274.5 -42t226.5 -130t153.5 -223.5t56.5 -321.5q0 -185 -56.5 -320t-153.5 -223t-226.5 -131t-274.5 -43h-723v168h723q111 0 210.5 31.5t174.5 98t118.5 170.5t43.5 249q0 143 -43.5 246.5t-118.5 171t-174.5 99.5t-210.5 32h-723z" />
    <glyph glyph-name="uni1451" unicode="&#x1451;" 
d="M100 1266v168h723q145 0 274.5 -42t226.5 -130t153.5 -223.5t56.5 -321.5q0 -185 -56.5 -320t-153.5 -223t-226.5 -131t-274.5 -43h-723v168h723q111 0 210.5 31.5t174.5 98t118.5 170.5t43.5 249q0 143 -43.5 246.5t-118.5 171t-174.5 99.5t-210.5 32h-723zM346 1746
q0 23 9 43.5t24 35.5t35.5 24t43.5 9t43.5 -9t35.5 -24t24 -35.5t9 -43.5t-9 -43.5t-24 -35.5t-35.5 -24t-43.5 -9t-43.5 9t-35.5 24t-24 35.5t-9 43.5z" />
    <glyph glyph-name="uni1452" unicode="&#x1452;" 
d="M100 1266v168h723q145 0 274.5 -42t226.5 -130t153.5 -223.5t56.5 -321.5q0 -185 -56.5 -320t-153.5 -223t-226.5 -131t-274.5 -43h-723v168h723q111 0 210.5 31.5t174.5 98t118.5 170.5t43.5 249q0 143 -43.5 246.5t-118.5 171t-174.5 99.5t-210.5 32h-723zM346 1746
q0 23 9 43.5t24 35.5t35.5 24t43.5 9t43.5 -9t35.5 -24t24 -35.5t9 -43.5t-9 -43.5t-24 -35.5t-35.5 -24t-43.5 -9t-43.5 9t-35.5 24t-24 35.5t-9 43.5zM705 1746q0 23 9 43.5t24 35.5t35.5 24t43.5 9t43.5 -9t35.5 -24t24 -35.5t9 -43.5t-9 -43.5t-24 -35.5t-35.5 -24
t-43.5 -9t-43.5 9t-35.5 24t-24 35.5t-9 43.5z" />
    <glyph glyph-name="uni1453" unicode="&#x1453;" 
d="M100 1266v168h723q145 0 274.5 -42t226.5 -130t153.5 -223.5t56.5 -321.5q0 -185 -56.5 -320t-153.5 -223t-226.5 -131t-274.5 -43h-723v168h723q111 0 210.5 31.5t174.5 98t118.5 170.5t43.5 249q0 143 -43.5 246.5t-118.5 171t-174.5 99.5t-210.5 32h-723zM552 508
h-164v417h164v-417z" />
    <glyph glyph-name="uni1454" unicode="&#x1454;" 
d="M100 1266v168h723q145 0 274.5 -42t226.5 -130t153.5 -223.5t56.5 -321.5q0 -185 -56.5 -320t-153.5 -223t-226.5 -131t-274.5 -43h-723v168h723q111 0 210.5 31.5t174.5 98t118.5 170.5t43.5 249q0 143 -43.5 246.5t-118.5 171t-174.5 99.5t-210.5 32h-723zM368 717
q0 23 9 43.5t24 35.5t35.5 24t43.5 9t43.5 -9t35.5 -24t24 -35.5t9 -43.5t-9 -43.5t-24 -35.5t-35.5 -24t-43.5 -9t-43.5 9t-35.5 24t-24 35.5t-9 43.5z" />
    <glyph glyph-name="uni1455" unicode="&#x1455;" 
d="M811 1266q-111 0 -210.5 -32t-174.5 -99.5t-118.5 -171t-43.5 -246.5q0 -145 43.5 -249t118.5 -170.5t174.5 -98t210.5 -31.5h723v-168h-723q-145 0 -274.5 43t-226.5 131t-153.5 223t-56.5 320q0 186 56.5 321.5t153.5 223.5t226.5 130t274.5 42h723v-168h-723z" />
    <glyph glyph-name="uni1456" unicode="&#x1456;" 
d="M811 1266q-111 0 -210.5 -32t-174.5 -99.5t-118.5 -171t-43.5 -246.5q0 -145 43.5 -249t118.5 -170.5t174.5 -98t210.5 -31.5h723v-168h-723q-145 0 -274.5 43t-226.5 131t-153.5 223t-56.5 320q0 186 56.5 321.5t153.5 223.5t226.5 130t274.5 42h723v-168h-723z
M1064 1746q0 23 9 43.5t24 35.5t35.5 24t43.5 9t43.5 -9t35.5 -24t24 -35.5t9 -43.5t-9 -43.5t-24 -35.5t-35.5 -24t-43.5 -9t-43.5 9t-35.5 24t-24 35.5t-9 43.5z" />
    <glyph glyph-name="uni1457" unicode="&#x1457;" horiz-adv-x="1708" 
d="M502 711q0 -111 25 -210.5t81 -174.5t145.5 -118.5t217.5 -43.5q130 0 219.5 43.5t145 118.5t80 174.5t24.5 210.5v723h168v-723q0 -145 -35.5 -274.5t-112 -226.5t-197.5 -153.5t-292 -56.5t-292 56.5t-197.5 153.5t-112 226.5t-35.5 274.5v723h168v-723zM10 717
q0 23 9 43.5t24 35.5t35.5 24t43.5 9t43.5 -9t35.5 -24t24 -35.5t9 -43.5t-9 -43.5t-24 -35.5t-35.5 -24t-43.5 -9t-43.5 9t-35.5 24t-24 35.5t-9 43.5z" />
    <glyph glyph-name="uni1458" unicode="&#x1458;" horiz-adv-x="1708" 
d="M268 711q0 -111 25 -210.5t81 -174.5t145.5 -118.5t217.5 -43.5q130 0 219.5 43.5t145 118.5t80 174.5t24.5 210.5v723h168v-723q0 -145 -35.5 -274.5t-112 -226.5t-197.5 -153.5t-292 -56.5t-292 56.5t-197.5 153.5t-112 226.5t-35.5 274.5v723h168v-723zM1474 717
q0 23 9 43.5t24 35.5t35.5 24t43.5 9t43.5 -9t35.5 -24t24 -35.5t9 -43.5t-9 -43.5t-24 -35.5t-35.5 -24t-43.5 -9t-43.5 9t-35.5 24t-24 35.5t-9 43.5z" />
    <glyph glyph-name="uni1459" unicode="&#x1459;" horiz-adv-x="1708" 
d="M1440 723q0 111 -25 210.5t-81 174.5t-145.5 118.5t-217.5 43.5q-130 0 -219.5 -43.5t-145 -118.5t-80 -174.5t-24.5 -210.5v-723h-168v723q0 145 35.5 274.5t112 226.5t197.5 153.5t292 56.5t292 -56.5t197.5 -153.5t112 -226.5t35.5 -274.5v-723h-168v723zM10 717
q0 23 9 43.5t24 35.5t35.5 24t43.5 9t43.5 -9t35.5 -24t24 -35.5t9 -43.5t-9 -43.5t-24 -35.5t-35.5 -24t-43.5 -9t-43.5 9t-35.5 24t-24 35.5t-9 43.5z" />
    <glyph glyph-name="uni145A" unicode="&#x145a;" horiz-adv-x="1708" 
d="M1206 723q0 111 -25 210.5t-81 174.5t-145.5 118.5t-217.5 43.5q-130 0 -219.5 -43.5t-145 -118.5t-80 -174.5t-24.5 -210.5v-723h-168v723q0 145 35.5 274.5t112 226.5t197.5 153.5t292 56.5t292 -56.5t197.5 -153.5t112 -226.5t35.5 -274.5v-723h-168v723zM1474 717
q0 23 9 43.5t24 35.5t35.5 24t43.5 9t43.5 -9t35.5 -24t24 -35.5t9 -43.5t-9 -43.5t-24 -35.5t-35.5 -24t-43.5 -9t-43.5 9t-35.5 24t-24 35.5t-9 43.5z" />
    <glyph glyph-name="uni145B" unicode="&#x145b;" horiz-adv-x="1708" 
d="M1440 723q0 111 -25 210.5t-81 174.5t-145.5 118.5t-217.5 43.5q-130 0 -219.5 -43.5t-145 -118.5t-80 -174.5t-24.5 -210.5v-723h-168v723q0 145 35.5 274.5t112 226.5t197.5 153.5t292 56.5t292 -56.5t197.5 -153.5t112 -226.5t35.5 -274.5v-723h-168v723zM10 717
q0 23 9 43.5t24 35.5t35.5 24t43.5 9t43.5 -9t35.5 -24t24 -35.5t9 -43.5t-9 -43.5t-24 -35.5t-35.5 -24t-43.5 -9t-43.5 9t-35.5 24t-24 35.5t-9 43.5zM859 1746q0 23 9 43.5t24 35.5t35.5 24t43.5 9t43.5 -9t35.5 -24t24 -35.5t9 -43.5t-9 -43.5t-24 -35.5t-35.5 -24
t-43.5 -9t-43.5 9t-35.5 24t-24 35.5t-9 43.5z" />
    <glyph glyph-name="uni145C" unicode="&#x145c;" horiz-adv-x="1708" 
d="M1206 723q0 111 -25 210.5t-81 174.5t-145.5 118.5t-217.5 43.5q-130 0 -219.5 -43.5t-145 -118.5t-80 -174.5t-24.5 -210.5v-723h-168v723q0 145 35.5 274.5t112 226.5t197.5 153.5t292 56.5t292 -56.5t197.5 -153.5t112 -226.5t35.5 -274.5v-723h-168v723zM1474 717
q0 23 9 43.5t24 35.5t35.5 24t43.5 9t43.5 -9t35.5 -24t24 -35.5t9 -43.5t-9 -43.5t-24 -35.5t-35.5 -24t-43.5 -9t-43.5 9t-35.5 24t-24 35.5t-9 43.5zM625 1746q0 23 9 43.5t24 35.5t35.5 24t43.5 9t43.5 -9t35.5 -24t24 -35.5t9 -43.5t-9 -43.5t-24 -35.5t-35.5 -24
t-43.5 -9t-43.5 9t-35.5 24t-24 35.5t-9 43.5z" />
    <glyph glyph-name="uni145D" unicode="&#x145d;" horiz-adv-x="1868" 
d="M334 1266v168h723q145 0 274.5 -42t226.5 -130t153.5 -223.5t56.5 -321.5q0 -185 -56.5 -320t-153.5 -223t-226.5 -131t-274.5 -43h-723v168h723q111 0 210.5 31.5t174.5 98t118.5 170.5t43.5 249q0 143 -43.5 246.5t-118.5 171t-174.5 99.5t-210.5 32h-723zM10 717
q0 23 9 43.5t24 35.5t35.5 24t43.5 9t43.5 -9t35.5 -24t24 -35.5t9 -43.5t-9 -43.5t-24 -35.5t-35.5 -24t-43.5 -9t-43.5 9t-35.5 24t-24 35.5t-9 43.5z" />
    <glyph glyph-name="uni145E" unicode="&#x145e;" horiz-adv-x="1868" 
d="M100 1266v168h723q145 0 274.5 -42t226.5 -130t153.5 -223.5t56.5 -321.5q0 -185 -56.5 -320t-153.5 -223t-226.5 -131t-274.5 -43h-723v168h723q111 0 210.5 31.5t174.5 98t118.5 170.5t43.5 249q0 143 -43.5 246.5t-118.5 171t-174.5 99.5t-210.5 32h-723zM1634 717
q0 23 9 43.5t24 35.5t35.5 24t43.5 9t43.5 -9t35.5 -24t24 -35.5t9 -43.5t-9 -43.5t-24 -35.5t-35.5 -24t-43.5 -9t-43.5 9t-35.5 24t-24 35.5t-9 43.5z" />
    <glyph glyph-name="uni145F" unicode="&#x145f;" horiz-adv-x="1868" 
d="M334 1266v168h723q145 0 274.5 -42t226.5 -130t153.5 -223.5t56.5 -321.5q0 -185 -56.5 -320t-153.5 -223t-226.5 -131t-274.5 -43h-723v168h723q111 0 210.5 31.5t174.5 98t118.5 170.5t43.5 249q0 143 -43.5 246.5t-118.5 171t-174.5 99.5t-210.5 32h-723zM10 717
q0 23 9 43.5t24 35.5t35.5 24t43.5 9t43.5 -9t35.5 -24t24 -35.5t9 -43.5t-9 -43.5t-24 -35.5t-35.5 -24t-43.5 -9t-43.5 9t-35.5 24t-24 35.5t-9 43.5zM580 1746q0 23 9 43.5t24 35.5t35.5 24t43.5 9t43.5 -9t35.5 -24t24 -35.5t9 -43.5t-9 -43.5t-24 -35.5t-35.5 -24
t-43.5 -9t-43.5 9t-35.5 24t-24 35.5t-9 43.5z" />
    <glyph glyph-name="uni1460" unicode="&#x1460;" horiz-adv-x="1868" 
d="M100 1266v168h723q145 0 274.5 -42t226.5 -130t153.5 -223.5t56.5 -321.5q0 -185 -56.5 -320t-153.5 -223t-226.5 -131t-274.5 -43h-723v168h723q111 0 210.5 31.5t174.5 98t118.5 170.5t43.5 249q0 143 -43.5 246.5t-118.5 171t-174.5 99.5t-210.5 32h-723zM1634 717
q0 23 9 43.5t24 35.5t35.5 24t43.5 9t43.5 -9t35.5 -24t24 -35.5t9 -43.5t-9 -43.5t-24 -35.5t-35.5 -24t-43.5 -9t-43.5 9t-35.5 24t-24 35.5t-9 43.5zM346 1746q0 23 9 43.5t24 35.5t35.5 24t43.5 9t43.5 -9t35.5 -24t24 -35.5t9 -43.5t-9 -43.5t-24 -35.5t-35.5 -24
t-43.5 -9t-43.5 9t-35.5 24t-24 35.5t-9 43.5z" />
    <glyph glyph-name="uni1461" unicode="&#x1461;" horiz-adv-x="1868" 
d="M1045 1266q-111 0 -210.5 -32t-174.5 -99.5t-118.5 -171t-43.5 -246.5q0 -145 43.5 -249t118.5 -170.5t174.5 -98t210.5 -31.5h723v-168h-723q-145 0 -274.5 43t-226.5 131t-153.5 223t-56.5 320q0 186 56.5 321.5t153.5 223.5t226.5 130t274.5 42h723v-168h-723zM10 717
q0 23 9 43.5t24 35.5t35.5 24t43.5 9t43.5 -9t35.5 -24t24 -35.5t9 -43.5t-9 -43.5t-24 -35.5t-35.5 -24t-43.5 -9t-43.5 9t-35.5 24t-24 35.5t-9 43.5z" />
    <glyph glyph-name="uni1462" unicode="&#x1462;" horiz-adv-x="1868" 
d="M811 1266q-111 0 -210.5 -32t-174.5 -99.5t-118.5 -171t-43.5 -246.5q0 -145 43.5 -249t118.5 -170.5t174.5 -98t210.5 -31.5h723v-168h-723q-145 0 -274.5 43t-226.5 131t-153.5 223t-56.5 320q0 186 56.5 321.5t153.5 223.5t226.5 130t274.5 42h723v-168h-723z
M1634 717q0 23 9 43.5t24 35.5t35.5 24t43.5 9t43.5 -9t35.5 -24t24 -35.5t9 -43.5t-9 -43.5t-24 -35.5t-35.5 -24t-43.5 -9t-43.5 9t-35.5 24t-24 35.5t-9 43.5z" />
    <glyph glyph-name="uni1463" unicode="&#x1463;" horiz-adv-x="1868" 
d="M1045 1266q-111 0 -210.5 -32t-174.5 -99.5t-118.5 -171t-43.5 -246.5q0 -145 43.5 -249t118.5 -170.5t174.5 -98t210.5 -31.5h723v-168h-723q-145 0 -274.5 43t-226.5 131t-153.5 223t-56.5 320q0 186 56.5 321.5t153.5 223.5t226.5 130t274.5 42h723v-168h-723zM10 717
q0 23 9 43.5t24 35.5t35.5 24t43.5 9t43.5 -9t35.5 -24t24 -35.5t9 -43.5t-9 -43.5t-24 -35.5t-35.5 -24t-43.5 -9t-43.5 9t-35.5 24t-24 35.5t-9 43.5zM1298 1746q0 23 9 43.5t24 35.5t35.5 24t43.5 9t43.5 -9t35.5 -24t24 -35.5t9 -43.5t-9 -43.5t-24 -35.5t-35.5 -24
t-43.5 -9t-43.5 9t-35.5 24t-24 35.5t-9 43.5z" />
    <glyph glyph-name="uni1464" unicode="&#x1464;" horiz-adv-x="1868" 
d="M811 1266q-111 0 -210.5 -32t-174.5 -99.5t-118.5 -171t-43.5 -246.5q0 -145 43.5 -249t118.5 -170.5t174.5 -98t210.5 -31.5h723v-168h-723q-145 0 -274.5 43t-226.5 131t-153.5 223t-56.5 320q0 186 56.5 321.5t153.5 223.5t226.5 130t274.5 42h723v-168h-723z
M1634 717q0 23 9 43.5t24 35.5t35.5 24t43.5 9t43.5 -9t35.5 -24t24 -35.5t9 -43.5t-9 -43.5t-24 -35.5t-35.5 -24t-43.5 -9t-43.5 9t-35.5 24t-24 35.5t-9 43.5zM1064 1746q0 23 9 43.5t24 35.5t35.5 24t43.5 9t43.5 -9t35.5 -24t24 -35.5t9 -43.5t-9 -43.5t-24 -35.5
t-35.5 -24t-43.5 -9t-43.5 9t-35.5 24t-24 35.5t-9 43.5z" />
    <glyph glyph-name="uni1465" unicode="&#x1465;" horiz-adv-x="1868" 
d="M1045 1266q-111 0 -210.5 -32t-174.5 -99.5t-118.5 -171t-43.5 -246.5q0 -145 43.5 -249t118.5 -170.5t174.5 -98t210.5 -31.5h723v-168h-723q-145 0 -274.5 43t-226.5 131t-153.5 223t-56.5 320q0 186 56.5 321.5t153.5 223.5t226.5 130t274.5 42h723v-168h-723z
M10 1075q0 23 9 43.5t24 35.5t35.5 24t43.5 9t43.5 -9t35.5 -24t24 -35.5t9 -43.5t-9 -43.5t-24 -35.5t-35.5 -24t-43.5 -9t-43.5 9t-35.5 24t-24 35.5t-9 43.5zM10 358q0 23 9 43.5t24 35.5t35.5 24t43.5 9t43.5 -9t35.5 -24t24 -35.5t9 -43.5t-9 -43.5t-24 -35.5
t-35.5 -24t-43.5 -9t-43.5 9t-35.5 24t-24 35.5t-9 43.5z" />
    <glyph glyph-name="uni1466" unicode="&#x1466;" horiz-adv-x="917" 
d="M458 717q-74 0 -139.5 28t-114 77t-76.5 114t-28 140q0 74 28 139.5t76.5 114t114 76.5t139.5 28h359v-126h-351q-47 0 -91 -18t-77.5 -49.5t-53.5 -73.5t-20 -91t20 -91.5t53.5 -74t77.5 -49.5t91 -18h351v-126h-359z" />
    <glyph glyph-name="uni1467" unicode="&#x1467;" horiz-adv-x="1698" 
d="M268 711q0 -111 25 -210.5t81 -174.5t145.5 -118.5t217.5 -43.5q130 0 219.5 43.5t145 118.5t80 174.5t24.5 210.5v723h168v-723q0 -145 -35.5 -274.5t-112 -226.5t-197.5 -153.5t-292 -56.5t-292 56.5t-197.5 153.5t-112 226.5t-35.5 274.5v723h168v-723zM1474 717v717
h124v-717h-124z" />
    <glyph glyph-name="uni1468" unicode="&#x1468;" horiz-adv-x="1698" 
d="M1206 723q0 111 -25 210.5t-81 174.5t-145.5 118.5t-217.5 43.5q-130 0 -219.5 -43.5t-145 -118.5t-80 -174.5t-24.5 -210.5v-723h-168v723q0 145 35.5 274.5t112 226.5t197.5 153.5t292 56.5t292 -56.5t197.5 -153.5t112 -226.5t35.5 -274.5v-723h-168v723zM1474 717
v717h124v-717h-124z" />
    <glyph glyph-name="uni1469" unicode="&#x1469;" horiz-adv-x="1858" 
d="M100 1266v168h723q145 0 274.5 -42t226.5 -130t153.5 -223.5t56.5 -321.5q0 -185 -56.5 -320t-153.5 -223t-226.5 -131t-274.5 -43h-723v168h723q111 0 210.5 31.5t174.5 98t118.5 170.5t43.5 249q0 143 -43.5 246.5t-118.5 171t-174.5 99.5t-210.5 32h-723zM1634 717
v717h124v-717h-124z" />
    <glyph glyph-name="uni146A" unicode="&#x146a;" horiz-adv-x="1858" 
d="M811 1266q-111 0 -210.5 -32t-174.5 -99.5t-118.5 -171t-43.5 -246.5q0 -145 43.5 -249t118.5 -170.5t174.5 -98t210.5 -31.5h723v-168h-723q-145 0 -274.5 43t-226.5 131t-153.5 223t-56.5 320q0 186 56.5 321.5t153.5 223.5t226.5 130t274.5 42h723v-168h-723z
M1634 717v717h124v-717h-124z" />
    <glyph glyph-name="uni146B" unicode="&#x146b;" horiz-adv-x="1085" 
d="M817 549h-274q-92 0 -172.5 34.5t-140.5 94.5t-95 140.5t-35 172.5q0 91 35 172t95 141t140.5 95t172.5 35q91 0 171.5 -35t140.5 -95t95 -141t35 -172v-991h-168v549zM817 991q0 59 -22 109.5t-59.5 87t-87.5 57.5t-107 21t-107 -21t-87 -57.5t-58 -87t-21 -109.5
q0 -58 21 -108t58 -87t87 -58t107 -21h276v274z" />
    <glyph glyph-name="uni146C" unicode="&#x146c;" horiz-adv-x="1085" 
d="M268 0h-168v991q0 91 34.5 172t94.5 141t140.5 95t172.5 35q91 0 172 -35t141 -95t95 -141t35 -172q0 -92 -35 -172.5t-95 -140.5t-141 -94.5t-172 -34.5h-274v-549zM268 717h276q57 0 107 21t87 58t58 87t21 108q0 59 -21 109.5t-58 87t-87 57.5t-107 21t-107 -21
t-87.5 -57.5t-59.5 -87t-22 -109.5v-274zM430 1746q0 -23 9 -43.5t24 -35.5t35.5 -24t43.5 -9t43.5 9t35.5 24t24 35.5t9 43.5t-9 43.5t-24 35.5t-35.5 24t-43.5 9t-43.5 -9t-35.5 -24t-24 -35.5t-9 -43.5zM330 1749q0 43 17 81t45.5 66.5t67 45t81.5 16.5t81.5 -16.5
t68 -45t46.5 -66.5t17 -81t-17 -82t-46.5 -68.5t-68 -47t-81.5 -17.5t-81.5 17.5t-67 47t-45.5 68.5t-17 82z" />
    <glyph glyph-name="uni146D" unicode="&#x146d;" horiz-adv-x="1085" 
d="M268 0h-168v991q0 91 34.5 172t94.5 141t140.5 95t172.5 35q91 0 172 -35t141 -95t95 -141t35 -172q0 -92 -35 -172.5t-95 -140.5t-141 -94.5t-172 -34.5h-274v-549zM268 717h276q57 0 107 21t87 58t58 87t21 108q0 59 -21 109.5t-58 87t-87 57.5t-107 21t-107 -21
t-87.5 -57.5t-59.5 -87t-22 -109.5v-274z" />
    <glyph glyph-name="uni146E" unicode="&#x146e;" horiz-adv-x="1085" 
d="M268 0h-168v991q0 91 34.5 172t94.5 141t140.5 95t172.5 35q91 0 172 -35t141 -95t95 -141t35 -172q0 -92 -35 -172.5t-95 -140.5t-141 -94.5t-172 -34.5h-274v-549zM268 717h276q57 0 107 21t87 58t58 87t21 108q0 59 -21 109.5t-58 87t-87 57.5t-107 21t-107 -21
t-87.5 -57.5t-59.5 -87t-22 -109.5v-274zM430 1746q0 23 9 43.5t24 35.5t35.5 24t43.5 9t43.5 -9t35.5 -24t24 -35.5t9 -43.5t-9 -43.5t-24 -35.5t-35.5 -24t-43.5 -9t-43.5 9t-35.5 24t-24 35.5t-9 43.5z" />
    <glyph glyph-name="uni146F" unicode="&#x146f;" horiz-adv-x="1085" 
d="M817 1434h168v-991q0 -92 -35 -172.5t-95 -140.5t-140.5 -95t-171.5 -35q-92 0 -172.5 35t-140.5 95t-95 140.5t-35 172.5q0 91 35 171.5t95 140.5t140.5 95t172.5 35h274v549zM817 717h-276q-57 0 -107 -21t-87 -58t-58 -87t-21 -108q0 -59 21 -109.5t58 -87t87 -57.5
t107 -21t107 21t87.5 57.5t59.5 87t22 109.5v274z" />
    <glyph glyph-name="uni1470" unicode="&#x1470;" horiz-adv-x="1085" 
d="M817 1434h168v-991q0 -92 -35 -172.5t-95 -140.5t-140.5 -95t-171.5 -35q-92 0 -172.5 35t-140.5 95t-95 140.5t-35 172.5q0 91 35 171.5t95 140.5t140.5 95t172.5 35h274v549zM817 717h-276q-57 0 -107 -21t-87 -58t-58 -87t-21 -108q0 -59 21 -109.5t58 -87t87 -57.5
t107 -21t107 21t87.5 57.5t59.5 87t22 109.5v274zM789 1746q0 23 9 43.5t24 35.5t35.5 24t43.5 9t43.5 -9t35.5 -24t24 -35.5t9 -43.5t-9 -43.5t-24 -35.5t-35.5 -24t-43.5 -9t-43.5 9t-35.5 24t-24 35.5t-9 43.5z" />
    <glyph glyph-name="uni1471" unicode="&#x1471;" horiz-adv-x="1085" 
d="M817 1434h168v-991q0 -92 -35 -172.5t-95 -140.5t-140.5 -95t-171.5 -35q-92 0 -172.5 35t-140.5 95t-95 140.5t-35 172.5q0 91 35 171.5t95 140.5t140.5 95t172.5 35h274v549zM817 717h-276q-57 0 -107 -21t-87 -58t-58 -87t-21 -108q0 -59 21 -109.5t58 -87t87 -57.5
t107 -21t107 21t87.5 57.5t59.5 87t22 109.5v274zM789 1746q0 23 9 43.5t24 35.5t35.5 24t43.5 9t43.5 -9t35.5 -24t24 -35.5t9 -43.5t-9 -43.5t-24 -35.5t-35.5 -24t-43.5 -9t-43.5 9t-35.5 24t-24 35.5t-9 43.5zM429 1746q0 23 9 43.5t24 35.5t35.5 24t43.5 9t43.5 -9
t35.5 -24t24 -35.5t9 -43.5t-9 -43.5t-24 -35.5t-35.5 -24t-43.5 -9t-43.5 9t-35.5 24t-24 35.5t-9 43.5z" />
    <glyph glyph-name="uni1472" unicode="&#x1472;" horiz-adv-x="1085" 
d="M268 885h274q91 0 172 -35t141 -95t95 -140.5t35 -171.5q0 -92 -35 -172.5t-95 -140.5t-141 -95t-172 -35q-92 0 -172.5 35t-140.5 95t-94.5 140.5t-34.5 172.5v991h168v-549zM268 443q0 -59 22 -109.5t59.5 -87t87.5 -57.5t107 -21t107 21t87 57.5t58 87t21 109.5
q0 58 -21 108t-58 87t-87 58t-107 21h-276v-274z" />
    <glyph glyph-name="uni1473" unicode="&#x1473;" horiz-adv-x="1085" 
d="M268 885h274q91 0 172 -35t141 -95t95 -140.5t35 -171.5q0 -92 -35 -172.5t-95 -140.5t-141 -95t-172 -35q-92 0 -172.5 35t-140.5 95t-94.5 140.5t-34.5 172.5v991h168v-549zM268 443q0 -59 22 -109.5t59.5 -87t87.5 -57.5t107 -21t107 21t87 57.5t58 87t21 109.5
q0 58 -21 108t-58 87t-87 58t-107 21h-276v-274zM72 1746q0 23 9 43.5t24 35.5t35.5 24t43.5 9t43.5 -9t35.5 -24t24 -35.5t9 -43.5t-9 -43.5t-24 -35.5t-35.5 -24t-43.5 -9t-43.5 9t-35.5 24t-24 35.5t-9 43.5z" />
    <glyph glyph-name="uni1474" unicode="&#x1474;" horiz-adv-x="1319" 
d="M1051 549h-274q-92 0 -172.5 34.5t-140.5 94.5t-95 140.5t-35 172.5q0 91 35 172t95 141t140.5 95t172.5 35q91 0 171.5 -35t140.5 -95t95 -141t35 -172v-991h-168v549zM1051 991q0 59 -22 109.5t-59.5 87t-87.5 57.5t-107 21t-107 -21t-87 -57.5t-58 -87t-21 -109.5
q0 -58 21 -108t58 -87t87 -58t107 -21h276v274zM10 717q0 23 9 43.5t24 35.5t35.5 24t43.5 9t43.5 -9t35.5 -24t24 -35.5t9 -43.5t-9 -43.5t-24 -35.5t-35.5 -24t-43.5 -9t-43.5 9t-35.5 24t-24 35.5t-9 43.5z" />
    <glyph glyph-name="uni1475" unicode="&#x1475;" horiz-adv-x="1319" 
d="M817 549h-274q-92 0 -172.5 34.5t-140.5 94.5t-95 140.5t-35 172.5q0 91 35 172t95 141t140.5 95t172.5 35q91 0 171.5 -35t140.5 -95t95 -141t35 -172v-991h-168v549zM817 991q0 59 -22 109.5t-59.5 87t-87.5 57.5t-107 21t-107 -21t-87 -57.5t-58 -87t-21 -109.5
q0 -58 21 -108t58 -87t87 -58t107 -21h276v274zM1085 717q0 23 9 43.5t24 35.5t35.5 24t43.5 9t43.5 -9t35.5 -24t24 -35.5t9 -43.5t-9 -43.5t-24 -35.5t-35.5 -24t-43.5 -9t-43.5 9t-35.5 24t-24 35.5t-9 43.5z" />
    <glyph glyph-name="uni1476" unicode="&#x1476;" horiz-adv-x="1319" 
d="M502 0h-168v991q0 91 34.5 172t94.5 141t140.5 95t172.5 35q91 0 172 -35t141 -95t95 -141t35 -172q0 -92 -35 -172.5t-95 -140.5t-141 -94.5t-172 -34.5h-274v-549zM502 717h276q57 0 107 21t87 58t58 87t21 108q0 59 -21 109.5t-58 87t-87 57.5t-107 21t-107 -21
t-87.5 -57.5t-59.5 -87t-22 -109.5v-274zM10 717q0 23 9 43.5t24 35.5t35.5 24t43.5 9t43.5 -9t35.5 -24t24 -35.5t9 -43.5t-9 -43.5t-24 -35.5t-35.5 -24t-43.5 -9t-43.5 9t-35.5 24t-24 35.5t-9 43.5z" />
    <glyph glyph-name="uni1477" unicode="&#x1477;" horiz-adv-x="1319" 
d="M268 0h-168v991q0 91 34.5 172t94.5 141t140.5 95t172.5 35q91 0 172 -35t141 -95t95 -141t35 -172q0 -92 -35 -172.5t-95 -140.5t-141 -94.5t-172 -34.5h-274v-549zM268 717h276q57 0 107 21t87 58t58 87t21 108q0 59 -21 109.5t-58 87t-87 57.5t-107 21t-107 -21
t-87.5 -57.5t-59.5 -87t-22 -109.5v-274zM1085 717q0 23 9 43.5t24 35.5t35.5 24t43.5 9t43.5 -9t35.5 -24t24 -35.5t9 -43.5t-9 -43.5t-24 -35.5t-35.5 -24t-43.5 -9t-43.5 9t-35.5 24t-24 35.5t-9 43.5z" />
    <glyph glyph-name="uni1478" unicode="&#x1478;" horiz-adv-x="1319" 
d="M502 0h-168v991q0 91 34.5 172t94.5 141t140.5 95t172.5 35q91 0 172 -35t141 -95t95 -141t35 -172q0 -92 -35 -172.5t-95 -140.5t-141 -94.5t-172 -34.5h-274v-549zM502 717h276q57 0 107 21t87 58t58 87t21 108q0 59 -21 109.5t-58 87t-87 57.5t-107 21t-107 -21
t-87.5 -57.5t-59.5 -87t-22 -109.5v-274zM10 717q0 23 9 43.5t24 35.5t35.5 24t43.5 9t43.5 -9t35.5 -24t24 -35.5t9 -43.5t-9 -43.5t-24 -35.5t-35.5 -24t-43.5 -9t-43.5 9t-35.5 24t-24 35.5t-9 43.5zM664 1746q0 23 9 43.5t24 35.5t35.5 24t43.5 9t43.5 -9t35.5 -24
t24 -35.5t9 -43.5t-9 -43.5t-24 -35.5t-35.5 -24t-43.5 -9t-43.5 9t-35.5 24t-24 35.5t-9 43.5z" />
    <glyph glyph-name="uni1479" unicode="&#x1479;" horiz-adv-x="1319" 
d="M268 0h-168v991q0 91 34.5 172t94.5 141t140.5 95t172.5 35q91 0 172 -35t141 -95t95 -141t35 -172q0 -92 -35 -172.5t-95 -140.5t-141 -94.5t-172 -34.5h-274v-549zM268 717h276q57 0 107 21t87 58t58 87t21 108q0 59 -21 109.5t-58 87t-87 57.5t-107 21t-107 -21
t-87.5 -57.5t-59.5 -87t-22 -109.5v-274zM1085 717q0 23 9 43.5t24 35.5t35.5 24t43.5 9t43.5 -9t35.5 -24t24 -35.5t9 -43.5t-9 -43.5t-24 -35.5t-35.5 -24t-43.5 -9t-43.5 9t-35.5 24t-24 35.5t-9 43.5zM430 1746q0 23 9 43.5t24 35.5t35.5 24t43.5 9t43.5 -9t35.5 -24
t24 -35.5t9 -43.5t-9 -43.5t-24 -35.5t-35.5 -24t-43.5 -9t-43.5 9t-35.5 24t-24 35.5t-9 43.5z" />
    <glyph glyph-name="uni147A" unicode="&#x147a;" horiz-adv-x="1319" 
d="M1051 1434h168v-991q0 -92 -35 -172.5t-95 -140.5t-140.5 -95t-171.5 -35q-92 0 -172.5 35t-140.5 95t-95 140.5t-35 172.5q0 91 35 171.5t95 140.5t140.5 95t172.5 35h274v549zM1051 717h-276q-57 0 -107 -21t-87 -58t-58 -87t-21 -108q0 -59 21 -109.5t58 -87t87 -57.5
t107 -21t107 21t87.5 57.5t59.5 87t22 109.5v274zM10 717q0 23 9 43.5t24 35.5t35.5 24t43.5 9t43.5 -9t35.5 -24t24 -35.5t9 -43.5t-9 -43.5t-24 -35.5t-35.5 -24t-43.5 -9t-43.5 9t-35.5 24t-24 35.5t-9 43.5z" />
    <glyph glyph-name="uni147B" unicode="&#x147b;" horiz-adv-x="1319" 
d="M817 1434h168v-991q0 -92 -35 -172.5t-95 -140.5t-140.5 -95t-171.5 -35q-92 0 -172.5 35t-140.5 95t-95 140.5t-35 172.5q0 91 35 171.5t95 140.5t140.5 95t172.5 35h274v549zM817 717h-276q-57 0 -107 -21t-87 -58t-58 -87t-21 -108q0 -59 21 -109.5t58 -87t87 -57.5
t107 -21t107 21t87.5 57.5t59.5 87t22 109.5v274zM1085 717q0 23 9 43.5t24 35.5t35.5 24t43.5 9t43.5 -9t35.5 -24t24 -35.5t9 -43.5t-9 -43.5t-24 -35.5t-35.5 -24t-43.5 -9t-43.5 9t-35.5 24t-24 35.5t-9 43.5z" />
    <glyph glyph-name="uni147C" unicode="&#x147c;" horiz-adv-x="1319" 
d="M1051 1434h168v-991q0 -92 -35 -172.5t-95 -140.5t-140.5 -95t-171.5 -35q-92 0 -172.5 35t-140.5 95t-95 140.5t-35 172.5q0 91 35 171.5t95 140.5t140.5 95t172.5 35h274v549zM1051 717h-276q-57 0 -107 -21t-87 -58t-58 -87t-21 -108q0 -59 21 -109.5t58 -87t87 -57.5
t107 -21t107 21t87.5 57.5t59.5 87t22 109.5v274zM10 717q0 23 9 43.5t24 35.5t35.5 24t43.5 9t43.5 -9t35.5 -24t24 -35.5t9 -43.5t-9 -43.5t-24 -35.5t-35.5 -24t-43.5 -9t-43.5 9t-35.5 24t-24 35.5t-9 43.5zM1023 1746q0 23 9 43.5t24 35.5t35.5 24t43.5 9t43.5 -9
t35.5 -24t24 -35.5t9 -43.5t-9 -43.5t-24 -35.5t-35.5 -24t-43.5 -9t-43.5 9t-35.5 24t-24 35.5t-9 43.5z" />
    <glyph glyph-name="uni147D" unicode="&#x147d;" horiz-adv-x="1319" 
d="M817 1434h168v-991q0 -92 -35 -172.5t-95 -140.5t-140.5 -95t-171.5 -35q-92 0 -172.5 35t-140.5 95t-95 140.5t-35 172.5q0 91 35 171.5t95 140.5t140.5 95t172.5 35h274v549zM817 717h-276q-57 0 -107 -21t-87 -58t-58 -87t-21 -108q0 -59 21 -109.5t58 -87t87 -57.5
t107 -21t107 21t87.5 57.5t59.5 87t22 109.5v274zM1085 717q0 23 9 43.5t24 35.5t35.5 24t43.5 9t43.5 -9t35.5 -24t24 -35.5t9 -43.5t-9 -43.5t-24 -35.5t-35.5 -24t-43.5 -9t-43.5 9t-35.5 24t-24 35.5t-9 43.5zM789 1746q0 23 9 43.5t24 35.5t35.5 24t43.5 9t43.5 -9
t35.5 -24t24 -35.5t9 -43.5t-9 -43.5t-24 -35.5t-35.5 -24t-43.5 -9t-43.5 9t-35.5 24t-24 35.5t-9 43.5z" />
    <glyph glyph-name="uni147E" unicode="&#x147e;" horiz-adv-x="1319" 
d="M502 885h274q91 0 172 -35t141 -95t95 -140.5t35 -171.5q0 -92 -35 -172.5t-95 -140.5t-141 -95t-172 -35q-92 0 -172.5 35t-140.5 95t-94.5 140.5t-34.5 172.5v991h168v-549zM502 443q0 -59 22 -109.5t59.5 -87t87.5 -57.5t107 -21t107 21t87 57.5t58 87t21 109.5
q0 58 -21 108t-58 87t-87 58t-107 21h-276v-274zM10 717q0 23 9 43.5t24 35.5t35.5 24t43.5 9t43.5 -9t35.5 -24t24 -35.5t9 -43.5t-9 -43.5t-24 -35.5t-35.5 -24t-43.5 -9t-43.5 9t-35.5 24t-24 35.5t-9 43.5z" />
    <glyph glyph-name="uni147F" unicode="&#x147f;" horiz-adv-x="1319" 
d="M268 885h274q91 0 172 -35t141 -95t95 -140.5t35 -171.5q0 -92 -35 -172.5t-95 -140.5t-141 -95t-172 -35q-92 0 -172.5 35t-140.5 95t-94.5 140.5t-34.5 172.5v991h168v-549zM268 443q0 -59 22 -109.5t59.5 -87t87.5 -57.5t107 -21t107 21t87 57.5t58 87t21 109.5
q0 58 -21 108t-58 87t-87 58t-107 21h-276v-274zM1085 717q0 23 9 43.5t24 35.5t35.5 24t43.5 9t43.5 -9t35.5 -24t24 -35.5t9 -43.5t-9 -43.5t-24 -35.5t-35.5 -24t-43.5 -9t-43.5 9t-35.5 24t-24 35.5t-9 43.5z" />
    <glyph glyph-name="uni1480" unicode="&#x1480;" horiz-adv-x="1319" 
d="M502 885h274q91 0 172 -35t141 -95t95 -140.5t35 -171.5q0 -92 -35 -172.5t-95 -140.5t-141 -95t-172 -35q-92 0 -172.5 35t-140.5 95t-94.5 140.5t-34.5 172.5v991h168v-549zM502 443q0 -59 22 -109.5t59.5 -87t87.5 -57.5t107 -21t107 21t87 57.5t58 87t21 109.5
q0 58 -21 108t-58 87t-87 58t-107 21h-276v-274zM10 717q0 23 9 43.5t24 35.5t35.5 24t43.5 9t43.5 -9t35.5 -24t24 -35.5t9 -43.5t-9 -43.5t-24 -35.5t-35.5 -24t-43.5 -9t-43.5 9t-35.5 24t-24 35.5t-9 43.5zM306 1746q0 23 9 43.5t24 35.5t35.5 24t43.5 9t43.5 -9
t35.5 -24t24 -35.5t9 -43.5t-9 -43.5t-24 -35.5t-35.5 -24t-43.5 -9t-43.5 9t-35.5 24t-24 35.5t-9 43.5z" />
    <glyph glyph-name="uni1481" unicode="&#x1481;" horiz-adv-x="1319" 
d="M268 885h274q91 0 172 -35t141 -95t95 -140.5t35 -171.5q0 -92 -35 -172.5t-95 -140.5t-141 -95t-172 -35q-92 0 -172.5 35t-140.5 95t-94.5 140.5t-34.5 172.5v991h168v-549zM268 443q0 -59 22 -109.5t59.5 -87t87.5 -57.5t107 -21t107 21t87 57.5t58 87t21 109.5
q0 58 -21 108t-58 87t-87 58t-107 21h-276v-274zM1085 717q0 23 9 43.5t24 35.5t35.5 24t43.5 9t43.5 -9t35.5 -24t24 -35.5t9 -43.5t-9 -43.5t-24 -35.5t-35.5 -24t-43.5 -9t-43.5 9t-35.5 24t-24 35.5t-9 43.5zM72 1746q0 23 9 43.5t24 35.5t35.5 24t43.5 9t43.5 -9
t35.5 -24t24 -35.5t9 -43.5t-9 -43.5t-24 -35.5t-35.5 -24t-43.5 -9t-43.5 9t-35.5 24t-24 35.5t-9 43.5z" />
    <glyph glyph-name="uni1482" unicode="&#x1482;" horiz-adv-x="1319" 
d="M502 885h274q91 0 172 -35t141 -95t95 -140.5t35 -171.5q0 -92 -35 -172.5t-95 -140.5t-141 -95t-172 -35q-92 0 -172.5 35t-140.5 95t-94.5 140.5t-34.5 172.5v991h168v-549zM502 443q0 -59 22 -109.5t59.5 -87t87.5 -57.5t107 -21t107 21t87 57.5t58 87t21 109.5
q0 58 -21 108t-58 87t-87 58t-107 21h-276v-274zM10 1075q0 23 9 43.5t24 35.5t35.5 24t43.5 9t43.5 -9t35.5 -24t24 -35.5t9 -43.5t-9 -43.5t-24 -35.5t-35.5 -24t-43.5 -9t-43.5 9t-35.5 24t-24 35.5t-9 43.5zM10 358q0 23 9 43.5t24 35.5t35.5 24t43.5 9t43.5 -9
t35.5 -24t24 -35.5t9 -43.5t-9 -43.5t-24 -35.5t-35.5 -24t-43.5 -9t-43.5 9t-35.5 24t-24 35.5t-9 43.5z" />
    <glyph glyph-name="uni1483" unicode="&#x1483;" horiz-adv-x="642" 
d="M224 1159h97q46 0 86 -17.5t70 -47.5t47.5 -70t17.5 -86t-17.5 -86t-47.5 -70t-70 -47.5t-86 -17.5t-86 17.5t-70 47.5t-47.5 70t-17.5 86v496h124v-275zM224 938q0 -16 4.5 -33t16 -31.5t30 -23.5t47.5 -9q21 0 38.5 8t30.5 21.5t20 31t7 36.5t-7 36.5t-20 31
t-30.5 21.5t-38.5 8h-98v-97z" />
    <glyph glyph-name="uni1484" unicode="&#x1484;" horiz-adv-x="642" 
d="M418 1434h124v-496q0 -46 -17.5 -86t-47.5 -70t-70 -47.5t-86 -17.5t-86 17.5t-70 47.5t-47.5 70t-17.5 86t17.5 86t47.5 70t70 47.5t86 17.5h97v275zM418 1035h-98q-21 0 -38.5 -8t-30.5 -21.5t-20 -31t-7 -36.5t7 -36.5t20 -31t30.5 -21.5t38.5 -8q28 0 47 9t30.5 23.5
t16 31.5t4.5 33v97z" />
    <glyph glyph-name="uni1485" unicode="&#x1485;" horiz-adv-x="1309" 
d="M817 549h-274q-92 0 -172.5 34.5t-140.5 94.5t-95 140.5t-35 172.5q0 91 35 172t95 141t140.5 95t172.5 35q91 0 171.5 -35t140.5 -95t95 -141t35 -172v-991h-168v549zM817 991q0 59 -22 109.5t-59.5 87t-87.5 57.5t-107 21t-107 -21t-87 -57.5t-58 -87t-21 -109.5
q0 -58 21 -108t58 -87t87 -58t107 -21h276v274zM1085 717v717h124v-717h-124z" />
    <glyph glyph-name="uni1486" unicode="&#x1486;" horiz-adv-x="1309" 
d="M268 0h-168v991q0 91 34.5 172t94.5 141t140.5 95t172.5 35q91 0 172 -35t141 -95t95 -141t35 -172q0 -92 -35 -172.5t-95 -140.5t-141 -94.5t-172 -34.5h-274v-549zM268 717h276q57 0 107 21t87 58t58 87t21 108q0 59 -21 109.5t-58 87t-87 57.5t-107 21t-107 -21
t-87.5 -57.5t-59.5 -87t-22 -109.5v-274zM1085 717v717h124v-717h-124z" />
    <glyph glyph-name="uni1487" unicode="&#x1487;" horiz-adv-x="1309" 
d="M817 1434h168v-991q0 -92 -35 -172.5t-95 -140.5t-140.5 -95t-171.5 -35q-92 0 -172.5 35t-140.5 95t-95 140.5t-35 172.5q0 91 35 171.5t95 140.5t140.5 95t172.5 35h274v549zM817 717h-276q-57 0 -107 -21t-87 -58t-58 -87t-21 -108q0 -59 21 -109.5t58 -87t87 -57.5
t107 -21t107 21t87.5 57.5t59.5 87t22 109.5v274zM1085 717v717h124v-717h-124z" />
    <glyph glyph-name="uni1488" unicode="&#x1488;" horiz-adv-x="1309" 
d="M268 885h274q91 0 172 -35t141 -95t95 -140.5t35 -171.5q0 -92 -35 -172.5t-95 -140.5t-141 -95t-172 -35q-92 0 -172.5 35t-140.5 95t-94.5 140.5t-34.5 172.5v991h168v-549zM268 443q0 -59 22 -109.5t59.5 -87t87.5 -57.5t107 -21t107 21t87 57.5t58 87t21 109.5
q0 58 -21 108t-58 87t-87 58t-107 21h-276v-274zM1085 717v717h124v-717h-124z" />
    <glyph glyph-name="uni1489" unicode="&#x1489;" horiz-adv-x="1085" 
d="M817 991q0 59 -22 109.5t-59.5 87t-87.5 57.5t-107 21t-107 -21t-87 -57.5t-58 -87t-21 -109.5v-91h-168v91q0 91 35 172t95 141t140.5 95t172.5 35q91 0 171.5 -35t140.5 -95t95 -141t35 -172v-991h-168v991z" />
    <glyph glyph-name="uni148A" unicode="&#x148a;" horiz-adv-x="1085" 
d="M268 0h-168v991q0 91 34.5 172t94.5 141t140.5 95t172.5 35q91 0 172 -35t141 -95t95 -141t35 -172v-91h-168v91q0 59 -21 109.5t-58 87t-87 57.5t-107 21t-107 -21t-87.5 -57.5t-59.5 -87t-22 -109.5v-991zM430 1746q0 -23 9 -43.5t24 -35.5t35.5 -24t43.5 -9t43.5 9
t35.5 24t24 35.5t9 43.5t-9 43.5t-24 35.5t-35.5 24t-43.5 9t-43.5 -9t-35.5 -24t-24 -35.5t-9 -43.5zM330 1749q0 43 17 81t45.5 66.5t67 45t81.5 16.5t81.5 -16.5t68 -45t46.5 -66.5t17 -81t-17 -82t-46.5 -68.5t-68 -47t-81.5 -17.5t-81.5 17.5t-67 47t-45.5 68.5t-17 82
z" />
    <glyph glyph-name="uni148B" unicode="&#x148b;" horiz-adv-x="1085" 
d="M268 0h-168v991q0 91 34.5 172t94.5 141t140.5 95t172.5 35q91 0 172 -35t141 -95t95 -141t35 -172v-91h-168v91q0 59 -21 109.5t-58 87t-87 57.5t-107 21t-107 -21t-87.5 -57.5t-59.5 -87t-22 -109.5v-991z" />
    <glyph glyph-name="uni148C" unicode="&#x148c;" horiz-adv-x="1085" 
d="M268 0h-168v991q0 91 34.5 172t94.5 141t140.5 95t172.5 35q91 0 172 -35t141 -95t95 -141t35 -172v-91h-168v91q0 59 -21 109.5t-58 87t-87 57.5t-107 21t-107 -21t-87.5 -57.5t-59.5 -87t-22 -109.5v-991zM430 1746q0 23 9 43.5t24 35.5t35.5 24t43.5 9t43.5 -9
t35.5 -24t24 -35.5t9 -43.5t-9 -43.5t-24 -35.5t-35.5 -24t-43.5 -9t-43.5 9t-35.5 24t-24 35.5t-9 43.5z" />
    <glyph glyph-name="uni148D" unicode="&#x148d;" horiz-adv-x="1085" 
d="M817 1434h168v-991q0 -92 -35 -172.5t-95 -140.5t-140.5 -95t-171.5 -35q-92 0 -172.5 35t-140.5 95t-95 140.5t-35 172.5v91h168v-91q0 -59 21 -109.5t58 -87t87 -57.5t107 -21t107 21t87.5 57.5t59.5 87t22 109.5v991z" />
    <glyph glyph-name="uni148E" unicode="&#x148e;" horiz-adv-x="1085" 
d="M817 1434h168v-991q0 -92 -35 -172.5t-95 -140.5t-140.5 -95t-171.5 -35q-92 0 -172.5 35t-140.5 95t-95 140.5t-35 172.5v91h168v-91q0 -59 21 -109.5t58 -87t87 -57.5t107 -21t107 21t87.5 57.5t59.5 87t22 109.5v991zM789 1746q0 23 9 43.5t24 35.5t35.5 24t43.5 9
t43.5 -9t35.5 -24t24 -35.5t9 -43.5t-9 -43.5t-24 -35.5t-35.5 -24t-43.5 -9t-43.5 9t-35.5 24t-24 35.5t-9 43.5z" />
    <glyph glyph-name="uni148F" unicode="&#x148f;" horiz-adv-x="1085" 
d="M817 1434h168v-991q0 -92 -35 -172.5t-95 -140.5t-140.5 -95t-171.5 -35q-92 0 -172.5 35t-140.5 95t-95 140.5t-35 172.5v91h168v-91q0 -59 21 -109.5t58 -87t87 -57.5t107 -21t107 21t87.5 57.5t59.5 87t22 109.5v991zM789 1746q0 23 9 43.5t24 35.5t35.5 24t43.5 9
t43.5 -9t35.5 -24t24 -35.5t9 -43.5t-9 -43.5t-24 -35.5t-35.5 -24t-43.5 -9t-43.5 9t-35.5 24t-24 35.5t-9 43.5zM429 1746q0 23 9 43.5t24 35.5t35.5 24t43.5 9t43.5 -9t35.5 -24t24 -35.5t9 -43.5t-9 -43.5t-24 -35.5t-35.5 -24t-43.5 -9t-43.5 9t-35.5 24t-24 35.5
t-9 43.5z" />
    <glyph glyph-name="uni1490" unicode="&#x1490;" horiz-adv-x="1085" 
d="M268 443q0 -59 22 -109.5t59.5 -87t87.5 -57.5t107 -21t107 21t87 57.5t58 87t21 109.5v91h168v-91q0 -92 -35 -172.5t-95 -140.5t-141 -95t-172 -35q-92 0 -172.5 35t-140.5 95t-94.5 140.5t-34.5 172.5v991h168v-991z" />
    <glyph glyph-name="uni1491" unicode="&#x1491;" horiz-adv-x="1085" 
d="M268 443q0 -59 22 -109.5t59.5 -87t87.5 -57.5t107 -21t107 21t87 57.5t58 87t21 109.5v91h168v-91q0 -92 -35 -172.5t-95 -140.5t-141 -95t-172 -35q-92 0 -172.5 35t-140.5 95t-94.5 140.5t-34.5 172.5v991h168v-991zM72 1746q0 23 9 43.5t24 35.5t35.5 24t43.5 9
t43.5 -9t35.5 -24t24 -35.5t9 -43.5t-9 -43.5t-24 -35.5t-35.5 -24t-43.5 -9t-43.5 9t-35.5 24t-24 35.5t-9 43.5z" />
    <glyph glyph-name="uni1492" unicode="&#x1492;" horiz-adv-x="1319" 
d="M1051 991q0 59 -22 109.5t-59.5 87t-87.5 57.5t-107 21t-107 -21t-87 -57.5t-58 -87t-21 -109.5v-91h-168v91q0 91 35 172t95 141t140.5 95t172.5 35q91 0 171.5 -35t140.5 -95t95 -141t35 -172v-991h-168v991zM10 717q0 23 9 43.5t24 35.5t35.5 24t43.5 9t43.5 -9
t35.5 -24t24 -35.5t9 -43.5t-9 -43.5t-24 -35.5t-35.5 -24t-43.5 -9t-43.5 9t-35.5 24t-24 35.5t-9 43.5z" />
    <glyph glyph-name="uni1493" unicode="&#x1493;" horiz-adv-x="1319" 
d="M817 991q0 59 -22 109.5t-59.5 87t-87.5 57.5t-107 21t-107 -21t-87 -57.5t-58 -87t-21 -109.5v-91h-168v91q0 91 35 172t95 141t140.5 95t172.5 35q91 0 171.5 -35t140.5 -95t95 -141t35 -172v-991h-168v991zM1085 717q0 23 9 43.5t24 35.5t35.5 24t43.5 9t43.5 -9
t35.5 -24t24 -35.5t9 -43.5t-9 -43.5t-24 -35.5t-35.5 -24t-43.5 -9t-43.5 9t-35.5 24t-24 35.5t-9 43.5z" />
    <glyph glyph-name="uni1494" unicode="&#x1494;" horiz-adv-x="1319" 
d="M502 0h-168v991q0 91 34.5 172t94.5 141t140.5 95t172.5 35q91 0 172 -35t141 -95t95 -141t35 -172v-91h-168v91q0 59 -21 109.5t-58 87t-87 57.5t-107 21t-107 -21t-87.5 -57.5t-59.5 -87t-22 -109.5v-991zM10 717q0 23 9 43.5t24 35.5t35.5 24t43.5 9t43.5 -9t35.5 -24
t24 -35.5t9 -43.5t-9 -43.5t-24 -35.5t-35.5 -24t-43.5 -9t-43.5 9t-35.5 24t-24 35.5t-9 43.5z" />
    <glyph glyph-name="uni1495" unicode="&#x1495;" horiz-adv-x="1319" 
d="M268 0h-168v991q0 91 34.5 172t94.5 141t140.5 95t172.5 35q91 0 172 -35t141 -95t95 -141t35 -172v-91h-168v91q0 59 -21 109.5t-58 87t-87 57.5t-107 21t-107 -21t-87.5 -57.5t-59.5 -87t-22 -109.5v-991zM1085 717q0 23 9 43.5t24 35.5t35.5 24t43.5 9t43.5 -9
t35.5 -24t24 -35.5t9 -43.5t-9 -43.5t-24 -35.5t-35.5 -24t-43.5 -9t-43.5 9t-35.5 24t-24 35.5t-9 43.5z" />
    <glyph glyph-name="uni1496" unicode="&#x1496;" horiz-adv-x="1319" 
d="M502 0h-168v991q0 91 34.5 172t94.5 141t140.5 95t172.5 35q91 0 172 -35t141 -95t95 -141t35 -172v-91h-168v91q0 59 -21 109.5t-58 87t-87 57.5t-107 21t-107 -21t-87.5 -57.5t-59.5 -87t-22 -109.5v-991zM10 717q0 23 9 43.5t24 35.5t35.5 24t43.5 9t43.5 -9t35.5 -24
t24 -35.5t9 -43.5t-9 -43.5t-24 -35.5t-35.5 -24t-43.5 -9t-43.5 9t-35.5 24t-24 35.5t-9 43.5zM664 1746q0 23 9 43.5t24 35.5t35.5 24t43.5 9t43.5 -9t35.5 -24t24 -35.5t9 -43.5t-9 -43.5t-24 -35.5t-35.5 -24t-43.5 -9t-43.5 9t-35.5 24t-24 35.5t-9 43.5z" />
    <glyph glyph-name="uni1497" unicode="&#x1497;" horiz-adv-x="1319" 
d="M268 0h-168v991q0 91 34.5 172t94.5 141t140.5 95t172.5 35q91 0 172 -35t141 -95t95 -141t35 -172v-91h-168v91q0 59 -21 109.5t-58 87t-87 57.5t-107 21t-107 -21t-87.5 -57.5t-59.5 -87t-22 -109.5v-991zM1085 717q0 23 9 43.5t24 35.5t35.5 24t43.5 9t43.5 -9
t35.5 -24t24 -35.5t9 -43.5t-9 -43.5t-24 -35.5t-35.5 -24t-43.5 -9t-43.5 9t-35.5 24t-24 35.5t-9 43.5zM430 1746q0 23 9 43.5t24 35.5t35.5 24t43.5 9t43.5 -9t35.5 -24t24 -35.5t9 -43.5t-9 -43.5t-24 -35.5t-35.5 -24t-43.5 -9t-43.5 9t-35.5 24t-24 35.5t-9 43.5z" />
    <glyph glyph-name="uni1498" unicode="&#x1498;" horiz-adv-x="1319" 
d="M1051 1434h168v-991q0 -92 -35 -172.5t-95 -140.5t-140.5 -95t-171.5 -35q-92 0 -172.5 35t-140.5 95t-95 140.5t-35 172.5v91h168v-91q0 -59 21 -109.5t58 -87t87 -57.5t107 -21t107 21t87.5 57.5t59.5 87t22 109.5v991zM10 717q0 23 9 43.5t24 35.5t35.5 24t43.5 9
t43.5 -9t35.5 -24t24 -35.5t9 -43.5t-9 -43.5t-24 -35.5t-35.5 -24t-43.5 -9t-43.5 9t-35.5 24t-24 35.5t-9 43.5z" />
    <glyph glyph-name="uni1499" unicode="&#x1499;" horiz-adv-x="1319" 
d="M817 1434h168v-991q0 -92 -35 -172.5t-95 -140.5t-140.5 -95t-171.5 -35q-92 0 -172.5 35t-140.5 95t-95 140.5t-35 172.5v91h168v-91q0 -59 21 -109.5t58 -87t87 -57.5t107 -21t107 21t87.5 57.5t59.5 87t22 109.5v991zM1085 717q0 23 9 43.5t24 35.5t35.5 24t43.5 9
t43.5 -9t35.5 -24t24 -35.5t9 -43.5t-9 -43.5t-24 -35.5t-35.5 -24t-43.5 -9t-43.5 9t-35.5 24t-24 35.5t-9 43.5z" />
    <glyph glyph-name="uni149A" unicode="&#x149a;" horiz-adv-x="1319" 
d="M1051 1434h168v-991q0 -92 -35 -172.5t-95 -140.5t-140.5 -95t-171.5 -35q-92 0 -172.5 35t-140.5 95t-95 140.5t-35 172.5v91h168v-91q0 -59 21 -109.5t58 -87t87 -57.5t107 -21t107 21t87.5 57.5t59.5 87t22 109.5v991zM10 717q0 23 9 43.5t24 35.5t35.5 24t43.5 9
t43.5 -9t35.5 -24t24 -35.5t9 -43.5t-9 -43.5t-24 -35.5t-35.5 -24t-43.5 -9t-43.5 9t-35.5 24t-24 35.5t-9 43.5zM1023 1746q0 23 9 43.5t24 35.5t35.5 24t43.5 9t43.5 -9t35.5 -24t24 -35.5t9 -43.5t-9 -43.5t-24 -35.5t-35.5 -24t-43.5 -9t-43.5 9t-35.5 24t-24 35.5
t-9 43.5z" />
    <glyph glyph-name="uni149B" unicode="&#x149b;" horiz-adv-x="1319" 
d="M817 1434h168v-991q0 -92 -35 -172.5t-95 -140.5t-140.5 -95t-171.5 -35q-92 0 -172.5 35t-140.5 95t-95 140.5t-35 172.5v91h168v-91q0 -59 21 -109.5t58 -87t87 -57.5t107 -21t107 21t87.5 57.5t59.5 87t22 109.5v991zM1085 717q0 23 9 43.5t24 35.5t35.5 24t43.5 9
t43.5 -9t35.5 -24t24 -35.5t9 -43.5t-9 -43.5t-24 -35.5t-35.5 -24t-43.5 -9t-43.5 9t-35.5 24t-24 35.5t-9 43.5zM789 1746q0 23 9 43.5t24 35.5t35.5 24t43.5 9t43.5 -9t35.5 -24t24 -35.5t9 -43.5t-9 -43.5t-24 -35.5t-35.5 -24t-43.5 -9t-43.5 9t-35.5 24t-24 35.5
t-9 43.5z" />
    <glyph glyph-name="uni149C" unicode="&#x149c;" horiz-adv-x="1319" 
d="M502 443q0 -59 22 -109.5t59.5 -87t87.5 -57.5t107 -21t107 21t87 57.5t58 87t21 109.5v91h168v-91q0 -92 -35 -172.5t-95 -140.5t-141 -95t-172 -35q-92 0 -172.5 35t-140.5 95t-94.5 140.5t-34.5 172.5v991h168v-991zM10 717q0 23 9 43.5t24 35.5t35.5 24t43.5 9
t43.5 -9t35.5 -24t24 -35.5t9 -43.5t-9 -43.5t-24 -35.5t-35.5 -24t-43.5 -9t-43.5 9t-35.5 24t-24 35.5t-9 43.5z" />
    <glyph glyph-name="uni149D" unicode="&#x149d;" horiz-adv-x="1319" 
d="M268 443q0 -59 22 -109.5t59.5 -87t87.5 -57.5t107 -21t107 21t87 57.5t58 87t21 109.5v91h168v-91q0 -92 -35 -172.5t-95 -140.5t-141 -95t-172 -35q-92 0 -172.5 35t-140.5 95t-94.5 140.5t-34.5 172.5v991h168v-991zM1085 717q0 23 9 43.5t24 35.5t35.5 24t43.5 9
t43.5 -9t35.5 -24t24 -35.5t9 -43.5t-9 -43.5t-24 -35.5t-35.5 -24t-43.5 -9t-43.5 9t-35.5 24t-24 35.5t-9 43.5z" />
    <glyph glyph-name="uni149E" unicode="&#x149e;" horiz-adv-x="1319" 
d="M502 443q0 -59 22 -109.5t59.5 -87t87.5 -57.5t107 -21t107 21t87 57.5t58 87t21 109.5v91h168v-91q0 -92 -35 -172.5t-95 -140.5t-141 -95t-172 -35q-92 0 -172.5 35t-140.5 95t-94.5 140.5t-34.5 172.5v991h168v-991zM10 717q0 23 9 43.5t24 35.5t35.5 24t43.5 9
t43.5 -9t35.5 -24t24 -35.5t9 -43.5t-9 -43.5t-24 -35.5t-35.5 -24t-43.5 -9t-43.5 9t-35.5 24t-24 35.5t-9 43.5zM306 1746q0 23 9 43.5t24 35.5t35.5 24t43.5 9t43.5 -9t35.5 -24t24 -35.5t9 -43.5t-9 -43.5t-24 -35.5t-35.5 -24t-43.5 -9t-43.5 9t-35.5 24t-24 35.5
t-9 43.5z" />
    <glyph glyph-name="uni149F" unicode="&#x149f;" horiz-adv-x="1319" 
d="M268 443q0 -59 22 -109.5t59.5 -87t87.5 -57.5t107 -21t107 21t87 57.5t58 87t21 109.5v91h168v-91q0 -92 -35 -172.5t-95 -140.5t-141 -95t-172 -35q-92 0 -172.5 35t-140.5 95t-94.5 140.5t-34.5 172.5v991h168v-991zM1085 717q0 23 9 43.5t24 35.5t35.5 24t43.5 9
t43.5 -9t35.5 -24t24 -35.5t9 -43.5t-9 -43.5t-24 -35.5t-35.5 -24t-43.5 -9t-43.5 9t-35.5 24t-24 35.5t-9 43.5zM72 1746q0 23 9 43.5t24 35.5t35.5 24t43.5 9t43.5 -9t35.5 -24t24 -35.5t9 -43.5t-9 -43.5t-24 -35.5t-35.5 -24t-43.5 -9t-43.5 9t-35.5 24t-24 35.5
t-9 43.5z" />
    <glyph glyph-name="uni14A0" unicode="&#x14a0;" horiz-adv-x="1319" 
d="M502 443q0 -59 22 -109.5t59.5 -87t87.5 -57.5t107 -21t107 21t87 57.5t58 87t21 109.5v91h168v-91q0 -92 -35 -172.5t-95 -140.5t-141 -95t-172 -35q-92 0 -172.5 35t-140.5 95t-94.5 140.5t-34.5 172.5v991h168v-991zM10 1075q0 23 9 43.5t24 35.5t35.5 24t43.5 9
t43.5 -9t35.5 -24t24 -35.5t9 -43.5t-9 -43.5t-24 -35.5t-35.5 -24t-43.5 -9t-43.5 9t-35.5 24t-24 35.5t-9 43.5zM10 358q0 23 9 43.5t24 35.5t35.5 24t43.5 9t43.5 -9t35.5 -24t24 -35.5t9 -43.5t-9 -43.5t-24 -35.5t-35.5 -24t-43.5 -9t-43.5 9t-35.5 24t-24 35.5
t-9 43.5z" />
    <glyph glyph-name="uni14A1" unicode="&#x14a1;" horiz-adv-x="642" 
d="M418 938v49h124v-49q0 -46 -17.5 -86t-47.5 -70t-70 -47.5t-86 -17.5t-86 17.5t-70 47.5t-47.5 70t-17.5 86v496h124v-496q0 -16 4.5 -33t16 -31.5t30 -23.5t47.5 -9q21 0 38.5 8t30.5 21.5t20 31t7 36.5z" />
    <glyph glyph-name="uni14A2" unicode="&#x14a2;" horiz-adv-x="642" 
d="M418 1434h124v-496q0 -46 -17.5 -86t-47.5 -70t-70 -47.5t-86 -17.5t-86 17.5t-70 47.5t-47.5 70t-17.5 86v49h124v-49q0 -19 7 -36.5t20 -31t30.5 -21.5t38.5 -8q28 0 47 9t30.5 23.5t16 31.5t4.5 33v496z" />
    <glyph glyph-name="uni14A3" unicode="&#x14a3;" horiz-adv-x="1085" 
d="M985 1434v-1434h-168v1270h-717v164h885z" />
    <glyph glyph-name="uni14A4" unicode="&#x14a4;" horiz-adv-x="1085" 
d="M985 1434v-164h-717v-1270h-168v1434h885zM430 1746q0 -23 9 -43.5t24 -35.5t35.5 -24t43.5 -9t43.5 9t35.5 24t24 35.5t9 43.5t-9 43.5t-24 35.5t-35.5 24t-43.5 9t-43.5 -9t-35.5 -24t-24 -35.5t-9 -43.5zM330 1749q0 43 17 81t45.5 66.5t67 45t81.5 16.5t81.5 -16.5
t68 -45t46.5 -66.5t17 -81t-17 -82t-46.5 -68.5t-68 -47t-81.5 -17.5t-81.5 17.5t-67 47t-45.5 68.5t-17 82z" />
    <glyph glyph-name="uni14A5" unicode="&#x14a5;" horiz-adv-x="1085" 
d="M985 1434v-164h-717v-1270h-168v1434h885z" />
    <glyph glyph-name="uni14A6" unicode="&#x14a6;" horiz-adv-x="1085" 
d="M985 1434v-164h-717v-1270h-168v1434h885zM430 1746q0 23 9 43.5t24 35.5t35.5 24t43.5 9t43.5 -9t35.5 -24t24 -35.5t9 -43.5t-9 -43.5t-24 -35.5t-35.5 -24t-43.5 -9t-43.5 9t-35.5 24t-24 35.5t-9 43.5z" />
    <glyph glyph-name="uni14A7" unicode="&#x14a7;" horiz-adv-x="1085" 
d="M100 0v164h717v1270h168v-1434h-885z" />
    <glyph glyph-name="uni14A8" unicode="&#x14a8;" horiz-adv-x="1085" 
d="M100 0v164h717v1270h168v-1434h-885zM789 1746q0 23 9 43.5t24 35.5t35.5 24t43.5 9t43.5 -9t35.5 -24t24 -35.5t9 -43.5t-9 -43.5t-24 -35.5t-35.5 -24t-43.5 -9t-43.5 9t-35.5 24t-24 35.5t-9 43.5z" />
    <glyph glyph-name="uni14A9" unicode="&#x14a9;" horiz-adv-x="1085" 
d="M100 0v164h717v1270h168v-1434h-885zM789 1746q0 23 9 43.5t24 35.5t35.5 24t43.5 9t43.5 -9t35.5 -24t24 -35.5t9 -43.5t-9 -43.5t-24 -35.5t-35.5 -24t-43.5 -9t-43.5 9t-35.5 24t-24 35.5t-9 43.5zM429 1746q0 23 9 43.5t24 35.5t35.5 24t43.5 9t43.5 -9t35.5 -24
t24 -35.5t9 -43.5t-9 -43.5t-24 -35.5t-35.5 -24t-43.5 -9t-43.5 9t-35.5 24t-24 35.5t-9 43.5z" />
    <glyph glyph-name="uni14AA" unicode="&#x14aa;" horiz-adv-x="1085" 
d="M100 0v1434h168v-1270h717v-164h-885z" />
    <glyph glyph-name="uni14AB" unicode="&#x14ab;" horiz-adv-x="1085" 
d="M100 0v1434h168v-1270h717v-164h-885zM72 1746q0 23 9 43.5t24 35.5t35.5 24t43.5 9t43.5 -9t35.5 -24t24 -35.5t9 -43.5t-9 -43.5t-24 -35.5t-35.5 -24t-43.5 -9t-43.5 9t-35.5 24t-24 35.5t-9 43.5z" />
    <glyph glyph-name="uni14AC" unicode="&#x14ac;" horiz-adv-x="1319" 
d="M1219 1434v-1434h-168v1270h-717v164h885zM10 717q0 23 9 43.5t24 35.5t35.5 24t43.5 9t43.5 -9t35.5 -24t24 -35.5t9 -43.5t-9 -43.5t-24 -35.5t-35.5 -24t-43.5 -9t-43.5 9t-35.5 24t-24 35.5t-9 43.5z" />
    <glyph glyph-name="uni14AD" unicode="&#x14ad;" horiz-adv-x="1319" 
d="M985 1434v-1434h-168v1270h-717v164h885zM1085 717q0 23 9 43.5t24 35.5t35.5 24t43.5 9t43.5 -9t35.5 -24t24 -35.5t9 -43.5t-9 -43.5t-24 -35.5t-35.5 -24t-43.5 -9t-43.5 9t-35.5 24t-24 35.5t-9 43.5z" />
    <glyph glyph-name="uni14AE" unicode="&#x14ae;" horiz-adv-x="1319" 
d="M1219 1434v-164h-717v-1270h-168v1434h885zM10 717q0 23 9 43.5t24 35.5t35.5 24t43.5 9t43.5 -9t35.5 -24t24 -35.5t9 -43.5t-9 -43.5t-24 -35.5t-35.5 -24t-43.5 -9t-43.5 9t-35.5 24t-24 35.5t-9 43.5z" />
    <glyph glyph-name="uni14AF" unicode="&#x14af;" horiz-adv-x="1319" 
d="M985 1434v-164h-717v-1270h-168v1434h885zM1085 717q0 23 9 43.5t24 35.5t35.5 24t43.5 9t43.5 -9t35.5 -24t24 -35.5t9 -43.5t-9 -43.5t-24 -35.5t-35.5 -24t-43.5 -9t-43.5 9t-35.5 24t-24 35.5t-9 43.5z" />
    <glyph glyph-name="uni14B0" unicode="&#x14b0;" horiz-adv-x="1319" 
d="M1219 1434v-164h-717v-1270h-168v1434h885zM10 717q0 23 9 43.5t24 35.5t35.5 24t43.5 9t43.5 -9t35.5 -24t24 -35.5t9 -43.5t-9 -43.5t-24 -35.5t-35.5 -24t-43.5 -9t-43.5 9t-35.5 24t-24 35.5t-9 43.5zM664 1746q0 23 9 43.5t24 35.5t35.5 24t43.5 9t43.5 -9t35.5 -24
t24 -35.5t9 -43.5t-9 -43.5t-24 -35.5t-35.5 -24t-43.5 -9t-43.5 9t-35.5 24t-24 35.5t-9 43.5z" />
    <glyph glyph-name="uni14B1" unicode="&#x14b1;" horiz-adv-x="1319" 
d="M985 1434v-164h-717v-1270h-168v1434h885zM1085 717q0 23 9 43.5t24 35.5t35.5 24t43.5 9t43.5 -9t35.5 -24t24 -35.5t9 -43.5t-9 -43.5t-24 -35.5t-35.5 -24t-43.5 -9t-43.5 9t-35.5 24t-24 35.5t-9 43.5zM430 1746q0 23 9 43.5t24 35.5t35.5 24t43.5 9t43.5 -9
t35.5 -24t24 -35.5t9 -43.5t-9 -43.5t-24 -35.5t-35.5 -24t-43.5 -9t-43.5 9t-35.5 24t-24 35.5t-9 43.5z" />
    <glyph glyph-name="uni14B2" unicode="&#x14b2;" horiz-adv-x="1319" 
d="M334 0v164h717v1270h168v-1434h-885zM10 717q0 23 9 43.5t24 35.5t35.5 24t43.5 9t43.5 -9t35.5 -24t24 -35.5t9 -43.5t-9 -43.5t-24 -35.5t-35.5 -24t-43.5 -9t-43.5 9t-35.5 24t-24 35.5t-9 43.5z" />
    <glyph glyph-name="uni14B3" unicode="&#x14b3;" horiz-adv-x="1319" 
d="M100 0v164h717v1270h168v-1434h-885zM1085 717q0 23 9 43.5t24 35.5t35.5 24t43.5 9t43.5 -9t35.5 -24t24 -35.5t9 -43.5t-9 -43.5t-24 -35.5t-35.5 -24t-43.5 -9t-43.5 9t-35.5 24t-24 35.5t-9 43.5z" />
    <glyph glyph-name="uni14B4" unicode="&#x14b4;" horiz-adv-x="1319" 
d="M334 0v164h717v1270h168v-1434h-885zM10 717q0 23 9 43.5t24 35.5t35.5 24t43.5 9t43.5 -9t35.5 -24t24 -35.5t9 -43.5t-9 -43.5t-24 -35.5t-35.5 -24t-43.5 -9t-43.5 9t-35.5 24t-24 35.5t-9 43.5zM1023 1746q0 23 9 43.5t24 35.5t35.5 24t43.5 9t43.5 -9t35.5 -24
t24 -35.5t9 -43.5t-9 -43.5t-24 -35.5t-35.5 -24t-43.5 -9t-43.5 9t-35.5 24t-24 35.5t-9 43.5z" />
    <glyph glyph-name="uni14B5" unicode="&#x14b5;" horiz-adv-x="1319" 
d="M100 0v164h717v1270h168v-1434h-885zM1085 717q0 23 9 43.5t24 35.5t35.5 24t43.5 9t43.5 -9t35.5 -24t24 -35.5t9 -43.5t-9 -43.5t-24 -35.5t-35.5 -24t-43.5 -9t-43.5 9t-35.5 24t-24 35.5t-9 43.5zM789 1746q0 23 9 43.5t24 35.5t35.5 24t43.5 9t43.5 -9t35.5 -24
t24 -35.5t9 -43.5t-9 -43.5t-24 -35.5t-35.5 -24t-43.5 -9t-43.5 9t-35.5 24t-24 35.5t-9 43.5z" />
    <glyph glyph-name="uni14B6" unicode="&#x14b6;" horiz-adv-x="1319" 
d="M334 0v1434h168v-1270h717v-164h-885zM10 717q0 23 9 43.5t24 35.5t35.5 24t43.5 9t43.5 -9t35.5 -24t24 -35.5t9 -43.5t-9 -43.5t-24 -35.5t-35.5 -24t-43.5 -9t-43.5 9t-35.5 24t-24 35.5t-9 43.5z" />
    <glyph glyph-name="uni14B7" unicode="&#x14b7;" horiz-adv-x="1319" 
d="M100 0v1434h168v-1270h717v-164h-885zM1085 717q0 23 9 43.5t24 35.5t35.5 24t43.5 9t43.5 -9t35.5 -24t24 -35.5t9 -43.5t-9 -43.5t-24 -35.5t-35.5 -24t-43.5 -9t-43.5 9t-35.5 24t-24 35.5t-9 43.5z" />
    <glyph glyph-name="uni14B8" unicode="&#x14b8;" horiz-adv-x="1319" 
d="M334 0v1434h168v-1270h717v-164h-885zM10 717q0 23 9 43.5t24 35.5t35.5 24t43.5 9t43.5 -9t35.5 -24t24 -35.5t9 -43.5t-9 -43.5t-24 -35.5t-35.5 -24t-43.5 -9t-43.5 9t-35.5 24t-24 35.5t-9 43.5zM306 1746q0 23 9 43.5t24 35.5t35.5 24t43.5 9t43.5 -9t35.5 -24
t24 -35.5t9 -43.5t-9 -43.5t-24 -35.5t-35.5 -24t-43.5 -9t-43.5 9t-35.5 24t-24 35.5t-9 43.5z" />
    <glyph glyph-name="uni14B9" unicode="&#x14b9;" horiz-adv-x="1319" 
d="M100 0v1434h168v-1270h717v-164h-885zM1085 717q0 23 9 43.5t24 35.5t35.5 24t43.5 9t43.5 -9t35.5 -24t24 -35.5t9 -43.5t-9 -43.5t-24 -35.5t-35.5 -24t-43.5 -9t-43.5 9t-35.5 24t-24 35.5t-9 43.5zM72 1746q0 23 9 43.5t24 35.5t35.5 24t43.5 9t43.5 -9t35.5 -24
t24 -35.5t9 -43.5t-9 -43.5t-24 -35.5t-35.5 -24t-43.5 -9t-43.5 9t-35.5 24t-24 35.5t-9 43.5z" />
    <glyph glyph-name="uni14BA" unicode="&#x14ba;" horiz-adv-x="1319" 
d="M334 0v1434h168v-1270h717v-164h-885zM10 1075q0 23 9 43.5t24 35.5t35.5 24t43.5 9t43.5 -9t35.5 -24t24 -35.5t9 -43.5t-9 -43.5t-24 -35.5t-35.5 -24t-43.5 -9t-43.5 9t-35.5 24t-24 35.5t-9 43.5zM10 358q0 23 9 43.5t24 35.5t35.5 24t43.5 9t43.5 -9t35.5 -24
t24 -35.5t9 -43.5t-9 -43.5t-24 -35.5t-35.5 -24t-43.5 -9t-43.5 9t-35.5 24t-24 35.5t-9 43.5z" />
    <glyph glyph-name="uni14BB" unicode="&#x14bb;" horiz-adv-x="642" 
d="M100 1434h124v-593h318v-124h-442v717z" />
    <glyph glyph-name="uni14BC" unicode="&#x14bc;" horiz-adv-x="642" 
d="M458 717q-74 0 -139.5 28t-114 77t-76.5 114t-28 140q0 74 28 139.5t76.5 114t114 76.5t139.5 28h84v-124h-84q-47 0 -89.5 -19t-74.5 -50.5t-51 -73.5t-19 -91t19 -91.5t51 -74t74.5 -50.5t89.5 -19h84v-124h-84z" />
    <glyph glyph-name="uni14BD" unicode="&#x14bd;" horiz-adv-x="642" 
d="M542 717h-442v124h318v593h124v-717z" />
    <glyph glyph-name="uni14BE" unicode="&#x14be;" horiz-adv-x="642" 
d="M100 1212q0 46 17.5 86.5t47.5 70.5t70 47.5t86 17.5t86 -17.5t70 -47.5t47.5 -70.5t17.5 -86.5q0 -72 -20 -124.5t-57 -94.5t-88 -78.5t-112 -73.5h277v-124h-442v124q102 65 164 111t96.5 85.5t46 79.5t11.5 95q0 19 -6 37t-18.5 31.5t-31 21.5t-42.5 8q-23 0 -41 -8.5
t-30 -22.5t-18.5 -31.5t-6.5 -35.5h-124z" />
    <glyph glyph-name="uni14BF" unicode="&#x14bf;" horiz-adv-x="1085" 
d="M100 991q0 91 35 172t95 141t140.5 95t172.5 35q91 0 171.5 -34.5t140.5 -94.5t95 -141t35 -173q0 -144 -53 -261.5t-141 -216.5t-202.5 -184.5t-237.5 -164.5h634v-164h-885v164q135 89 241 165t185.5 143t135 129t90 124t50 127t15.5 139q0 60 -22 110.5t-59.5 87
t-87.5 57t-107 20.5t-107 -21t-87 -57.5t-58 -87t-21 -109.5h-168z" />
    <glyph glyph-name="uni14C0" unicode="&#x14c0;" 
d="M100 717v168h991q91 0 172 -35t141 -95t95 -140.5t35 -171.5q0 -92 -35 -172.5t-95 -140.5t-141 -95t-172 -35q-92 0 -172.5 35t-140.5 95t-94.5 140.5t-34.5 172.5v274h-549zM817 717v-276q0 -57 21 -107t58 -87t87 -58t108 -21q59 0 109.5 21t87 58t57.5 87t21 107
t-21 107t-57.5 87.5t-87 59.5t-109.5 22h-274z" />
    <glyph glyph-name="uni14C1" unicode="&#x14c1;" 
d="M985 717v-274q0 -92 -35 -172.5t-95 -140.5t-140.5 -95t-171.5 -35q-92 0 -172.5 35t-140.5 95t-95 140.5t-35 172.5q0 91 35 171.5t95 140.5t140.5 95t172.5 35h991v-168h-549zM543 717q-59 0 -109.5 -22t-87 -59.5t-57.5 -87.5t-21 -107t21 -107t57.5 -87t87 -58
t109.5 -21q58 0 108 21t87 58t58 87t21 107v276h-274zM430 1197q0 -23 9 -43.5t24 -35.5t35.5 -24t43.5 -9t43.5 9t35.5 24t24 35.5t9 43.5t-9 43.5t-24 35.5t-35.5 24t-43.5 9t-43.5 -9t-35.5 -24t-24 -35.5t-9 -43.5zM330 1200q0 43 17 81t45.5 66.5t67 45t81.5 16.5
t81.5 -16.5t68 -45t46.5 -66.5t17 -81t-17 -82t-46.5 -68.5t-68 -47t-81.5 -17.5t-81.5 17.5t-67 47t-45.5 68.5t-17 82z" />
    <glyph glyph-name="uni14C2" unicode="&#x14c2;" 
d="M985 717v-274q0 -92 -35 -172.5t-95 -140.5t-140.5 -95t-171.5 -35q-92 0 -172.5 35t-140.5 95t-95 140.5t-35 172.5q0 91 35 171.5t95 140.5t140.5 95t172.5 35h991v-168h-549zM543 717q-59 0 -109.5 -22t-87 -59.5t-57.5 -87.5t-21 -107t21 -107t57.5 -87t87 -58
t109.5 -21q58 0 108 21t87 58t58 87t21 107v276h-274z" />
    <glyph glyph-name="uni14C3" unicode="&#x14c3;" 
d="M985 717v-274q0 -92 -35 -172.5t-95 -140.5t-140.5 -95t-171.5 -35q-92 0 -172.5 35t-140.5 95t-95 140.5t-35 172.5q0 91 35 171.5t95 140.5t140.5 95t172.5 35h991v-168h-549zM543 717q-59 0 -109.5 -22t-87 -59.5t-57.5 -87.5t-21 -107t21 -107t57.5 -87t87 -58
t109.5 -21q58 0 108 21t87 58t58 87t21 107v276h-274zM430 1197q0 23 9 43.5t24 35.5t35.5 24t43.5 9t43.5 -9t35.5 -24t24 -35.5t9 -43.5t-9 -43.5t-24 -35.5t-35.5 -24t-43.5 -9t-43.5 9t-35.5 24t-24 35.5t-9 43.5z" />
    <glyph glyph-name="uni14C4" unicode="&#x14c4;" 
d="M649 168v274q0 91 34.5 172t94.5 141t140.5 95t172.5 35q91 0 172 -35t141 -95t95 -141t35 -172q0 -92 -35 -172.5t-95 -140.5t-141 -94.5t-172 -34.5h-991v168h549zM1091 168q59 0 109.5 22t87 59.5t57.5 87.5t21 107t-21 107t-57.5 87t-87 58t-109.5 21q-58 0 -108 -21
t-87 -58t-58 -87t-21 -107v-276h274z" />
    <glyph glyph-name="uni14C5" unicode="&#x14c5;" 
d="M649 168v274q0 91 34.5 172t94.5 141t140.5 95t172.5 35q91 0 172 -35t141 -95t95 -141t35 -172q0 -92 -35 -172.5t-95 -140.5t-141 -94.5t-172 -34.5h-991v168h549zM1091 168q59 0 109.5 22t87 59.5t57.5 87.5t21 107t-21 107t-57.5 87t-87 58t-109.5 21q-58 0 -108 -21
t-87 -58t-58 -87t-21 -107v-276h274zM979 1197q0 23 9 43.5t24 35.5t35.5 24t43.5 9t43.5 -9t35.5 -24t24 -35.5t9 -43.5t-9 -43.5t-24 -35.5t-35.5 -24t-43.5 -9t-43.5 9t-35.5 24t-24 35.5t-9 43.5z" />
    <glyph glyph-name="uni14C6" unicode="&#x14c6;" 
d="M649 168v274q0 91 34.5 172t94.5 141t140.5 95t172.5 35q91 0 172 -35t141 -95t95 -141t35 -172q0 -92 -35 -172.5t-95 -140.5t-141 -94.5t-172 -34.5h-991v168h549zM1091 168q59 0 109.5 22t87 59.5t57.5 87.5t21 107t-21 107t-57.5 87t-87 58t-109.5 21q-58 0 -108 -21
t-87 -58t-58 -87t-21 -107v-276h274zM798 1197q0 23 9 43.5t24 35.5t35.5 24t43.5 9t43.5 -9t35.5 -24t24 -35.5t9 -43.5t-9 -43.5t-24 -35.5t-35.5 -24t-43.5 -9t-43.5 9t-35.5 24t-24 35.5t-9 43.5zM1158 1197q0 23 9 43.5t24 35.5t35.5 24t43.5 9t43.5 -9t35.5 -24
t24 -35.5t9 -43.5t-9 -43.5t-24 -35.5t-35.5 -24t-43.5 -9t-43.5 9t-35.5 24t-24 35.5t-9 43.5z" />
    <glyph glyph-name="uni14C7" unicode="&#x14c7;" 
d="M1534 168v-168h-991q-92 0 -172.5 34.5t-140.5 94.5t-95 140.5t-35 172.5q0 91 35 172t95 141t140.5 95t172.5 35q91 0 171.5 -35t140.5 -95t95 -141t35 -172v-274h549zM817 168v276q0 57 -21 107t-58 87t-87 58t-108 21q-59 0 -109.5 -21t-87 -58t-57.5 -87t-21 -107
t21 -107t57.5 -87.5t87 -59.5t109.5 -22h274z" />
    <glyph glyph-name="uni14C8" unicode="&#x14c8;" 
d="M1534 168v-168h-991q-92 0 -172.5 34.5t-140.5 94.5t-95 140.5t-35 172.5q0 91 35 172t95 141t140.5 95t172.5 35q91 0 171.5 -35t140.5 -95t95 -141t35 -172v-274h549zM817 168v276q0 57 -21 107t-58 87t-87 58t-108 21q-59 0 -109.5 -21t-87 -58t-57.5 -87t-21 -107
t21 -107t57.5 -87.5t87 -59.5t109.5 -22h274zM430 1197q0 23 9 43.5t24 35.5t35.5 24t43.5 9t43.5 -9t35.5 -24t24 -35.5t9 -43.5t-9 -43.5t-24 -35.5t-35.5 -24t-43.5 -9t-43.5 9t-35.5 24t-24 35.5t-9 43.5z" />
    <glyph glyph-name="uni14C9" unicode="&#x14c9;" horiz-adv-x="1868" 
d="M334 717v168h991q91 0 172 -35t141 -95t95 -140.5t35 -171.5q0 -92 -35 -172.5t-95 -140.5t-141 -95t-172 -35q-92 0 -172.5 35t-140.5 95t-94.5 140.5t-34.5 172.5v274h-549zM1051 717v-276q0 -57 21 -107t58 -87t87 -58t108 -21q59 0 109.5 21t87 58t57.5 87t21 107
t-21 107t-57.5 87.5t-87 59.5t-109.5 22h-274zM10 717q0 23 9 43.5t24 35.5t35.5 24t43.5 9t43.5 -9t35.5 -24t24 -35.5t9 -43.5t-9 -43.5t-24 -35.5t-35.5 -24t-43.5 -9t-43.5 9t-35.5 24t-24 35.5t-9 43.5z" />
    <glyph glyph-name="uni14CA" unicode="&#x14ca;" horiz-adv-x="1868" 
d="M100 717v168h991q91 0 172 -35t141 -95t95 -140.5t35 -171.5q0 -92 -35 -172.5t-95 -140.5t-141 -95t-172 -35q-92 0 -172.5 35t-140.5 95t-94.5 140.5t-34.5 172.5v274h-549zM817 717v-276q0 -57 21 -107t58 -87t87 -58t108 -21q59 0 109.5 21t87 58t57.5 87t21 107
t-21 107t-57.5 87.5t-87 59.5t-109.5 22h-274zM1634 717q0 23 9 43.5t24 35.5t35.5 24t43.5 9t43.5 -9t35.5 -24t24 -35.5t9 -43.5t-9 -43.5t-24 -35.5t-35.5 -24t-43.5 -9t-43.5 9t-35.5 24t-24 35.5t-9 43.5z" />
    <glyph glyph-name="uni14CB" unicode="&#x14cb;" horiz-adv-x="1868" 
d="M1768 168v-168h-991q-92 0 -172.5 34.5t-140.5 94.5t-95 140.5t-35 172.5q0 91 35 172t95 141t140.5 95t172.5 35q91 0 171.5 -35t140.5 -95t95 -141t35 -172v-274h549zM1051 168v276q0 57 -21 107t-58 87t-87 58t-108 21q-59 0 -109.5 -21t-87 -58t-57.5 -87t-21 -107
t21 -107t57.5 -87.5t87 -59.5t109.5 -22h274zM10 717q0 23 9 43.5t24 35.5t35.5 24t43.5 9t43.5 -9t35.5 -24t24 -35.5t9 -43.5t-9 -43.5t-24 -35.5t-35.5 -24t-43.5 -9t-43.5 9t-35.5 24t-24 35.5t-9 43.5z" />
    <glyph glyph-name="uni14CC" unicode="&#x14cc;" 
d="M1534 168v-168h-991q-92 0 -172.5 34.5t-140.5 94.5t-95 140.5t-35 172.5q0 91 35 172t95 141t140.5 95t172.5 35q91 0 171.5 -35t140.5 -95t95 -141t35 -172v-274h549zM817 168v276q0 57 -21 107t-58 87t-87 58t-108 21q-59 0 -109.5 -21t-87 -58t-57.5 -87t-21 -107
t21 -107t57.5 -87.5t87 -59.5t109.5 -22h274zM1175 717q0 23 9 43.5t24 35.5t35.5 24t43.5 9t43.5 -9t35.5 -24t24 -35.5t9 -43.5t-9 -43.5t-24 -35.5t-35.5 -24t-43.5 -9t-43.5 9t-35.5 24t-24 35.5t-9 43.5z" />
    <glyph glyph-name="uni14CD" unicode="&#x14cd;" horiz-adv-x="1868" 
d="M1768 168v-168h-991q-92 0 -172.5 34.5t-140.5 94.5t-95 140.5t-35 172.5q0 91 35 172t95 141t140.5 95t172.5 35q91 0 171.5 -35t140.5 -95t95 -141t35 -172v-274h549zM1051 168v276q0 57 -21 107t-58 87t-87 58t-108 21q-59 0 -109.5 -21t-87 -58t-57.5 -87t-21 -107
t21 -107t57.5 -87.5t87 -59.5t109.5 -22h274zM10 717q0 23 9 43.5t24 35.5t35.5 24t43.5 9t43.5 -9t35.5 -24t24 -35.5t9 -43.5t-9 -43.5t-24 -35.5t-35.5 -24t-43.5 -9t-43.5 9t-35.5 24t-24 35.5t-9 43.5zM665 1197q0 23 9 43.5t24 35.5t35.5 24t43.5 9t43.5 -9t35.5 -24
t24 -35.5t9 -43.5t-9 -43.5t-24 -35.5t-35.5 -24t-43.5 -9t-43.5 9t-35.5 24t-24 35.5t-9 43.5z" />
    <glyph glyph-name="uni14CE" unicode="&#x14ce;" 
d="M1534 168v-168h-991q-92 0 -172.5 34.5t-140.5 94.5t-95 140.5t-35 172.5q0 91 35 172t95 141t140.5 95t172.5 35q91 0 171.5 -35t140.5 -95t95 -141t35 -172v-274h549zM817 168v276q0 57 -21 107t-58 87t-87 58t-108 21q-59 0 -109.5 -21t-87 -58t-57.5 -87t-21 -107
t21 -107t57.5 -87.5t87 -59.5t109.5 -22h274zM1175 717q0 23 9 43.5t24 35.5t35.5 24t43.5 9t43.5 -9t35.5 -24t24 -35.5t9 -43.5t-9 -43.5t-24 -35.5t-35.5 -24t-43.5 -9t-43.5 9t-35.5 24t-24 35.5t-9 43.5zM430 1197q0 23 9 43.5t24 35.5t35.5 24t43.5 9t43.5 -9
t35.5 -24t24 -35.5t9 -43.5t-9 -43.5t-24 -35.5t-35.5 -24t-43.5 -9t-43.5 9t-35.5 24t-24 35.5t-9 43.5z" />
    <glyph glyph-name="uni14CF" unicode="&#x14cf;" 
d="M1534 168v-168h-991q-92 0 -172.5 34.5t-140.5 94.5t-95 140.5t-35 172.5q0 91 35 172t95 141t140.5 95t172.5 35q91 0 171.5 -35t140.5 -95t95 -141t35 -172v-274h549zM817 168v276q0 57 -21 107t-58 87t-87 58t-108 21q-59 0 -109.5 -21t-87 -58t-57.5 -87t-21 -107
t21 -107t57.5 -87.5t87 -59.5t109.5 -22h274zM252 1197q0 23 9 43.5t24 35.5t35.5 24t43.5 9t43.5 -9t35.5 -24t24 -35.5t9 -43.5t-9 -43.5t-24 -35.5t-35.5 -24t-43.5 -9t-43.5 9t-35.5 24t-24 35.5t-9 43.5zM612 1197q0 23 9 43.5t24 35.5t35.5 24t43.5 9t43.5 -9
t35.5 -24t24 -35.5t9 -43.5t-9 -43.5t-24 -35.5t-35.5 -24t-43.5 -9t-43.5 9t-35.5 24t-24 35.5t-9 43.5z" />
    <glyph glyph-name="uni14D0" unicode="&#x14d0;" horiz-adv-x="917" 
d="M817 841v-124h-496q-46 0 -86 17.5t-70 47.5t-47.5 70t-17.5 86t17.5 86t47.5 70t70 47.5t86 17.5t86 -17.5t70 -47.5t47.5 -70t17.5 -86v-97h275zM418 841v98q0 21 -8 38.5t-21.5 30.5t-31 20t-36.5 7t-36.5 -7t-31 -20t-21.5 -30.5t-8 -38.5q0 -29 9 -47.5t23.5 -30
t31.5 -16t33 -4.5h97z" />
    <glyph glyph-name="uni14D1" unicode="&#x14d1;" horiz-adv-x="917" 
d="M817 1075q0 -74 -28 -134.5t-77 -114t-114 -81.5t-140 -28q-74 0 -139.5 28t-114 76.5t-76.5 114t-28 139.5v359h126v-349q0 -47 18 -91t49.5 -77.5t73.5 -53.5t91 -20t91.5 20t74 53.5t49.5 77.5t18 91v349h126v-359z" />
    <glyph glyph-name="uni14D2" unicode="&#x14d2;" horiz-adv-x="917" 
d="M375 841v97q0 46 17.5 86t47.5 70t70 47.5t86 17.5t86 -17.5t70 -47.5t47.5 -70t17.5 -86t-17.5 -86t-47.5 -70t-70 -47.5t-86 -17.5h-496v124h275zM596 841q16 0 33 4.5t31 16t23.5 30t9.5 47.5q0 21 -8 38.5t-21.5 30.5t-31 20t-36.5 7t-36.5 -7t-31 -20t-21.5 -30.5
t-8 -38.5v-98h97z" />
    <glyph glyph-name="uni14D3" unicode="&#x14d3;" 
d="M100 717v168h991q91 0 172 -35t141 -95t95 -140.5t35 -171.5q0 -92 -35 -172.5t-95 -140.5t-141 -95t-172 -35h-91v168h91q59 0 109.5 21t87 58t57.5 87t21 107t-21 107t-57.5 87.5t-87 59.5t-109.5 22h-991z" />
    <glyph glyph-name="uni14D4" unicode="&#x14d4;" 
d="M543 717q-59 0 -109.5 -22t-87 -59.5t-57.5 -87.5t-21 -107t21 -107t57.5 -87t87 -58t109.5 -21h91v-168h-91q-92 0 -172.5 35t-140.5 95t-95 140.5t-35 172.5q0 91 35 171.5t95 140.5t140.5 95t172.5 35h991v-168h-991zM430 1197q0 -23 9 -43.5t24 -35.5t35.5 -24
t43.5 -9t43.5 9t35.5 24t24 35.5t9 43.5t-9 43.5t-24 35.5t-35.5 24t-43.5 9t-43.5 -9t-35.5 -24t-24 -35.5t-9 -43.5zM330 1200q0 43 17 81t45.5 66.5t67 45t81.5 16.5t81.5 -16.5t68 -45t46.5 -66.5t17 -81t-17 -82t-46.5 -68.5t-68 -47t-81.5 -17.5t-81.5 17.5t-67 47
t-45.5 68.5t-17 82z" />
    <glyph glyph-name="uni14D5" unicode="&#x14d5;" 
d="M543 717q-59 0 -109.5 -22t-87 -59.5t-57.5 -87.5t-21 -107t21 -107t57.5 -87t87 -58t109.5 -21h91v-168h-91q-92 0 -172.5 35t-140.5 95t-95 140.5t-35 172.5q0 91 35 171.5t95 140.5t140.5 95t172.5 35h991v-168h-991z" />
    <glyph glyph-name="uni14D6" unicode="&#x14d6;" 
d="M543 717q-59 0 -109.5 -22t-87 -59.5t-57.5 -87.5t-21 -107t21 -107t57.5 -87t87 -58t109.5 -21h91v-168h-91q-92 0 -172.5 35t-140.5 95t-95 140.5t-35 172.5q0 91 35 171.5t95 140.5t140.5 95t172.5 35h991v-168h-991zM430 1197q0 23 9 43.5t24 35.5t35.5 24t43.5 9
t43.5 -9t35.5 -24t24 -35.5t9 -43.5t-9 -43.5t-24 -35.5t-35.5 -24t-43.5 -9t-43.5 9t-35.5 24t-24 35.5t-9 43.5z" />
    <glyph glyph-name="uni14D7" unicode="&#x14d7;" 
d="M1091 168q59 0 109.5 22t87 59.5t57.5 87.5t21 107t-21 107t-57.5 87t-87 58t-109.5 21h-91v168h91q91 0 172 -35t141 -95t95 -141t35 -172q0 -92 -35 -172.5t-95 -140.5t-141 -94.5t-172 -34.5h-991v168h991z" />
    <glyph glyph-name="uni14D8" unicode="&#x14d8;" 
d="M1091 168q59 0 109.5 22t87 59.5t57.5 87.5t21 107t-21 107t-57.5 87t-87 58t-109.5 21h-91v168h91q91 0 172 -35t141 -95t95 -141t35 -172q0 -92 -35 -172.5t-95 -140.5t-141 -94.5t-172 -34.5h-991v168h991zM979 1197q0 23 9 43.5t24 35.5t35.5 24t43.5 9t43.5 -9
t35.5 -24t24 -35.5t9 -43.5t-9 -43.5t-24 -35.5t-35.5 -24t-43.5 -9t-43.5 9t-35.5 24t-24 35.5t-9 43.5z" />
    <glyph glyph-name="uni14D9" unicode="&#x14d9;" 
d="M1091 168q59 0 109.5 22t87 59.5t57.5 87.5t21 107t-21 107t-57.5 87t-87 58t-109.5 21h-91v168h91q91 0 172 -35t141 -95t95 -141t35 -172q0 -92 -35 -172.5t-95 -140.5t-141 -94.5t-172 -34.5h-991v168h991zM798 1197q0 23 9 43.5t24 35.5t35.5 24t43.5 9t43.5 -9
t35.5 -24t24 -35.5t9 -43.5t-9 -43.5t-24 -35.5t-35.5 -24t-43.5 -9t-43.5 9t-35.5 24t-24 35.5t-9 43.5zM1158 1197q0 23 9 43.5t24 35.5t35.5 24t43.5 9t43.5 -9t35.5 -24t24 -35.5t9 -43.5t-9 -43.5t-24 -35.5t-35.5 -24t-43.5 -9t-43.5 9t-35.5 24t-24 35.5t-9 43.5z
" />
    <glyph glyph-name="uni14DA" unicode="&#x14da;" 
d="M1534 168v-168h-991q-92 0 -172.5 34.5t-140.5 94.5t-95 140.5t-35 172.5q0 91 35 172t95 141t140.5 95t172.5 35h91v-168h-91q-59 0 -109.5 -21t-87 -58t-57.5 -87t-21 -107t21 -107t57.5 -87.5t87 -59.5t109.5 -22h991z" />
    <glyph glyph-name="uni14DB" unicode="&#x14db;" 
d="M1534 168v-168h-991q-92 0 -172.5 34.5t-140.5 94.5t-95 140.5t-35 172.5q0 91 35 172t95 141t140.5 95t172.5 35h91v-168h-91q-59 0 -109.5 -21t-87 -58t-57.5 -87t-21 -107t21 -107t57.5 -87.5t87 -59.5t109.5 -22h991zM430 1197q0 23 9 43.5t24 35.5t35.5 24t43.5 9
t43.5 -9t35.5 -24t24 -35.5t9 -43.5t-9 -43.5t-24 -35.5t-35.5 -24t-43.5 -9t-43.5 9t-35.5 24t-24 35.5t-9 43.5z" />
    <glyph glyph-name="uni14DC" unicode="&#x14dc;" horiz-adv-x="1868" 
d="M334 717v168h991q91 0 172 -35t141 -95t95 -140.5t35 -171.5q0 -92 -35 -172.5t-95 -140.5t-141 -95t-172 -35h-91v168h91q59 0 109.5 21t87 58t57.5 87t21 107t-21 107t-57.5 87.5t-87 59.5t-109.5 22h-991zM10 717q0 23 9 43.5t24 35.5t35.5 24t43.5 9t43.5 -9
t35.5 -24t24 -35.5t9 -43.5t-9 -43.5t-24 -35.5t-35.5 -24t-43.5 -9t-43.5 9t-35.5 24t-24 35.5t-9 43.5z" />
    <glyph glyph-name="uni14DD" unicode="&#x14dd;" horiz-adv-x="1868" 
d="M100 717v168h991q91 0 172 -35t141 -95t95 -140.5t35 -171.5q0 -92 -35 -172.5t-95 -140.5t-141 -95t-172 -35h-91v168h91q59 0 109.5 21t87 58t57.5 87t21 107t-21 107t-57.5 87.5t-87 59.5t-109.5 22h-991zM1634 717q0 23 9 43.5t24 35.5t35.5 24t43.5 9t43.5 -9
t35.5 -24t24 -35.5t9 -43.5t-9 -43.5t-24 -35.5t-35.5 -24t-43.5 -9t-43.5 9t-35.5 24t-24 35.5t-9 43.5z" />
    <glyph glyph-name="uni14DE" unicode="&#x14de;" horiz-adv-x="1868" 
d="M777 717q-59 0 -109.5 -22t-87 -59.5t-57.5 -87.5t-21 -107t21 -107t57.5 -87t87 -58t109.5 -21h91v-168h-91q-92 0 -172.5 35t-140.5 95t-95 140.5t-35 172.5q0 91 35 171.5t95 140.5t140.5 95t172.5 35h991v-168h-991zM10 717q0 23 9 43.5t24 35.5t35.5 24t43.5 9
t43.5 -9t35.5 -24t24 -35.5t9 -43.5t-9 -43.5t-24 -35.5t-35.5 -24t-43.5 -9t-43.5 9t-35.5 24t-24 35.5t-9 43.5z" />
    <glyph glyph-name="uni14DF" unicode="&#x14df;" horiz-adv-x="1868" 
d="M543 717q-59 0 -109.5 -22t-87 -59.5t-57.5 -87.5t-21 -107t21 -107t57.5 -87t87 -58t109.5 -21h91v-168h-91q-92 0 -172.5 35t-140.5 95t-95 140.5t-35 172.5q0 91 35 171.5t95 140.5t140.5 95t172.5 35h991v-168h-991zM1634 717q0 23 9 43.5t24 35.5t35.5 24t43.5 9
t43.5 -9t35.5 -24t24 -35.5t9 -43.5t-9 -43.5t-24 -35.5t-35.5 -24t-43.5 -9t-43.5 9t-35.5 24t-24 35.5t-9 43.5z" />
    <glyph glyph-name="uni14E0" unicode="&#x14e0;" horiz-adv-x="1868" 
d="M777 717q-59 0 -109.5 -22t-87 -59.5t-57.5 -87.5t-21 -107t21 -107t57.5 -87t87 -58t109.5 -21h91v-168h-91q-92 0 -172.5 35t-140.5 95t-95 140.5t-35 172.5q0 91 35 171.5t95 140.5t140.5 95t172.5 35h991v-168h-991zM10 717q0 23 9 43.5t24 35.5t35.5 24t43.5 9
t43.5 -9t35.5 -24t24 -35.5t9 -43.5t-9 -43.5t-24 -35.5t-35.5 -24t-43.5 -9t-43.5 9t-35.5 24t-24 35.5t-9 43.5zM665 1197q0 23 9 43.5t24 35.5t35.5 24t43.5 9t43.5 -9t35.5 -24t24 -35.5t9 -43.5t-9 -43.5t-24 -35.5t-35.5 -24t-43.5 -9t-43.5 9t-35.5 24t-24 35.5
t-9 43.5z" />
    <glyph glyph-name="uni14E1" unicode="&#x14e1;" horiz-adv-x="1868" 
d="M543 717q-59 0 -109.5 -22t-87 -59.5t-57.5 -87.5t-21 -107t21 -107t57.5 -87t87 -58t109.5 -21h91v-168h-91q-92 0 -172.5 35t-140.5 95t-95 140.5t-35 172.5q0 91 35 171.5t95 140.5t140.5 95t172.5 35h991v-168h-991zM1634 717q0 23 9 43.5t24 35.5t35.5 24t43.5 9
t43.5 -9t35.5 -24t24 -35.5t9 -43.5t-9 -43.5t-24 -35.5t-35.5 -24t-43.5 -9t-43.5 9t-35.5 24t-24 35.5t-9 43.5zM430 1197q0 23 9 43.5t24 35.5t35.5 24t43.5 9t43.5 -9t35.5 -24t24 -35.5t9 -43.5t-9 -43.5t-24 -35.5t-35.5 -24t-43.5 -9t-43.5 9t-35.5 24t-24 35.5
t-9 43.5z" />
    <glyph glyph-name="uni14E2" unicode="&#x14e2;" 
d="M1091 168q59 0 109.5 22t87 59.5t57.5 87.5t21 107t-21 107t-57.5 87t-87 58t-109.5 21h-91v168h91q91 0 172 -35t141 -95t95 -141t35 -172q0 -92 -35 -172.5t-95 -140.5t-141 -94.5t-172 -34.5h-991v168h991zM235 717q0 23 9 43.5t24 35.5t35.5 24t43.5 9t43.5 -9
t35.5 -24t24 -35.5t9 -43.5t-9 -43.5t-24 -35.5t-35.5 -24t-43.5 -9t-43.5 9t-35.5 24t-24 35.5t-9 43.5z" />
    <glyph glyph-name="uni14E3" unicode="&#x14e3;" horiz-adv-x="1868" 
d="M1091 168q59 0 109.5 22t87 59.5t57.5 87.5t21 107t-21 107t-57.5 87t-87 58t-109.5 21h-91v168h91q91 0 172 -35t141 -95t95 -141t35 -172q0 -92 -35 -172.5t-95 -140.5t-141 -94.5t-172 -34.5h-991v168h991zM1634 717q0 23 9 43.5t24 35.5t35.5 24t43.5 9t43.5 -9
t35.5 -24t24 -35.5t9 -43.5t-9 -43.5t-24 -35.5t-35.5 -24t-43.5 -9t-43.5 9t-35.5 24t-24 35.5t-9 43.5z" />
    <glyph glyph-name="uni14E4" unicode="&#x14e4;" 
d="M1091 168q59 0 109.5 22t87 59.5t57.5 87.5t21 107t-21 107t-57.5 87t-87 58t-109.5 21h-91v168h91q91 0 172 -35t141 -95t95 -141t35 -172q0 -92 -35 -172.5t-95 -140.5t-141 -94.5t-172 -34.5h-991v168h991zM235 717q0 23 9 43.5t24 35.5t35.5 24t43.5 9t43.5 -9
t35.5 -24t24 -35.5t9 -43.5t-9 -43.5t-24 -35.5t-35.5 -24t-43.5 -9t-43.5 9t-35.5 24t-24 35.5t-9 43.5zM979 1197q0 23 9 43.5t24 35.5t35.5 24t43.5 9t43.5 -9t35.5 -24t24 -35.5t9 -43.5t-9 -43.5t-24 -35.5t-35.5 -24t-43.5 -9t-43.5 9t-35.5 24t-24 35.5t-9 43.5z" />
    <glyph glyph-name="uni14E5" unicode="&#x14e5;" horiz-adv-x="1868" 
d="M1091 168q59 0 109.5 22t87 59.5t57.5 87.5t21 107t-21 107t-57.5 87t-87 58t-109.5 21h-91v168h91q91 0 172 -35t141 -95t95 -141t35 -172q0 -92 -35 -172.5t-95 -140.5t-141 -94.5t-172 -34.5h-991v168h991zM1634 717q0 23 9 43.5t24 35.5t35.5 24t43.5 9t43.5 -9
t35.5 -24t24 -35.5t9 -43.5t-9 -43.5t-24 -35.5t-35.5 -24t-43.5 -9t-43.5 9t-35.5 24t-24 35.5t-9 43.5zM979 1197q0 23 9 43.5t24 35.5t35.5 24t43.5 9t43.5 -9t35.5 -24t24 -35.5t9 -43.5t-9 -43.5t-24 -35.5t-35.5 -24t-43.5 -9t-43.5 9t-35.5 24t-24 35.5t-9 43.5z" />
    <glyph glyph-name="uni14E6" unicode="&#x14e6;" horiz-adv-x="1868" 
d="M1768 168v-168h-991q-92 0 -172.5 34.5t-140.5 94.5t-95 140.5t-35 172.5q0 91 35 172t95 141t140.5 95t172.5 35h91v-168h-91q-59 0 -109.5 -21t-87 -58t-57.5 -87t-21 -107t21 -107t57.5 -87.5t87 -59.5t109.5 -22h991zM10 717q0 23 9 43.5t24 35.5t35.5 24t43.5 9
t43.5 -9t35.5 -24t24 -35.5t9 -43.5t-9 -43.5t-24 -35.5t-35.5 -24t-43.5 -9t-43.5 9t-35.5 24t-24 35.5t-9 43.5z" />
    <glyph glyph-name="uni14E7" unicode="&#x14e7;" 
d="M1534 168v-168h-991q-92 0 -172.5 34.5t-140.5 94.5t-95 140.5t-35 172.5q0 91 35 172t95 141t140.5 95t172.5 35h91v-168h-91q-59 0 -109.5 -21t-87 -58t-57.5 -87t-21 -107t21 -107t57.5 -87.5t87 -59.5t109.5 -22h991zM1175 717q0 23 9 43.5t24 35.5t35.5 24t43.5 9
t43.5 -9t35.5 -24t24 -35.5t9 -43.5t-9 -43.5t-24 -35.5t-35.5 -24t-43.5 -9t-43.5 9t-35.5 24t-24 35.5t-9 43.5z" />
    <glyph glyph-name="uni14E8" unicode="&#x14e8;" horiz-adv-x="1868" 
d="M1768 168v-168h-991q-92 0 -172.5 34.5t-140.5 94.5t-95 140.5t-35 172.5q0 91 35 172t95 141t140.5 95t172.5 35h91v-168h-91q-59 0 -109.5 -21t-87 -58t-57.5 -87t-21 -107t21 -107t57.5 -87.5t87 -59.5t109.5 -22h991zM10 717q0 23 9 43.5t24 35.5t35.5 24t43.5 9
t43.5 -9t35.5 -24t24 -35.5t9 -43.5t-9 -43.5t-24 -35.5t-35.5 -24t-43.5 -9t-43.5 9t-35.5 24t-24 35.5t-9 43.5zM665 1197q0 23 9 43.5t24 35.5t35.5 24t43.5 9t43.5 -9t35.5 -24t24 -35.5t9 -43.5t-9 -43.5t-24 -35.5t-35.5 -24t-43.5 -9t-43.5 9t-35.5 24t-24 35.5
t-9 43.5z" />
    </font>
</defs>
</svg>
